{
.appVersion = "3134";
.formatVersion = 3;
classes = (
{
code = "A Aacute Abreve Acircumflex Adieresis Agrave Amacron Aogonek Aring Atilde AE B C Cacute Ccaron Ccedilla Cdotaccent D Eth Dcaron Dcroat E Eacute Ecaron Ecircumflex Edieresis Edotaccent Egrave Emacron Eogonek F G Gbreve Gdotaccent H Hbar I Iacute Icircumflex Idieresis Idotaccent Igrave Imacron Iogonek J K L Lacute Lcaron Ldot Lslash M N Nacute Ncaron Ntilde Eng O Oacute Ocircumflex Odieresis Ograve Ohungarumlaut Omacron Oslash Otilde OE P Thorn Q R Racute Rcaron S Sacute Scaron Scedilla T Tbar Tcaron U Uacute Ucircumflex Udieresis Ugrave Uhungarumlaut Umacron Uogonek Uring V W Wacute Wcircumflex Wdieresis Wgrave X Y Yacute Ycircumflex Ydieresis Ygrave Z Zacute Zcaron Zdotaccent A_E A_O C_H C_Q D_E E_A Eacute_E E_S E_U E_T_E F_F_E F_V I_E I_L L_E L_L_E L_U M_P N_A N_E N_N_E O_F O_T_E O_Idieresis P_M R_E R_I_C_E R_S S_E S_L S_S_E S_T_E_S T_E T_T_E U_E U_L_L_E X_C_E X_L X_S_E X_S_S 
";
name = Uppercase;
}
);
customParameters = (
{
name = panose;
value = (
0,
0,
4,
0,
0,
0,
0,
0,
0,
0
);
},
{
name = unicodeRanges;
value = (
0,
1,
2
);
},
{
name = codePageRanges;
value = (
"1252",
"1250",
"1254",
"1257",
"bit 29"
);
},
{
name = blueScale;
value = 0.037;
},
{
name = glyphOrder;
value = (
.notdef,
A,
Aacute,
Abreve,
Acircumflex,
Adieresis,
Agrave,
Amacron,
Aogonek,
Aring,
Atilde,
AE,
B,
C,
Cacute,
Ccaron,
Ccedilla,
Cdotaccent,
D,
Eth,
Dcaron,
Dcroat,
E,
Eacute,
Ecaron,
Ecircumflex,
Edieresis,
Edotaccent,
Egrave,
Emacron,
Eogonek,
F,
G,
Gbreve,
Gcommaaccent,
Gdotaccent,
H,
Hbar,
I,
IJ,
Iacute,
Icircumflex,
Idieresis,
Idotaccent,
Igrave,
Imacron,
Iogonek,
J,
K,
Kcommaaccent,
L,
Lacute,
Lcaron,
Lcommaaccent,
Ldot,
Lslash,
M,
N,
Nacute,
Ncaron,
Ncommaaccent,
Eng,
Ntilde,
O,
Oacute,
Ocircumflex,
Odieresis,
Ograve,
Ohungarumlaut,
Omacron,
Oslash,
Otilde,
OE,
P,
Thorn,
Q,
R,
Racute,
Rcaron,
Rcommaaccent,
S,
Sacute,
Scaron,
Scedilla,
Scommaaccent,
T,
Tbar,
Tcaron,
Tcedilla,
uni021A,
U,
Uacute,
Ucircumflex,
Udieresis,

glyphs = (
{
glyphname = .notdef;
layers = (
{
hints = (
{
horizontal = 1;
place = (0, 50);
place = (0, 50);
type = Stem;
},
{
horizontal = 1;
place = (650, 50);
place = (650, 50);
type = Stem;
},
{
place = (0, 50);
place = (0, 50);
type = Stem;
},
{
place = (450, 50);
place = (450, 50);
type = Stem;
}
);
layerId = m01;
shapes = (
{
closed = 1;
nodes = (
(0,0,l),
(500,0,l),
(500,700,l),
(0,700,l)
);
},
{
closed = 1;
nodes = (
(250,395,l),
(80,650,l),
(420,650,l)
);
},
{
closed = 1;
nodes = (
(280,350,l),
(450,605,l),
(450,95,l)
);
},
{
closed = 1;
nodes = (
(80,50,l),
(250,305,l),
(420,50,l)
);
},
{
closed = 1;
nodes = (
(50,605,l),
(220,350,l),
(50,95,l)
);
}
);
width = 500;
}
);
note = ".notdef";
},
{
glyphname = A;
kernLeft = A;
kernRight = A;
layers = (
{
hints = (
{
horizontal = 1;
place = (0, 21);
target = up;
type = BottomGhost;
},
{
horizontal = 1;
place = (253, 52);
place = (253, 52);
type = Stem;
},
{
horizontal = 1;
place = (640, 50);
place = (640, 50);
type = Stem;
},
{
place = (32, 587);
place = (32, 587);
type = Stem;
}
);
layerId = m01;
shapes = (
{
closed = 1;
nodes = (
(462,253,l),
(552,0,l),
(619,0,l),
(370,690,l),
(287,690,l),
(32,0,l),
(98,0,l),
(187,253,l)
);
},
{
closed = 1;
nodes = (
(205,305,l),
(327,640,l),
(444,305,l)
);
}
);
width = 630;
}
);
note = A;
unicode = 65;
},
{
glyphname = Aacute;
kernLeft = A;
kernRight = A;
layers = (
{
hints = (
{
horizontal = 1;
place = (0, 21);
target = up;
type = BottomGhost;
},
{
horizontal = 1;
place = (253, 52);
place = (253, 52);
type = Stem;
},
{
horizontal = 1;
place = (640, 50);
place = (640, 50);
type = Stem;
},
{
horizontal = 1;
place = (736, 94);
place = (736, 94);
type = Stem;
},
{
place = (32, 587);
place = (32, 587);
type = Stem;
}
);
layerId = m01;
shapes = (
{
closed = 1;
nodes = (
(345,736,l),
(417,830,l),
(357,830,l),
(303,736,l)
);
},
{
closed = 1;
nodes = (
(462,253,l),
(552,0,l),
(619,0,l),
(370,690,l),
(287,690,l),
(32,0,l),
(98,0,l),
(187,253,l)
);
},
{
closed = 1;
nodes = (
(205,305,l),
(327,640,l),
(444,305,l)
);
}
);
width = 630;
}
);
note = Aacute;
unicode = 193;
},
{
glyphname = Abreve;
kernLeft = A;
kernRight = A;
layers = (
{
hints = (
{
horizontal = 1;
place = (0, 21);
target = up;
type = BottomGhost;
},
{
horizontal = 1;
place = (253, 52);
place = (253, 52);
type = Stem;
},
{
horizontal = 1;
place = (640, 50);
place = (640, 50);
type = Stem;
},
{
horizontal = 1;
place = (722, 42);
place = (722, 42);
type = Stem;
},
{
place = (228, 40);
place = (228, 40);
type = Stem;
},
{
place = (388, 40);
place = (388, 40);
type = Stem;
}
);
layerId = m01;
shapes = (
{
closed = 1;
nodes = (
(394,722,o),
(428,762,o),
(428,830,c),
(388,830,l),
(387,787,o),
(363,764,o),
(328,764,cs),
(293,764,o),
(269,787,o),
(268,830,c),
(228,830,l),
(228,762,o),
(261,722,o),
(328,722,cs)
);
},
{
closed = 1;
nodes = (
(462,253,l),
(552,0,l),
(619,0,l),
(370,690,l),
(287,690,l),
(32,0,l),
(98,0,l),
(187,253,l)
);
},
{
closed = 1;
nodes = (
(205,305,l),
(327,640,l),
(444,305,l)
);
}
);
width = 630;
}
);
note = Abreve;
unicode = 258;
},
{
glyphname = Acircumflex;
kernLeft = A;
kernRight = A;
layers = (
{
hints = (
{
horizontal = 1;
place = (0, 21);
target = up;
type = BottomGhost;
},
{
horizontal = 1;
place = (253, 52);
place = (253, 52);
type = Stem;
},
{
horizontal = 1;
place = (640, 50);
place = (640, 50);
type = Stem;
},
{
horizontal = 1;
place = (736, 94);
place = (736, 94);
type = Stem;
},
{
place = (32, 587);
place = (32, 587);
type = Stem;
}
);
layerId = m01;
shapes = (
{
closed = 1;
nodes = (
(289,736,l),
(328,802,l),
(367,736,l),
(418,736,l),
(351,830,l),
(306,830,l),
(240,736,l)
);
},
{
closed = 1;
nodes = (
(462,253,l),
(552,0,l),
(619,0,l),
(370,690,l),
(287,690,l),
(32,0,l),
(98,0,l),
(187,253,l)
);
},
{
closed = 1;
nodes = (
(205,305,l),
(327,640,l),
(444,305,l)
);
}
);
width = 630;
}
);
note = Acircumflex;
unicode = 194;
},
{
glyphname = Adieresis;
kernLeft = A;
kernRight = A;
lastChange = "2022-11-29 09:52:06 +0000";
layers = (
{
hints = (
{
horizontal = 1;
place = (0, 21);
target = up;
type = BottomGhost;
},
{
horizontal = 1;
place = (253, 52);
place = (253, 52);
type = Stem;
},
{
horizontal = 1;
place = (640, 50);
place = (640, 50);
type = Stem;
},
{
horizontal = 1;
place = (747, 72);
place = (747, 72);
type = Stem;
},
{
place = (235, 72);
place = (235, 72);
type = Stem;
},
{
place = (349, 72);
place = (349, 72);
type = Stem;
}
);
layerId = m01;
shapes = (
{
closed = 1;
nodes = (
(462,253,l),
(552,0,l),
(619,0,l),
(370,690,l),
(287,690,l),
(32,0,l),
(98,0,l),
(187,253,l)
);
},
{
closed = 1;
nodes = (
(205,305,l),
(327,640,l),
(444,305,l)
);
},
{
closed = 1;
nodes = (
(235,747,l),
(307,747,l),
(307,819,l),
(235,819,l)
);
},
{
closed = 1;
nodes = (
(349,747,l),
(421,747,l),
(421,819,l),
(349,819,l)
);
}
);
width = 630;
}
);
note = Adieresis;
unicode = 196;
},
{
glyphname = Agrave;
kernLeft = A;
kernRight = A;
layers = (
{
hints = (
{
horizontal = 1;
place = (0, 21);
target = up;
type = BottomGhost;
},
{
horizontal = 1;
place = (253, 52);
place = (253, 52);
type = Stem;
},
{
horizontal = 1;
place = (640, 50);
place = (640, 50);
type = Stem;
},
{
horizontal = 1;
place = (736, 94);
place = (736, 94);
type = Stem;
},
{
place = (32, 587);
place = (32, 587);
type = Stem;
}
);
layerId = m01;
shapes = (
{
closed = 1;
nodes = (
(309,736,l),
(351,736,l),
(298,830,l),
(237,830,l)
);
},
{
closed = 1;
nodes = (
(462,253,l),
(552,0,l),
(619,0,l),
(370,690,l),
(287,690,l),
(32,0,l),
(98,0,l),
(187,253,l)
);
},
{
closed = 1;
nodes = (
(205,305,l),
(327,640,l),
(444,305,l)
);
}
);
width = 630;
}
);
note = Agrave;
unicode = 192;
},
{
glyphname = Amacron;
kernLeft = A;
kernRight = A;
layers = (
{
hints = (
{
horizontal = 1;
place = (0, 21);
target = up;
type = BottomGhost;
},
{
horizontal = 1;
place = (253, 52);
place = (253, 52);
type = Stem;
},
{
horizontal = 1;
place = (640, 50);
place = (640, 50);
type = Stem;
},
{
horizontal = 1;
place = (763, 40);
place = (763, 40);
type = Stem;
},
{
place = (227, 202);
place = (227, 202);
type = Stem;
}
);
layerId = m01;
shapes = (
{
closed = 1;
nodes = (
(429,763,l),
(429,803,l),
(227,803,l),
(227,763,l)
);
},
{
closed = 1;
nodes = (
(462,253,l),
(552,0,l),
(619,0,l),
(370,690,l),
(287,690,l),
(32,0,l),
(98,0,l),
(187,253,l)
);
},
{
closed = 1;
nodes = (
(205,305,l),
(327,640,l),
(444,305,l)
);
}
);
width = 630;
}
);
note = Amacron;
unicode = 256;
},
{
glyphname = Aogonek;
kernLeft = A;
kernRight = A;
layers = (
{
hints = (
{
horizontal = 1;
place = (-223, 41);
place = (-223, 41);
type = Stem;
},
{
horizontal = 1;
place = (0, 21);
target = up;
type = BottomGhost;
},
{
horizontal = 1;
place = (253, 52);
place = (253, 52);
type = Stem;
},
{
horizontal = 1;
place = (640, 50);
place = (640, 50);
type = Stem;
},
{
place = (433, 60);
place = (433, 60);
type = Stem;
}
);
layerId = m01;
shapes = (
{
closed = 1;
nodes = (
(619,0,l),
(370,690,l),
(287,690,l),
(32,0,l),
(98,0,l),
(187,253,l),
(462,253,l),
(548,10,l),
(485,-16,o),
(433,-71,o),
(433,-144,cs),
(433,-204,o),
(469,-223,o),
(515,-223,cs),
(547,-223,o),
(574,-215,o),
(597,-197,c),
(597,-158,l),
(577,-175,o),
(559,-182,o),
(538,-182,cs),
(509,-182,o),
(493,-168,o),
(493,-131,cs),
(493,-67,o),
(539,-17,o),
(597,0,c)
);
},
{
closed = 1;
nodes = (
(205,305,l),
(327,640,l),
(444,305,l)
);
}
);
width = 630;
}
);
note = Aogonek;
unicode = 260;
},
{
glyphname = Aring;
kernLeft = A;
kernRight = A;
layers = (
{
hints = (
{
horizontal = 1;
place = (0, 21);
target = up;
type = BottomGhost;
},
{
horizontal = 1;
place = (253, 52);
place = (253, 52);
type = Stem;
},
{
horizontal = 1;
place = (718, 31);
place = (718, 31);
type = Stem;
},
{
horizontal = 1;
place = (832, 31);
place = (832, 31);
type = Stem;
},
{
place = (248, 40);
place = (248, 40);
type = Stem;
},
{
place = (368, 41);
place = (368, 41);
type = Stem;
},
{
horizontal = 1;
place = (640, 50);
place = (640, 50);
type = Stem;
}
);
layerId = m01;
shapes = (
{
closed = 1;
nodes = (
(374,718,o),
(409,748,o),
(409,791,cs),
(409,834,o),
(374,863,o),
(328,863,cs),
(282,863,o),
(248,834,o),
(248,791,cs),
(248,748,o),
(282,718,o),
(328,718,cs)
);
},
{
closed = 1;
nodes = (
(352,832,o),
(368,814,o),
(368,791,cs),
(368,767,o),
(352,749,o),
(328,749,cs),
(304,749,o),
(288,767,o),
(288,791,cs),
(288,814,o),
(304,832,o),
(328,832,cs)
);
},
{
closed = 1;
nodes = (
(462,253,l),
(552,0,l),
(619,0,l),
(370,690,l),
(287,690,l),
(32,0,l),
(98,0,l),
(187,253,l)
);
},
{
closed = 1;
nodes = (
(205,305,l),
(327,640,l),
(444,305,l)
);
}
);
width = 630;
}
);
note = Aring;
unicode = 197;
},
{
glyphname = Atilde;
kernLeft = A;
kernRight = A;
layers = (
{
hints = (
{
horizontal = 1;
place = (0, 21);
target = up;
type = BottomGhost;
},
{
horizontal = 1;
place = (253, 52);
place = (253, 52);
type = Stem;
},
{
horizontal = 1;
place = (640, 50);
place = (640, 50);
type = Stem;
},
{
horizontal = 1;
place = (776, 39);
place = (776, 39);
type = Stem;
},
{
place = (229, 31);
place = (229, 31);
type = Stem;
},
{
place = (396, 31);
place = (396, 31);
type = Stem;
},
{
horizontal = 1;
place = (752, 39);
place = (752, 39);
type = Stem;
}
);
layerId = m01;
shapes = (
{
closed = 1;
nodes = (
(285,776,o),
(297,773,o),
(321,765,cs),
(348,756,o),
(363,752,o),
(381,752,cs),
(410,752,o),
(427,767,o),
(427,811,c),
(396,811,l),
(396,796,o),
(390,791,o),
(380,791,cs),
(371,791,o),
(359,794,o),
(335,802,cs),
(308,811,o),
(293,815,o),
(275,815,cs),
(246,815,o),
(229,800,o),
(229,756,c),
(260,756,l),
(260,771,o),
(266,776,o),
(276,776,cs)
);
},
{
closed = 1;
nodes = (
(462,253,l),
(552,0,l),
(619,0,l),
(370,690,l),
(287,690,l),
(32,0,l),
(98,0,l),
(187,253,l)
);
},
{
closed = 1;
nodes = (
(205,305,l),
(327,640,l),
(444,305,l)
);
}
);
width = 630;
}
);
note = Atilde;
unicode = 195;
},
{
glyphname = AE;
layers = (
{
hints = (
{
horizontal = 1;
place = (0, 51);
place = (0, 51);
type = Stem;
},
{
horizontal = 1;
place = (319, 52);
place = (319, 52);
type = Stem;
},
{
horizontal = 1;
place = (639, 51);
place = (639, 51);
type = Stem;
},
{
place = (427, 61);
place = (427, 61);
type = Stem;
},
{
place = (445.5, 58.5);
place = (445.5, 58.5);
type = Stem;
},
{
horizontal = 1;
place = (253, 52);
place = (253, 52);
type = Stem;
}
);
layerId = m01;
shapes = (
{
closed = 1;
nodes = (
(874,51,l),
(511,51,l),
(497,319,l),
(838,319,l),
(838,371,l),
(495,371,l),
(481,639,l),
(864,639,l),
(864,690,l),
(386,690,l),
(-26,0,l),
(42,0,l),
(191,253,l),
(439,253,l),
(452,0,l),
(874,0,l)
);
},
{
closed = 1;
nodes = (
(436,305,l),
(221,305,l),
(418,640,l)
);
}
);
width = 904;
}
);
note = AE;
unicode = 198;
},
{
glyphname = B;
layers = (
{
hints = (
{
horizontal = 1;
place = (0, 52);
place = (0, 52);
type = Stem;
},
{
horizontal = 1;
place = (334, 51);
place = (334, 51);
type = Stem;
},
{
horizontal = 1;
place = (638, 52);
place = (638, 52);
type = Stem;
},
{
place = (99, 62);
place = (99, 62);
type = Stem;
},
{
place = (507, 66);
place = (507, 66);
type = Stem;
},
{
place = (481, 67);
place = (481, 67);
type = Stem;
}
);
layerId = m01;
shapes = (
{
closed = 1;
nodes = (
(500,387,o),
(548,437,o),
(548,521,cs),
(548,618,o),
(483,675,o),
(376,687,cs),
(342,690,o),
(321,690,o),
(291,690,cs),
(99,690,l),
(99,0,l),
(309,0,ls),
(338,0,o),
(359,0,o),
(390,4,cs),
(485,15,o),
(573,76,o),
(573,196,cs),
(573,290,o),
(522,345,o),
(425,366,c)
);
},
{
closed = 1;
nodes = (
(161,638,l),
(295,638,ls),
(315,638,o),
(334,638,o),
(354,637,cs),
(423,631,o),
(481,598,o),
(481,514,cs),
(481,435,o),
(432,396,o),
(361,388,cs),
(340,386,o),
(323,385,o),
(306,385,cs),
(161,385,l)
);
},
{
closed = 1;
nodes = (
(357,52,o),
(339,52,o),
(323,52,cs),
(161,52,l),
(161,334,l),
(317,334,ls),
(333,334,o),
(348,333,o),
(371,331,cs),
(463,323,o),
(507,272,o),
(507,190,cs),
(507,102,o),
(443,59,o),
(370,53,cs)
);
}
);
width = 612;
}
);
note = B;
unicode = 66;
},
{
glyphname = C;
kernLeft = C;
kernRight = C;
layers = (
{
hints = (
{
horizontal = 1;
place = (-14, 50);
place = (-14, 50);
type = Stem;
},
{
horizontal = 1;
place = (654, 50);
place = (654, 50);
type = Stem;
},
{
place = (49, 69);
place = (49, 69);
type = Stem;
},
{
place = (578, 62.5);
place = (578, 62.5);
type = Stem;
},
{
place = (581, 62.5);
place = (581, 62.5);
type = Stem;
}
);
layerId = m01;
shapes = (
{
closed = 1;
nodes = (
(181,704,o),
(49,554,o),
(49,342,cs),
(49,132,o),
(167,-14,o),
(356,-14,cs),
(532,-14,o),
(622,92,o),
(640,219,cs),
(641,229,l),
(579,229,l),
(577,219,ls),
(556,113,o),
(488,36,o),
(360,36,cs),
(220,36,o),
(118,153,o),
(118,345,cs),
(118,533,o),
(225,654,o),
(367,654,cs),
(490,654,o),
(559,580,o),
(580,475,cs),
(582,465,l),
(644,465,l),
(643,475,ls),
(625,606,o),
(536,704,o),
(370,704,cs)
);
}
);
width = 691;
}
);
note = C;
unicode = 67;
},
{
glyphname = Cacute;
kernLeft = C;
kernRight = C;
layers = (
{
hints = (
{
horizontal = 1;
place = (-14, 50);
place = (-14, 50);
type = Stem;
},
{
horizontal = 1;
place = (654, 50);
place = (654, 50);
type = Stem;
},
{
horizontal = 1;
place = (736, 94);
place = (736, 94);
type = Stem;
},
{
place = (49, 69);
place = (49, 69);
type = Stem;
},
{
place = (578, 62.5);
place = (578, 62.5);
type = Stem;
},
{
place = (581, 62.5);
place = (581, 62.5);
type = Stem;
}
);
layerId = m01;
shapes = (
{
closed = 1;
nodes = (
(375,736,l),
(447,830,l),
(387,830,l),
(333,736,l)
);
},
{
closed = 1;
nodes = (
(181,704,o),
(49,554,o),
(49,342,cs),
(49,132,o),
(167,-14,o),
(356,-14,cs),
(532,-14,o),
(622,92,o),
(640,219,cs),
(641,229,l),
(579,229,l),
(577,219,ls),
(556,113,o),
(488,36,o),
(360,36,cs),
(220,36,o),
(118,153,o),
(118,345,cs),
(118,533,o),
(225,654,o),
(367,654,cs),
(490,654,o),
(559,580,o),
(580,475,cs),
(582,465,l),
(644,465,l),
(643,475,ls),
(625,606,o),
(536,704,o),
(370,704,cs)
);
}
);
width = 691;
}
);
note = Cacute;
unicode = 262;
},
{
glyphname = Ccaron;
kernLeft = C;
kernRight = C;
layers = (
{
hints = (
{
horizontal = 1;
place = (-14, 50);
place = (-14, 50);
type = Stem;
},
{
horizontal = 1;
place = (654, 50);
place = (654, 50);
type = Stem;
},
{
horizontal = 1;
place = (736, 94);
place = (736, 94);
type = Stem;
},
{
place = (49, 69);
place = (49, 69);
type = Stem;
},
{
place = (578, 62.5);
place = (578, 62.5);
type = Stem;
},
{
place = (581, 62.5);
place = (581, 62.5);
type = Stem;
}
);
layerId = m01;
shapes = (
{
closed = 1;
nodes = (
(336,736,l),
(381,736,l),
(448,830,l),
(398,830,l),
(359,764,l),
(320,830,l),
(270,830,l)
);
},
{
closed = 1;
nodes = (
(579,229,l),
(577,219,ls),
(556,113,o),
(488,36,o),
(360,36,cs),
(220,36,o),
(118,153,o),
(118,345,cs),
(118,533,o),
(225,654,o),
(367,654,cs),
(490,654,o),
(559,580,o),
(580,475,cs),
(582,465,l),
(644,465,l),
(643,475,ls),
(625,606,o),
(536,704,o),
(370,704,cs),
(181,704,o),
(49,554,o),
(49,342,cs),
(49,132,o),
(167,-14,o),
(356,-14,cs),
(532,-14,o),
(622,92,o),
(640,219,cs),
(641,229,l)
);
}
);
width = 691;
}
);
note = Ccaron;
unicode = 268;
},
{
glyphname = Ccedilla;
kernLeft = C;
kernRight = C;
layers = (
{
hints = (
{
horizontal = 1;
place = (-210, 34);
place = (-210, 34);
type = Stem;
},
{
horizontal = 1;
place = (-13, 49);
place = (-13, 49);
type = Stem;
},
{
horizontal = 1;
place = (654, 50);
place = (654, 50);
type = Stem;
},
{
place = (49, 69);
place = (49, 69);
type = Stem;
},
{
place = (389, 45);
place = (389, 45);
type = Stem;
},
{
place = (578, 62.5);
place = (578, 62.5);
type = Stem;
},
{
horizontal = 1;
place = (-75, 31);
place = (-75, 31);
type = Stem;
},
{
place = (581, 62.5);
place = (581, 62.5);
type = Stem;
}
);
layerId = m01;
shapes = (
{
closed = 1;
nodes = (
(579,229,l),
(577,219,ls),
(556,113,o),
(488,36,o),
(360,36,cs),
(220,36,o),
(118,153,o),
(118,345,cs),
(118,533,o),
(225,654,o),
(367,654,cs),
(490,654,o),
(559,580,o),
(580,475,cs),
(582,465,l),
(644,465,l),
(643,475,ls),
(625,606,o),
(536,704,o),
(370,704,cs),
(181,704,o),
(49,554,o),
(49,342,cs),
(49,144,o),
(154,2,o),
(325,-13,c),
(292,-75,l),
(361,-70,o),
(389,-90,o),
(389,-126,cs),
(389,-158,o),
(363,-176,o),
(321,-176,cs),
(299,-176,o),
(283,-173,o),
(268,-165,c),
(268,-201,l),
(282,-207,o),
(299,-210,o),
(319,-210,cs),
(383,-210,o),
(434,-182,o),
(434,-125,cs),
(434,-77,o),
(403,-50,o),
(350,-44,c),
(367,-14,l),
(536,-10,o),
(622,95,o),
(640,219,cs),
(641,229,l)
);
}
);
width = 691;
}
);
note = Ccedilla;
unicode = 199;
},
{
glyphname = Cdotaccent;
kernLeft = C;
kernRight = C;
layers = (
{
hints = (
{
horizontal = 1;
place = (-14, 50);
place = (-14, 50);
type = Stem;
},
{
horizontal = 1;
place = (654, 50);
place = (654, 50);
type = Stem;
},
{
horizontal = 1;
place = (747, 72);
place = (747, 72);
type = Stem;
},
{
place = (49, 69);
place = (49, 69);
type = Stem;
},
{
place = (322, 72);
place = (322, 72);
type = Stem;
},
{
place = (578, 62.5);
place = (578, 62.5);
type = Stem;
},
{
place = (581, 62.5);
place = (581, 62.5);
type = Stem;
}
);
layerId = m01;
shapes = (
{
closed = 1;
nodes = (
(338,819,o),
(322,803,o),
(322,783,cs),
(322,763,o),
(338,747,o),
(358,747,cs),
(378,747,o),
(394,763,o),
(394,783,cs),
(394,803,o),
(378,819,o),
(358,819,cs)
);
},
{
closed = 1;
nodes = (
(181,704,o),
(49,554,o),
(49,342,cs),
(49,132,o),
(167,-14,o),
(356,-14,cs),
(532,-14,o),
(622,92,o),
(640,219,cs),
(641,229,l),
(579,229,l),
(577,219,ls),
(556,113,o),
(488,36,o),
(360,36,cs),
(220,36,o),
(118,153,o),
(118,345,cs),
(118,533,o),
(225,654,o),
(367,654,cs),
(490,654,o),
(559,580,o),
(580,475,cs),
(582,465,l),
(644,465,l),
(643,475,ls),
(625,606,o),
(536,704,o),
(370,704,cs)
);
}
);
width = 691;
}
);
note = Cdotaccent;
unicode = 266;
},
{
glyphname = D;
kernRight = D;
layers = (
{
hints = (
{
horizontal = 1;
place = (0, 52);
place = (0, 52);
type = Stem;
},
{
horizontal = 1;
place = (638, 52);
place = (638, 52);
type = Stem;
},
{
place = (99, 62);
place = (99, 62);
type = Stem;
},
{
place = (592, 68);
place = (592, 68);
type = Stem;
}
);
layerId = m01;
shapes = (
{
closed = 1;
nodes = (
(356,690,o),
(340,690,o),
(304,690,cs),
(99,690,l),
(99,0,l),
(301,0,ls),
(336,0,o),
(354,0,o),
(389,4,cs),
(524,21,o),
(660,133,o),
(660,351,cs),
(660,571,o),
(527,671,o),
(387,687,cs)
);
},
{
closed = 1;
nodes = (
(356,52,o),
(332,52,o),
(298,52,cs),
(161,52,l),
(161,638,l),
(301,638,ls),
(337,638,o),
(359,638,o),
(381,635,cs),
(495,619,o),
(592,528,o),
(592,351,cs),
(592,172,o),
(497,73,o),
(383,56,cs)
);
}
);
width = 698;
}
);
note = D;
unicode = 68;
},
{
glyphname = Eth;
kernRight = D;
layers = (
{
hints = (
{
horizontal = 1;
place = (0, 52);
place = (0, 52);
type = Stem;
},
{
horizontal = 1;
place = (312, 43);
place = (312, 43);
type = Stem;
},
{
horizontal = 1;
place = (638, 52);
place = (638, 52);
type = Stem;
},
{
place = (96, 62);
place = (96, 62);
type = Stem;
},
{
place = (589, 68);
place = (589, 68);
type = Stem;
}
);
layerId = m01;
shapes = (
{
closed = 1;
nodes = (
(353,690,o),
(337,690,o),
(302,690,cs),
(96,690,l),
(96,355,l),
(36,355,l),
(36,312,l),
(96,312,l),
(96,0,l),
(299,0,ls),
(334,0,o),
(352,0,o),
(387,4,cs),
(521,21,o),
(657,133,o),
(657,351,cs),
(657,571,o),
(524,671,o),
(384,687,cs)
);
},
{
closed = 1;
nodes = (
(354,52,o),
(330,52,o),
(295,52,cs),
(158,52,l),
(158,312,l),
(312,312,l),
(312,355,l),
(158,355,l),
(158,638,l),
(299,638,ls),
(335,638,o),
(356,638,o),
(378,635,cs),
(492,619,o),
(589,528,o),
(589,351,cs),
(589,172,o),
(494,73,o),
(380,56,cs)
);
}
);
width = 695;
}
);
note = Eth;
unicode = 208;
},
{
glyphname = Dcaron;
kernRight = D;
layers = (
{
hints = (
{
horizontal = 1;
place = (0, 52);
place = (0, 52);
type = Stem;
},
{
horizontal = 1;
place = (638, 52);
place = (638, 52);
type = Stem;
},
{
horizontal = 1;
place = (736, 94);
place = (736, 94);
type = Stem;
},
{
place = (99, 62);
place = (99, 62);
type = Stem;
},
{
place = (592, 68);
place = (592, 68);
type = Stem;
}
);
layerId = m01;
shapes = (
{
closed = 1;
nodes = (
(338,736,l),
(383,736,l),
(450,830,l),
(400,830,l),
(361,764,l),
(322,830,l),
(272,830,l)
);
},
{
closed = 1;
nodes = (
(356,690,o),
(340,690,o),
(304,690,cs),
(99,690,l),
(99,0,l),
(301,0,ls),
(336,0,o),
(354,0,o),
(389,4,cs),
(524,21,o),
(660,133,o),
(660,351,cs),
(660,571,o),
(527,671,o),
(387,687,cs)
);
},
{
closed = 1;
nodes = (
(356,52,o),
(332,52,o),
(298,52,cs),
(161,52,l),
(161,638,l),
(301,638,ls),
(337,638,o),
(359,638,o),
(381,635,cs),
(495,619,o),
(592,528,o),
(592,351,cs),
(592,172,o),
(497,73,o),
(383,56,cs)
);
}
);
width = 698;
}
);
note = Dcaron;
unicode = 270;
},
{
glyphname = Dcroat;
kernRight = D;
layers = (
{
hints = (
{
horizontal = 1;
place = (0, 52);
place = (0, 52);
type = Stem;
},
{
horizontal = 1;
place = (312, 43);
place = (312, 43);
type = Stem;
},
{
horizontal = 1;
place = (638, 52);
place = (638, 52);
type = Stem;
},
{
place = (96, 62);
place = (96, 62);
type = Stem;
},
{
place = (589, 68);
place = (589, 68);
type = Stem;
}
);
layerId = m01;
shapes = (
{
closed = 1;
nodes = (
(353,690,o),
(337,690,o),
(302,690,cs),
(96,690,l),
(96,355,l),
(36,355,l),
(36,312,l),
(96,312,l),
(96,0,l),
(299,0,ls),
(334,0,o),
(352,0,o),
(387,4,cs),
(521,21,o),
(657,133,o),
(657,351,cs),
(657,571,o),
(524,671,o),
(384,687,cs)
);
},
{
closed = 1;
nodes = (
(354,52,o),
(330,52,o),
(295,52,cs),
(158,52,l),
(158,312,l),
(312,312,l),
(312,355,l),
(158,355,l),
(158,638,l),
(299,638,ls),
(335,638,o),
(356,638,o),
(378,635,cs),
(492,619,o),
(589,528,o),
(589,351,cs),
(589,172,o),
(494,73,o),
(380,56,cs)
);
}
);
width = 695;
}
);
note = Dcroat;
unicode = 272;
},
{
glyphname = E;
layers = (
{
hints = (
{
horizontal = 1;
place = (0, 51);
place = (0, 51);
type = Stem;
},
{
horizontal = 1;
place = (319, 52);
place = (319, 52);
type = Stem;
},
{
horizontal = 1;
place = (639, 51);
place = (639, 51);
type = Stem;
},
{
place = (99, 62);
place = (99, 62);
type = Stem;
}
);
layerId = m01;
shapes = (
{
closed = 1;
nodes = (
(546,51,l),
(161,51,l),
(161,319,l),
(510,319,l),
(510,371,l),
(161,371,l),
(161,639,l),
(536,639,l),
(536,690,l),
(99,690,l),
(99,0,l),
(546,0,l)
);
}
);
width = 576;
}
);
note = E;
unicode = 69;
},
{
glyphname = Eacute;
layers = (
{
hints = (
{
horizontal = 1;
place = (0, 51);
place = (0, 51);
type = Stem;
},
{
horizontal = 1;
place = (319, 52);
place = (319, 52);
type = Stem;
},
{
horizontal = 1;
place = (639, 191);
place = (639, 191);
type = Stem;
},
{
place = (99, 62);
place = (99, 62);
type = Stem;
},
{
horizontal = 1;
place = (639, 51);
place = (639, 51);
type = Stem;
}
);
layerId = m01;
shapes = (
{
closed = 1;
nodes = (
(336,736,l),
(408,830,l),
(348,830,l),
(294,736,l)
);
},
{
closed = 1;
nodes = (
(546,51,l),
(161,51,l),
(161,319,l),
(510,319,l),
(510,371,l),
(161,371,l),
(161,639,l),
(536,639,l),
(536,690,l),
(99,690,l),
(99,0,l),
(546,0,l)
);
}
);
width = 576;
}
);
note = Eacute;
unicode = 201;
},
{
glyphname = Ecaron;
layers = (
{
hints = (
{
horizontal = 1;
place = (0, 51);
place = (0, 51);
type = Stem;
},
{
horizontal = 1;
place = (319, 52);
place = (319, 52);
type = Stem;
},
{
horizontal = 1;
place = (639, 191);
place = (639, 191);
type = Stem;
},
{
place = (99, 62);
place = (99, 62);
type = Stem;
},
{
horizontal = 1;
place = (639, 51);
place = (639, 51);
type = Stem;
}
);
layerId = m01;
shapes = (
{
closed = 1;
nodes = (
(297,736,l),
(342,736,l),
(409,830,l),
(359,830,l),
(320,764,l),
(281,830,l),
(231,830,l)
);
},
{
closed = 1;
nodes = (
(546,51,l),
(161,51,l),
(161,319,l),
(510,319,l),
(510,371,l),
(161,371,l),
(161,639,l),
(536,639,l),
(536,690,l),
(99,690,l),
(99,0,l),
(546,0,l)
);
}
);
width = 576;
}
);
note = Ecaron;
unicode = 282;
},
{
glyphname = Ecircumflex;
layers = (
{
hints = (
{
horizontal = 1;
place = (0, 51);
place = (0, 51);
type = Stem;
},
{
horizontal = 1;
place = (319, 52);
place = (319, 52);
type = Stem;
},
{
horizontal = 1;
place = (639, 51);
place = (639, 51);
type = Stem;
},
{
horizontal = 1;
place = (736, 94);
place = (736, 94);
type = Stem;
},
{
place = (99, 62);
place = (99, 62);
type = Stem;
}
);
layerId = m01;
shapes = (
{
closed = 1;
nodes = (
(280,736,l),
(319,802,l),
(358,736,l),
(409,736,l),
(342,830,l),
(297,830,l),
(231,736,l)
);
},
{
closed = 1;
nodes = (
(546,51,l),
(161,51,l),
(161,319,l),
(510,319,l),
(510,371,l),
(161,371,l),
(161,639,l),
(536,639,l),
(536,690,l),
(99,690,l),
(99,0,l),
(546,0,l)
);
}
);
width = 576;
}
);
note = Ecircumflex;
unicode = 202;
},
{
glyphname = Edieresis;
lastChange = "2022-11-29 09:52:14 +0000";
layers = (
{
hints = (
{
horizontal = 1;
place = (0, 51);
place = (0, 51);
type = Stem;
},
{
horizontal = 1;
place = (319, 52);
place = (319, 52);
type = Stem;
},
{
horizontal = 1;
place = (639, 51);
place = (639, 51);
type = Stem;
},
{
horizontal = 1;
place = (747, 72);
place = (747, 72);
type = Stem;
},
{
place = (99, 62);
place = (99, 62);
type = Stem;
},
{
place = (226, 72);
place = (226, 72);
type = Stem;
},
{
place = (340, 72);
place = (340, 72);
type = Stem;
}
);
layerId = m01;
shapes = (
{
closed = 1;
nodes = (
(546,51,l),
(161,51,l),
(161,319,l),
(510,319,l),
(510,371,l),
(161,371,l),
(161,639,l),
(536,639,l),
(536,690,l),
(99,690,l),
(99,0,l),
(546,0,l)
);
},
{
closed = 1;
nodes = (
(226,747,l),
(298,747,l),
(298,819,l),
(226,819,l)
);
},
{
closed = 1;
nodes = (
(340,747,l),
(412,747,l),
(412,819,l),
(340,819,l)
);
}
);
width = 576;
}
);
note = Edieresis;
unicode = 203;
},
{
glyphname = Edotaccent;
layers = (
{
hints = (
{
horizontal = 1;
place = (0, 51);
place = (0, 51);
type = Stem;
},
{
horizontal = 1;
place = (319, 52);
place = (319, 52);
type = Stem;
},
{
horizontal = 1;
place = (639, 51);
place = (639, 51);
type = Stem;
},
{
horizontal = 1;
place = (747, 72);
place = (747, 72);
type = Stem;
},
{
place = (99, 62);
place = (99, 62);
type = Stem;
},
{
place = (283, 72);
place = (283, 72);
type = Stem;
}
);
layerId = m01;
shapes = (
{
closed = 1;
nodes = (
(339,747,o),
(355,763,o),
(355,783,cs),
(355,803,o),
(339,819,o),
(319,819,cs),
(299,819,o),
(283,803,o),
(283,783,cs),
(283,763,o),
(299,747,o),
(319,747,cs)
);
},
{
closed = 1;
nodes = (
(546,51,l),
(161,51,l),
(161,319,l),
(510,319,l),
(510,371,l),
(161,371,l),
(161,639,l),
(536,639,l),
(536,690,l),
(99,690,l),
(99,0,l),
(546,0,l)
);
}
);
width = 576;
}
);
note = Edotaccent;
unicode = 278;
},
{
glyphname = Egrave;
layers = (
{
hints = (
{
horizontal = 1;
place = (0, 51);
place = (0, 51);
type = Stem;
},
{
horizontal = 1;
place = (319, 52);
place = (319, 52);
type = Stem;
},
{
horizontal = 1;
place = (639, 191);
place = (639, 191);
type = Stem;
},
{
place = (99, 62);
place = (99, 62);
type = Stem;
},
{
horizontal = 1;
place = (639, 51);
place = (639, 51);
type = Stem;
}
);
layerId = m01;
shapes = (
{
closed = 1;
nodes = (
(300,736,l),
(342,736,l),
(289,830,l),
(228,830,l)
);
},
{
closed = 1;
nodes = (
(546,51,l),
(161,51,l),
(161,319,l),
(510,319,l),
(510,371,l),
(161,371,l),
(161,639,l),
(536,639,l),
(536,690,l),
(99,690,l),
(99,0,l),
(546,0,l)
);
}
);
width = 576;
}
);
note = Egrave;
unicode = 200;
},
{
glyphname = Emacron;
layers = (
{
hints = (
{
horizontal = 1;
place = (0, 51);
place = (0, 51);
type = Stem;
},
{
horizontal = 1;
place = (319, 52);
place = (319, 52);
type = Stem;
},
{
horizontal = 1;
place = (639, 51);
place = (639, 51);
type = Stem;
},
{
horizontal = 1;
place = (763, 40);
place = (763, 40);
type = Stem;
},
{
place = (99, 62);
place = (99, 62);
type = Stem;
},
{
place = (218, 202);
place = (218, 202);
type = Stem;
}
);
layerId = m01;
shapes = (
{
closed = 1;
nodes = (
(420,763,l),
(420,803,l),
(218,803,l),
(218,763,l)
);
},
{
closed = 1;
nodes = (
(546,51,l),
(161,51,l),
(161,319,l),
(510,319,l),
(510,371,l),
(161,371,l),
(161,639,l),
(536,639,l),
(536,690,l),
(99,690,l),
(99,0,l),
(546,0,l)
);
}
);
width = 576;
}
);
note = Emacron;
unicode = 274;
},
{
glyphname = Eogonek;
layers = (
{
hints = (
{
horizontal = 1;
place = (-223, 41);
place = (-223, 41);
type = Stem;
},
{
horizontal = 1;
place = (0, 51);
place = (0, 51);
type = Stem;
},
{
horizontal = 1;
place = (319, 52);
place = (319, 52);
type = Stem;
},
{
horizontal = 1;
place = (639, 51);
place = (639, 51);
type = Stem;
},
{
place = (99, 62);
place = (99, 62);
type = Stem;
},
{
place = (383, 60);
place = (383, 60);
type = Stem;
}
);
layerId = m01;
shapes = (
{
closed = 1;
nodes = (
(443,-67,o),
(489,-17,o),
(547,0,c),
(546,0,l),
(546,51,l),
(161,51,l),
(161,319,l),
(510,319,l),
(510,371,l),
(161,371,l),
(161,639,l),
(536,639,l),
(536,690,l),
(99,690,l),
(99,0,l),
(477,0,l),
(423,-29,o),
(383,-79,o),
(383,-144,cs),
(383,-204,o),
(419,-223,o),
(465,-223,cs),
(497,-223,o),
(524,-215,o),
(547,-197,c),
(547,-158,l),
(527,-175,o),
(509,-182,o),
(488,-182,cs),
(459,-182,o),
(443,-168,o),
(443,-131,cs)
);
}
);
width = 576;
}
);
note = Eogonek;
unicode = 280;
},
{
glyphname = F;
kernRight = F;
layers = (
{
hints = (
{
horizontal = 1;
place = (0, 21);
target = up;
type = BottomGhost;
},
{
horizontal = 1;
place = (319, 52);
place = (319, 52);
type = Stem;
},
{
horizontal = 1;
place = (639, 51);
place = (639, 51);
type = Stem;
},
{
place = (99, 62);
place = (99, 62);
type = Stem;
}
);
layerId = m01;
shapes = (
{
closed = 1;
nodes = (
(161,639,l),
(536,639,l),
(536,690,l),
(99,690,l),
(99,0,l),
(161,0,l),
(161,319,l),
(500,319,l),
(500,371,l),
(161,371,l)
);
}
);
width = 554;
}
);
note = F;
unicode = 70;
},
{
glyphname = G;
kernLeft = C;
kernRight = G;
layers = (
{
hints = (
{
horizontal = 1;
place = (-14, 50);
place = (-14, 50);
type = Stem;
},
{
horizontal = 1;
place = (272, 51);
place = (272, 51);
type = Stem;
},
{
horizontal = 1;
place = (654, 50);
place = (654, 50);
type = Stem;
},
{
place = (49, 69);
place = (49, 69);
type = Stem;
},
{
place = (580, 62);
place = (580, 62);
type = Stem;
},
{
place = (585, 62.5);
place = (585, 62.5);
type = Stem;
},
{
horizontal = 1;
place = (0, 21);
target = up;
type = BottomGhost;
}
);
layerId = m01;
shapes = (
{
closed = 1;
nodes = (
(392,323,l),
(392,272,l),
(580,272,l),
(580,116,o),
(471,36,o),
(361,36,cs),
(220,36,o),
(118,153,o),
(118,345,cs),
(118,533,o),
(226,654,o),
(371,654,cs),
(494,654,o),
(563,580,o),
(584,475,cs),
(586,465,l),
(648,465,l),
(647,475,ls),
(628,606,o),
(539,704,o),
(373,704,cs),
(182,704,o),
(49,554,o),
(49,342,cs),
(49,132,o),
(167,-14,o),
(357,-14,cs),
(440,-14,o),
(513,16,o),
(559,80,c),
(586,142,l),
(586,0,l),
(642,0,l),
(642,323,l)
);
}
);
width = 704;
}
);
note = G;
unicode = 71;
},
{
glyphname = Gbreve;
kernLeft = C;
kernRight = G;
layers = (
{
hints = (
{
horizontal = 1;
place = (-14, 50);
place = (-14, 50);
type = Stem;
},
{
horizontal = 1;
place = (272, 51);
place = (272, 51);
type = Stem;
},
{
horizontal = 1;
place = (654, 50);
place = (654, 50);
type = Stem;
},
{
horizontal = 1;
place = (722, 42);
place = (722, 42);
type = Stem;
},
{
place = (49, 69);
place = (49, 69);
type = Stem;
},
{
place = (262, 40);
place = (262, 40);
type = Stem;
},
{
place = (422, 40);
place = (422, 40);
type = Stem;
},
{
place = (580, 62);
place = (580, 62);
type = Stem;
},
{
place = (585, 62.5);
place = (585, 62.5);
type = Stem;
},
{
horizontal = 1;
place = (0, 21);
target = up;
type = BottomGhost;
}
);
layerId = m01;
shapes = (
{
closed = 1;
nodes = (
(428,722,o),
(462,762,o),
(462,830,c),
(422,830,l),
(421,787,o),
(397,764,o),
(362,764,cs),
(327,764,o),
(303,787,o),
(302,830,c),
(262,830,l),
(262,762,o),
(295,722,o),
(362,722,cs)
);
},
{
closed = 1;
nodes = (
(392,323,l),
(392,272,l),
(580,272,l),
(580,116,o),
(471,36,o),
(361,36,cs),
(220,36,o),
(118,153,o),
(118,345,cs),
(118,533,o),
(226,654,o),
(371,654,cs),
(494,654,o),
(563,580,o),
(584,475,cs),
(586,465,l),
(648,465,l),
(647,475,ls),
(628,606,o),
(539,704,o),
(373,704,cs),
(182,704,o),
(49,554,o),
(49,342,cs),
(49,132,o),
(167,-14,o),
(357,-14,cs),
(440,-14,o),
(513,16,o),
(559,80,c),
(586,142,l),
(586,0,l),
(642,0,l),
(642,323,l)
);
}
);
width = 704;
}
);
note = Gbreve;
unicode = 286;
},
{
glyphname = Gcommaaccent;
kernLeft = C;
kernRight = G;
layers = (
{
hints = (
{
horizontal = 1;
place = (-14, 50);
place = (-14, 50);
type = Stem;
},
{
horizontal = 1;
place = (272, 51);
place = (272, 51);
type = Stem;
},
{
horizontal = 1;
place = (654, 50);
place = (654, 50);
type = Stem;
},
{
place = (49, 69);
place = (49, 69);
type = Stem;
},
{
place = (580, 62);
place = (580, 62);
type = Stem;
},
{
place = (585, 62.5);
place = (585, 62.5);
type = Stem;
},
{
horizontal = 1;
place = (-187, 136);
place = (-187, 136);
type = Stem;
},
{
horizontal = 1;
place = (0, 21);
target = up;
type = BottomGhost;
}
);
layerId = m01;
shapes = (
{
closed = 1;
nodes = (
(392,323,l),
(392,272,l),
(580,272,l),
(580,116,o),
(471,36,o),
(361,36,cs),
(220,36,o),
(118,153,o),
(118,345,cs),
(118,533,o),
(226,654,o),
(371,654,cs),
(494,654,o),
(563,580,o),
(584,475,cs),
(586,465,l),
(648,465,l),
(647,475,ls),
(628,606,o),
(539,704,o),
(373,704,cs),
(182,704,o),
(49,554,o),
(49,342,cs),
(49,132,o),
(167,-14,o),
(357,-14,cs),
(440,-14,o),
(513,16,o),
(559,80,c),
(586,142,l),
(586,0,l),
(642,0,l),
(642,323,l)
);
},
{
closed = 1;
nodes = (
(341,-51,l),
(292,-187,l),
(338,-187,l),
(393,-60,l),
(393,-51,l)
);
}
);
width = 704;
}
);
note = Gcommaaccent;
unicode = 290;
},
{
glyphname = Gdotaccent;
kernLeft = C;
kernRight = G;
layers = (
{
hints = (
{
horizontal = 1;
place = (-14, 50);
place = (-14, 50);
type = Stem;
},
{
horizontal = 1;
place = (272, 51);
place = (272, 51);
type = Stem;
},
{
horizontal = 1;
place = (654, 50);
place = (654, 50);
type = Stem;
},
{
horizontal = 1;
place = (747, 72);
place = (747, 72);
type = Stem;
},
{
place = (49, 69);
place = (49, 69);
type = Stem;
},
{
place = (326, 72);
place = (326, 72);
type = Stem;
},
{
place = (580, 62);
place = (580, 62);
type = Stem;
},
{
place = (585, 62.5);
place = (585, 62.5);
type = Stem;
},
{
horizontal = 1;
place = (0, 21);
target = up;
type = BottomGhost;
}
);
layerId = m01;
shapes = (
{
closed = 1;
nodes = (
(382,747,o),
(398,763,o),
(398,783,cs),
(398,803,o),
(382,819,o),
(362,819,cs),
(342,819,o),
(326,803,o),
(326,783,cs),
(326,763,o),
(342,747,o),
(362,747,cs)
);
},
{
closed = 1;
nodes = (
(392,323,l),
(392,272,l),
(580,272,l),
(580,116,o),
(471,36,o),
(361,36,cs),
(220,36,o),
(118,153,o),
(118,345,cs),
(118,533,o),
(226,654,o),
(371,654,cs),
(494,654,o),
(563,580,o),
(584,475,cs),
(586,465,l),
(648,465,l),
(647,475,ls),
(628,606,o),
(539,704,o),
(373,704,cs),
(182,704,o),
(49,554,o),
(49,342,cs),
(49,132,o),
(167,-14,o),
(357,-14,cs),
(440,-14,o),
(513,16,o),
(559,80,c),
(586,142,l),
(586,0,l),
(642,0,l),
(642,323,l)
);
}
);
width = 704;
}
);
note = Gdotaccent;
unicode = 288;
},
{
glyphname = H;
layers = (
{
hints = (
{
horizontal = 1;
place = (0, 21);
target = up;
type = BottomGhost;
},
{
horizontal = 1;
place = (312, 53);
place = (312, 53);
type = Stem;
},
{
horizontal = 1;
place = (690, -20);
target = down;
type = TopGhost;
},
{
place = (99, 62);
place = (99, 62);
type = Stem;
},
{
place = (565, 62);
place = (565, 62);
type = Stem;
}
);
layerId = m01;
shapes = (
{
closed = 1;
nodes = (
(627,690,l),
(565,690,l),
(565,365,l),
(161,365,l),
(161,690,l),
(99,690,l),
(99,0,l),
(161,0,l),
(161,312,l),
(565,312,l),
(565,0,l),
(627,0,l)
);
}
);
width = 702;
}
);
note = H;
unicode = 72;
},
{
glyphname = Hbar;
layers = (
{
hints = (
{
horizontal = 1;
place = (0, 21);
target = up;
type = BottomGhost;
},
{
horizontal = 1;
place = (312, 53);
place = (312, 53);
type = Stem;
},
{
horizontal = 1;
place = (509, 43);
place = (509, 43);
type = Stem;
},
{
place = (99, 62);
place = (99, 62);
type = Stem;
},
{
place = (565, 62);
place = (565, 62);
type = Stem;
},
{
horizontal = 1;
place = (509, 181);
place = (509, 181);
type = Stem;
}
);
layerId = m01;
shapes = (
{
closed = 1;
nodes = (
(667,509,l),
(667,552,l),
(627,552,l),
(627,690,l),
(565,690,l),
(565,552,l),
(161,552,l),
(161,690,l),
(99,690,l),
(99,552,l),
(59,552,l),
(59,509,l),
(99,509,l),
(99,0,l),
(161,0,l),
(161,312,l),
(565,312,l),
(565,0,l),
(627,0,l),
(627,509,l)
);
},
{
closed = 1;
nodes = (
(565,509,l),
(565,365,l),
(161,365,l),
(161,509,l)
);
}
);
width = 702;
}
);
note = Hbar;
unicode = 294;
},
{
glyphname = I;
layers = (
{
hints = (
{
horizontal = 1;
place = (0, 21);
target = up;
type = BottomGhost;
},
{
horizontal = 1;
place = (690, -20);
target = down;
type = TopGhost;
},
{
place = (99, 62);
place = (99, 62);
type = Stem;
}
);
layerId = m01;
shapes = (
{
closed = 1;
nodes = (
(161,0,l),
(161,690,l),
(99,690,l),
(99,0,l)
);
}
);
width = 236;
}
);
note = I;
unicode = 73;
},
{
glyphname = IJ;
kernRight = IJ;
layers = (
{
hints = (
{
horizontal = 1;
place = (0, 21);
target = up;
type = BottomGhost;
},
{
horizontal = 1;
place = (690, -20);
target = down;
type = TopGhost;
},
{
place = (99, 62);
place = (99, 62);
type = Stem;
},
{
place = (288.5, 62.5);
place = (288.5, 62.5);
type = Stem;
},
{
place = (640, 62);
place = (640, 62);
type = Stem;
},
{
horizontal = 1;
place = (-14, 50);
place = (-14, 50);
type = Stem;
}
);
layerId = m01;
shapes = (
{
closed = 1;
nodes = (
(161,0,l),
(161,690,l),
(99,690,l),
(99,0,l)
);
},
{
closed = 1;
nodes = (
(702,690,l),
(640,690,l),
(640,261,ls),
(640,227,o),
(640,202,o),
(639,181,cs),
(631,91,o),
(585,36,o),
(498,36,cs),
(412,36,o),
(357,83,o),
(352,194,cs),
(350,231,l),
(288,231,l),
(289,194,ls),
(293,61,o),
(367,-14,o),
(490,-14,cs),
(629,-14,o),
(693,70,o),
(700,177,cs),
(702,210,o),
(702,235,o),
(702,263,cs)
);
}
);
width = 762;
}
);
note = IJ;
unicode = 306;
},
{
glyphname = Iacute;
layers = (
{
hints = (
{
horizontal = 1;
place = (0, 21);
target = up;
type = BottomGhost;
},
{
horizontal = 1;
place = (690, -20);
target = down;
type = TopGhost;
},
{
horizontal = 1;
place = (736, 94);
place = (736, 94);
type = Stem;
},
{
place = (99, 62);
place = (99, 62);
type = Stem;
}
);
layerId = m01;
shapes = (
{
closed = 1;
nodes = (
(146,736,l),
(218,830,l),
(158,830,l),
(104,736,l)
);
},
{
closed = 1;
nodes = (
(161,0,l),
(161,690,l),
(99,690,l),
(99,0,l)
);
}
);
width = 236;
}
);
note = Iacute;
unicode = 205;
},
{
glyphname = Icircumflex;
layers = (
{
hints = (
{
horizontal = 1;
place = (0, 21);
target = up;
type = BottomGhost;
},
{
horizontal = 1;
place = (690, -20);
target = down;
type = TopGhost;
},
{
horizontal = 1;
place = (736, 94);
place = (736, 94);
type = Stem;
},
{
place = (99, 62);
place = (99, 62);
type = Stem;
}
);
layerId = m01;
shapes = (
{
closed = 1;
nodes = (
(219,736,l),
(152,830,l),
(107,830,l),
(41,736,l),
(90,736,l),
(129,802,l),
(168,736,l)
);
},
{
closed = 1;
nodes = (
(99,690,l),
(99,0,l),
(161,0,l),
(161,690,l)
);
}
);
width = 236;
}
);
note = Icircumflex;
unicode = 206;
},
{
glyphname = Idieresis;
lastChange = "2022-11-29 09:52:24 +0000";
layers = (
{
hints = (
{
horizontal = 1;
place = (0, 21);
target = up;
type = BottomGhost;
},
{
horizontal = 1;
place = (690, -20);
target = down;
type = TopGhost;
},
{
horizontal = 1;
place = (747, 72);
place = (747, 72);
type = Stem;
},
{
place = (36, 72);
place = (36, 72);
type = Stem;
},
{
place = (150, 72);
place = (150, 72);
type = Stem;
},
{
place = (99, 62);
place = (99, 62);
type = Stem;
}
);
layerId = m01;
shapes = (
{
closed = 1;
nodes = (
(161,0,l),
(161,690,l),
(99,690,l),
(99,0,l)
);
},
{
closed = 1;
nodes = (
(39,749,l),
(111,749,l),
(111,821,l),
(39,821,l)
);
},
{
closed = 1;
nodes = (
(153,749,l),
(225,749,l),
(225,821,l),
(153,821,l)
);
}
);
width = 236;
}
);
note = Idieresis;
unicode = 207;
},
{
glyphname = Idotaccent;
layers = (
{
hints = (
{
horizontal = 1;
place = (0, 21);
target = up;
type = BottomGhost;
},
{
horizontal = 1;
place = (690, -20);
target = down;
type = TopGhost;
},
{
horizontal = 1;
place = (747, 72);
place = (747, 72);
type = Stem;
},
{
place = (99, 62);
place = (99, 62);
type = Stem;
}
);
layerId = m01;
shapes = (
{
closed = 1;
nodes = (
(109,819,o),
(93,803,o),
(93,783,cs),
(93,763,o),
(109,747,o),
(129,747,cs),
(149,747,o),
(165,763,o),
(165,783,cs),
(165,803,o),
(149,819,o),
(129,819,cs)
);
},
{
closed = 1;
nodes = (
(161,0,l),
(161,690,l),
(99,690,l),
(99,0,l)
);
}
);
width = 236;
}
);
note = Idotaccent;
unicode = 304;
},
{
glyphname = Igrave;
layers = (
{
hints = (
{
horizontal = 1;
place = (0, 21);
target = up;
type = BottomGhost;
},
{
horizontal = 1;
place = (690, -20);
target = down;
type = TopGhost;
},
{
horizontal = 1;
place = (736, 94);
place = (736, 94);
type = Stem;
},
{
place = (99, 62);
place = (99, 62);
type = Stem;
}
);
layerId = m01;
shapes = (
{
closed = 1;
nodes = (
(152,736,l),
(99,830,l),
(38,830,l),
(110,736,l)
);
},
{
closed = 1;
nodes = (
(161,0,l),
(161,690,l),
(99,690,l),
(99,0,l)
);
}
);
width = 236;
}
);
note = Igrave;
unicode = 204;
},
{
glyphname = Imacron;
layers = (
{
hints = (
{
horizontal = 1;
place = (0, 21);
target = up;
type = BottomGhost;
},
{
horizontal = 1;
place = (690, -20);
target = down;
type = TopGhost;
},
{
horizontal = 1;
place = (763, 40);
place = (763, 40);
type = Stem;
},
{
place = (99, 62);
place = (99, 62);
type = Stem;
}
);
layerId = m01;
shapes = (
{
closed = 1;
nodes = (
(230,763,l),
(230,803,l),
(28,803,l),
(28,763,l)
);
},
{
closed = 1;
nodes = (
(161,0,l),
(161,690,l),
(99,690,l),
(99,0,l)
);
}
);
width = 236;
}
);
note = Imacron;
unicode = 298;
},
{
glyphname = Iogonek;
layers = (
{
hints = (
{
horizontal = 1;
place = (-223, 41);
place = (-223, 41);
type = Stem;
},
{
horizontal = 1;
place = (0, 21);
target = up;
type = BottomGhost;
},
{
horizontal = 1;
place = (690, -20);
target = down;
type = TopGhost;
},
{
place = (-18, 60);
place = (-18, 60);
type = Stem;
},
{
place = (99, 62);
place = (99, 62);
type = Stem;
}
);
layerId = m01;
shapes = (
{
closed = 1;
nodes = (
(161,690,l),
(99,690,l),
(99,11,l),
(34,-15,o),
(-18,-70,o),
(-18,-144,cs),
(-18,-204,o),
(18,-223,o),
(64,-223,cs),
(96,-223,o),
(123,-215,o),
(146,-197,c),
(146,-158,l),
(126,-175,o),
(108,-182,o),
(87,-182,cs),
(58,-182,o),
(42,-168,o),
(42,-131,cs),
(42,-67,o),
(88,-17,o),
(146,0,c),
(161,0,l)
);
}
);
width = 236;
}
);
note = Iogonek;
unicode = 302;
},
{
glyphname = J;
kernLeft = J;
kernRight = IJ;
layers = (
{
hints = (
{
horizontal = 1;
place = (-14, 50);
place = (-14, 50);
type = Stem;
},
{
horizontal = 1;
place = (690, -20);
target = down;
type = TopGhost;
},
{
place = (52.5, 62.5);
place = (52.5, 62.5);
type = Stem;
},
{
place = (404, 62);
place = (404, 62);
type = Stem;
}
);
layerId = m01;
shapes = (
{
closed = 1;
nodes = (
(466,690,l),
(404,690,l),
(404,261,ls),
(404,227,o),
(404,202,o),
(403,181,cs),
(395,91,o),
(349,36,o),
(262,36,cs),
(176,36,o),
(121,83,o),
(116,194,cs),
(114,231,l),
(52,231,l),
(53,194,ls),
(57,61,o),
(131,-14,o),
(254,-14,cs),
(393,-14,o),
(457,70,o),
(464,177,cs),
(466,210,o),
(466,235,o),
(466,263,cs)
);
}
);
width = 526;
}
);
note = J;
unicode = 74;
},
{
glyphname = K;
kernRight = K;
layers = (
{
hints = (
{
horizontal = 1;
place = (0, 21);
target = up;
type = BottomGhost;
},
{
horizontal = 1;
place = (690, -20);
target = down;
type = TopGhost;
},
{
place = (99, 62);
place = (99, 62);
type = Stem;
}
);
layerId = m01;
shapes = (
{
closed = 1;
nodes = (
(266,354,l),
(595,690,l),
(521,690,l),
(161,324,l),
(161,690,l),
(99,690,l),
(99,0,l),
(161,0,l),
(161,252,l),
(219,313,l),
(494,0,l),
(582,0,l)
);
}
);
width = 588;
}
);
note = K;
unicode = 75;
},
{
glyphname = Kcommaaccent;
kernRight = K;
layers = (
{
hints = (
{
horizontal = 1;
place = (-187, 136);
place = (-187, 136);
type = Stem;
},
{
horizontal = 1;
place = (0, 21);
target = up;
type = BottomGhost;
},
{
horizontal = 1;
place = (690, -20);
target = down;
type = TopGhost;
},
{
place = (99, 62);
place = (99, 62);
type = Stem;
}
);
layerId = m01;
shapes = (
{
closed = 1;
nodes = (
(266,354,l),
(595,690,l),
(521,690,l),
(161,324,l),
(161,690,l),
(99,690,l),
(99,0,l),
(161,0,l),
(161,252,l),
(219,313,l),
(494,0,l),
(582,0,l)
);
},
{
closed = 1;
nodes = (
(300,-51,l),
(251,-187,l),
(297,-187,l),
(352,-60,l),
(352,-51,l)
);
}
);
width = 588;
}
);
note = Kcommaaccent;
unicode = 310;
},
{
glyphname = L;
kernRight = L;
layers = (
{
hints = (
{
horizontal = 1;
place = (0, 51);
place = (0, 51);
type = Stem;
},
{
horizontal = 1;
place = (690, -20);
target = down;
type = TopGhost;
},
{
place = (99, 62);
place = (99, 62);
type = Stem;
}
);
layerId = m01;
shapes = (
{
closed = 1;
nodes = (
(546,51,l),
(161,51,l),
(161,690,l),
(99,690,l),
(99,0,l),
(546,0,l)
);
}
);
width = 562;
}
);
note = L;
unicode = 76;
},
{
glyphname = Lacute;
kernRight = L;
layers = (
{
hints = (
{
horizontal = 1;
place = (0, 51);
place = (0, 51);
type = Stem;
},
{
horizontal = 1;
place = (690, -20);
target = down;
type = TopGhost;
},
{
horizontal = 1;
place = (736, 94);
place = (736, 94);
type = Stem;
},
{
place = (99, 62);
place = (99, 62);
type = Stem;
}
);
layerId = m01;
shapes = (
{
closed = 1;
nodes = (
(146,736,l),
(218,830,l),
(158,830,l),
(104,736,l)
);
},
{
closed = 1;
nodes = (
(546,51,l),
(161,51,l),
(161,690,l),
(99,690,l),
(99,0,l),
(546,0,l)
);
}
);
width = 562;
}
);
note = Lacute;
unicode = 313;
},
{
glyphname = Lcaron;
kernRight = L;
layers = (
{
hints = (
{
horizontal = 1;
place = (0, 51);
place = (0, 51);
type = Stem;
},
{
horizontal = 1;
place = (690, -20);
target = down;
type = TopGhost;
},
{
place = (99, 62);
place = (99, 62);
type = Stem;
}
);
layerId = m01;
shapes = (
{
closed = 1;
nodes = (
(546,51,l),
(161,51,l),
(161,690,l),
(99,690,l),
(99,0,l),
(546,0,l)
);
}
);
width = 562;
}
);
note = Lcaron;
unicode = 317;
},
{
glyphname = Lcommaaccent;
kernRight = L;
layers = (
{
hints = (
{
horizontal = 1;
place = (-187, 136);
place = (-187, 136);
type = Stem;
},
{
horizontal = 1;
place = (0, 51);
place = (0, 51);
type = Stem;
},
{
horizontal = 1;
place = (690, -20);
target = down;
type = TopGhost;
},
{
place = (99, 62);
place = (99, 62);
type = Stem;
}
);
layerId = m01;
shapes = (
{
closed = 1;
nodes = (
(546,51,l),
(161,51,l),
(161,690,l),
(99,690,l),
(99,0,l),
(546,0,l)
);
},
{
closed = 1;
nodes = (
(295,-51,l),
(246,-187,l),
(292,-187,l),
(347,-60,l),
(347,-51,l)
);
}
);
width = 562;
}
);
note = Lcommaaccent;
unicode = 315;
},
{
glyphname = Ldot;
kernRight = L;
layers = (
{
hints = (
{
horizontal = 1;
place = (0, 51);
place = (0, 51);
type = Stem;
},
{
horizontal = 1;
place = (358, 84);
place = (358, 84);
type = Stem;
},
{
horizontal = 1;
place = (690, -20);
target = down;
type = TopGhost;
},
{
place = (99, 62);
place = (99, 62);
type = Stem;
},
{
place = (327, 84);
place = (327, 84);
type = Stem;
}
);
layerId = m01;
shapes = (
{
closed = 1;
nodes = (
(546,51,l),
(161,51,l),
(161,690,l),
(99,690,l),
(99,0,l),
(546,0,l)
);
},
{
closed = 1;
nodes = (
(392,358,o),
(411,377,o),
(411,400,cs),
(411,424,o),
(392,442,o),
(369,442,cs),
(345,442,o),
(327,424,o),
(327,400,cs),
(327,377,o),
(345,358,o),
(369,358,cs)
);
}
);
width = 562;
}
);
note = Ldot;
unicode = 319;
},
{
glyphname = Lslash;
kernRight = L;
layers = (
{
hints = (
{
horizontal = 1;
place = (0, 51);
place = (0, 51);
type = Stem;
},
{
horizontal = 1;
place = (690, -20);
target = down;
type = TopGhost;
},
{
place = (124, 62);
place = (124, 62);
type = Stem;
}
);
layerId = m01;
shapes = (
{
closed = 1;
nodes = (
(572,51,l),
(186,51,l),
(186,334,l),
(334,422,l),
(334,473,l),
(186,385,l),
(186,690,l),
(124,690,l),
(124,348,l),
(14,283,l),
(14,232,l),
(124,297,l),
(124,0,l),
(572,0,l)
);
}
);
width = 587;
}
);
note = Lslash;
unicode = 321;
},
{
glyphname = M;
layers = (
{
hints = (
{
horizontal = 1;
place = (0, 52);
place = (0, 52);
type = Stem;
},
{
horizontal = 1;
place = (635, 55);
place = (635, 55);
type = Stem;
},
{
place = (99, 62);
place = (99, 62);
type = Stem;
},
{
place = (702, 62);
place = (702, 62);
type = Stem;
}
);
layerId = m01;
shapes = (
{
closed = 1;
nodes = (
(764,690,l),
(665,690,l),
(433,52,l),
(200,690,l),
(99,690,l),
(99,0,l),
(161,0,l),
(161,372,ls),
(161,458,o),
(161,554,o),
(159,634,c),
(185,555,o),
(220,458,o),
(251,374,cs),
(392,0,l),
(470,0,l),
(610,373,ls),
(642,458,o),
(677,555,o),
(704,635,c),
(702,555,o),
(702,459,o),
(702,372,cs),
(702,0,l),
(764,0,l)
);
}
);
width = 839;
}
);
note = M;
unicode = 77;
},
{
glyphname = N;
layers = (
{
hints = (
{
horizontal = 1;
place = (0, 60);
place = (0, 60);
type = Stem;
},
{
horizontal = 1;
place = (630, 60);
place = (630, 60);
type = Stem;
},
{
place = (99, 62);
place = (99, 62);
type = Stem;
},
{
place = (550, 61.5);
place = (550, 61.5);
type = Stem;
}
);
layerId = m01;
shapes = (
{
closed = 1;
nodes = (
(612,0,l),
(611,690,l),
(550,690,l),
(550,334,ls),
(550,248,o),
(551,146,o),
(553,60,c),
(193,690,l),
(99,690,l),
(99,0,l),
(161,0,l),
(161,356,ls),
(161,442,o),
(160,545,o),
(158,630,c),
(517,0,l)
);
}
);
width = 688;
}
);
note = N;
unicode = 78;
},
{
glyphname = Nacute;
layers = (
{
hints = (
{
horizontal = 1;
place = (0, 60);
place = (0, 60);
type = Stem;
},
{
horizontal = 1;
place = (630, 60);
place = (630, 60);
type = Stem;
},
{
horizontal = 1;
place = (736, 94);
place = (736, 94);
type = Stem;
},
{
place = (99, 62);
place = (99, 62);
type = Stem;
},
{
place = (550, 61.5);
place = (550, 61.5);
type = Stem;
}
);
layerId = m01;
shapes = (
{
closed = 1;
nodes = (
(372,736,l),
(444,830,l),
(384,830,l),
(330,736,l)
);
},
{
closed = 1;
nodes = (
(612,0,l),
(611,690,l),
(550,690,l),
(550,334,ls),
(550,248,o),
(551,146,o),
(553,60,c),
(193,690,l),
(99,690,l),
(99,0,l),
(161,0,l),
(161,356,ls),
(161,442,o),
(160,545,o),
(158,630,c),
(517,0,l)
);
}
);
width = 688;
}
);
note = Nacute;
unicode = 323;
},
{
glyphname = Ncaron;
layers = (
{
hints = (
{
horizontal = 1;
place = (0, 60);
place = (0, 60);
type = Stem;
},
{
horizontal = 1;
place = (630, 60);
place = (630, 60);
type = Stem;
},
{
horizontal = 1;
place = (736, 94);
place = (736, 94);
type = Stem;
},
{
place = (99, 62);
place = (99, 62);
type = Stem;
},
{
place = (550, 61.5);
place = (550, 61.5);
type = Stem;
}
);
layerId = m01;
shapes = (
{
closed = 1;
nodes = (
(333,736,l),
(378,736,l),
(445,830,l),
(395,830,l),
(356,764,l),
(317,830,l),
(267,830,l)
);
},
{
closed = 1;
nodes = (
(517,0,l),
(612,0,l),
(611,690,l),
(550,690,l),
(550,334,ls),
(550,248,o),
(551,146,o),
(553,60,c),
(193,690,l),
(99,690,l),
(99,0,l),
(161,0,l),
(161,356,ls),
(161,442,o),
(160,545,o),
(158,630,c)
);
}
);
width = 688;
}
);
note = Ncaron;
unicode = 327;
},
{
glyphname = Ncommaaccent;
layers = (
{
hints = (
{
horizontal = 1;
place = (-187, 136);
place = (-187, 136);
type = Stem;
},
{
horizontal = 1;
place = (0, 60);
place = (0, 60);
type = Stem;
},
{
horizontal = 1;
place = (630, 60);
place = (630, 60);
type = Stem;
},
{
place = (99, 62);
place = (99, 62);
type = Stem;
},
{
place = (550, 61.5);
place = (550, 61.5);
type = Stem;
}
);
layerId = m01;
shapes = (
{
closed = 1;
nodes = (
(612,0,l),
(611,690,l),
(550,690,l),
(550,334,ls),
(550,248,o),
(551,146,o),
(553,60,c),
(193,690,l),
(99,690,l),
(99,0,l),
(161,0,l),
(161,356,ls),
(161,442,o),
(160,545,o),
(158,630,c),
(517,0,l)
);
},
{
closed = 1;
nodes = (
(387,-60,l),
(387,-51,l),
(335,-51,l),
(286,-187,l),
(332,-187,l)
);
}
);
width = 688;
}
);
note = Ncommaaccent;
unicode = 325;
},
{
glyphname = Eng;
layers = (
{
hints = (
{
horizontal = 1;
place = (-223, 52);
place = (-223, 52);
type = Stem;
},
{
horizontal = 1;
place = (0, 21);
target = up;
type = BottomGhost;
},
{
horizontal = 1;
place = (625, 65);
place = (625, 65);
type = Stem;
},
{
place = (99, 62);
place = (99, 62);
type = Stem;
},
{
place = (550, 62);
place = (550, 62);
type = Stem;
}
);
layerId = m01;
shapes = (
{
closed = 1;
nodes = (
(612,690,l),
(550,690,l),
(550,346,ls),
(550,261,o),
(551,171,o),
(553,85,c),
(193,690,l),
(99,690,l),
(99,0,l),
(161,0,l),
(161,356,ls),
(161,442,o),
(160,540,o),
(158,625,c),
(550,-27,l),
(550,-83,ls),
(550,-146,o),
(524,-171,o),
(462,-171,c),
(462,-223,l),
(550,-222,o),
(603,-193,o),
(611,-108,cs),
(612,-94,o),
(612,-85,o),
(612,-67,cs)
);
}
);
width = 688;
}
);
note = Eng;
unicode = 330;
},
{
glyphname = Ntilde;
layers = (
{
hints = (
{
horizontal = 1;
place = (0, 60);
place = (0, 60);
type = Stem;
},
{
horizontal = 1;
place = (630, 60);
place = (630, 60);
type = Stem;
},
{
horizontal = 1;
place = (776, 39);
place = (776, 39);
type = Stem;
},
{
place = (99, 62);
place = (99, 62);
type = Stem;
},
{
place = (256, 31);
place = (256, 31);
type = Stem;
},
{
place = (550, 61.5);
place = (550, 61.5);
type = Stem;
},
{
horizontal = 1;
place = (752, 39);
place = (752, 39);
type = Stem;
},
{
place = (423, 31);
place = (423, 31);
type = Stem;
}
);
layerId = m01;
shapes = (
{
closed = 1;
nodes = (
(273,815,o),
(256,800,o),
(256,756,c),
(287,756,l),
(287,771,o),
(293,776,o),
(303,776,cs),
(312,776,o),
(324,773,o),
(348,765,cs),
(375,756,o),
(390,752,o),
(408,752,cs),
(437,752,o),
(454,767,o),
(454,811,c),
(423,811,l),
(423,796,o),
(417,791,o),
(407,791,cs),
(398,791,o),
(386,794,o),
(362,802,cs),
(335,811,o),
(320,815,o),
(302,815,cs)
);
},
{
closed = 1;
nodes = (
(612,0,l),
(611,690,l),
(550,690,l),
(550,334,ls),
(550,248,o),
(551,146,o),
(553,60,c),
(193,690,l),
(99,690,l),
(99,0,l),
(161,0,l),
(161,356,ls),
(161,442,o),
(160,545,o),
(158,630,c),
(517,0,l)
);
}
);
width = 688;
}
);
note = Ntilde;
unicode = 209;
},
{
glyphname = O;
kernLeft = C;
kernRight = D;
layers = (
{
hints = (
{
horizontal = 1;
place = (-14, 50);
place = (-14, 50);
type = Stem;
},
{
horizontal = 1;
place = (654, 50);
place = (654, 50);
type = Stem;
},
{
place = (49, 69);
place = (49, 69);
type = Stem;
},
{
place = (621, 69);
place = (621, 69);
type = Stem;
}
);
layerId = m01;
shapes = (
{
closed = 1;
nodes = (
(168,704,o),
(49,555,o),
(49,345,cs),
(49,137,o),
(168,-14,o),
(369,-14,cs),
(571,-14,o),
(690,137,o),
(690,345,cs),
(690,555,o),
(571,704,o),
(369,704,cs)
);
},
{
closed = 1;
nodes = (
(221,36,o),
(118,152,o),
(118,345,cs),
(118,539,o),
(221,654,o),
(369,654,cs),
(518,654,o),
(621,539,o),
(621,345,cs),
(621,152,o),
(518,36,o),
(369,36,cs)
);
}
);
width = 728;
}
);
note = O;
unicode = 79;
},
{
glyphname = Oacute;
kernLeft = C;
kernRight = D;
layers = (
{
hints = (
{
horizontal = 1;
place = (-14, 50);
place = (-14, 50);
type = Stem;
},
{
horizontal = 1;
place = (654, 50);
place = (654, 50);
type = Stem;
},
{
horizontal = 1;
place = (736, 94);
place = (736, 94);
type = Stem;
},
{
place = (49, 69);
place = (49, 69);
type = Stem;
},
{
place = (621, 69);
place = (621, 69);
type = Stem;
}
);
layerId = m01;
shapes = (
{
closed = 1;
nodes = (
(386,736,l),
(458,830,l),
(398,830,l),
(344,736,l)
);
},
{
closed = 1;
nodes = (
(168,704,o),
(49,555,o),
(49,345,cs),
(49,137,o),
(168,-14,o),
(369,-14,cs),
(571,-14,o),
(690,137,o),
(690,345,cs),
(690,555,o),
(571,704,o),
(369,704,cs)
);
},
{
closed = 1;
nodes = (
(221,36,o),
(118,152,o),
(118,345,cs),
(118,539,o),
(221,654,o),
(369,654,cs),
(518,654,o),
(621,539,o),
(621,345,cs),
(621,152,o),
(518,36,o),
(369,36,cs)
);
}
);
width = 728;
}
);
note = Oacute;
unicode = 211;
},
{
glyphname = Ocircumflex;
kernLeft = C;
kernRight = D;
layers = (
{
hints = (
{
horizontal = 1;
place = (-14, 50);
place = (-14, 50);
type = Stem;
},
{
horizontal = 1;
place = (654, 50);
place = (654, 50);
type = Stem;
},
{
horizontal = 1;
place = (736, 94);
place = (736, 94);
type = Stem;
},
{
place = (49, 69);
place = (49, 69);
type = Stem;
},
{
place = (621, 69);
place = (621, 69);
type = Stem;
}
);
layerId = m01;
shapes = (
{
closed = 1;
nodes = (
(330,736,l),
(369,802,l),
(408,736,l),
(459,736,l),
(392,830,l),
(347,830,l),
(281,736,l)
);
},
{
closed = 1;
nodes = (
(168,704,o),
(49,555,o),
(49,345,cs),
(49,137,o),
(168,-14,o),
(369,-14,cs),
(571,-14,o),
(690,137,o),
(690,345,cs),
(690,555,o),
(571,704,o),
(369,704,cs)
);
},
{
closed = 1;
nodes = (
(221,36,o),
(118,152,o),
(118,345,cs),
(118,539,o),
(221,654,o),
(369,654,cs),
(518,654,o),
(621,539,o),
(621,345,cs),
(621,152,o),
(518,36,o),
(369,36,cs)
);
}
);
width = 728;
}
);
note = Ocircumflex;
unicode = 212;
},
{
glyphname = Odieresis;
kernLeft = C;
kernRight = D;
lastChange = "2022-11-29 09:52:31 +0000";
layers = (
{
hints = (
{
horizontal = 1;
place = (-14, 50);
place = (-14, 50);
type = Stem;
},
{
horizontal = 1;
place = (654, 50);
place = (654, 50);
type = Stem;
},
{
horizontal = 1;
place = (747, 72);
place = (747, 72);
type = Stem;
},
{
place = (49, 69);
place = (49, 69);
type = Stem;
},
{
place = (276, 72);
place = (276, 72);
type = Stem;
},
{
place = (390, 72);
place = (390, 72);
type = Stem;
},
{
place = (621, 69);
place = (621, 69);
type = Stem;
}
);
layerId = m01;
shapes = (
{
closed = 1;
nodes = (
(168,704,o),
(49,555,o),
(49,345,cs),
(49,137,o),
(168,-14,o),
(369,-14,cs),
(571,-14,o),
(690,137,o),
(690,345,cs),
(690,555,o),
(571,704,o),
(369,704,cs)
);
},
{
closed = 1;
nodes = (
(221,36,o),
(118,152,o),
(118,345,cs),
(118,539,o),
(221,654,o),
(369,654,cs),
(518,654,o),
(621,539,o),
(621,345,cs),
(621,152,o),
(518,36,o),
(369,36,cs)
);
},
{
closed = 1;
nodes = (
(279,747,l),
(351,747,l),
(351,819,l),
(279,819,l)
);
},
{
closed = 1;
nodes = (
(393,747,l),
(465,747,l),
(465,819,l),
(393,819,l)
);
}
);
width = 728;
}
);
note = Odieresis;
unicode = 214;
},
{
glyphname = Ograve;
kernLeft = C;
kernRight = D;
layers = (
{
hints = (
{
horizontal = 1;
place = (-14, 50);
place = (-14, 50);
type = Stem;
},
{
horizontal = 1;
place = (654, 50);
place = (654, 50);
type = Stem;
},
{
horizontal = 1;
place = (736, 94);
place = (736, 94);
type = Stem;
},
{
place = (49, 69);
place = (49, 69);
type = Stem;
},
{
place = (621, 69);
place = (621, 69);
type = Stem;
}
);
layerId = m01;
shapes = (
{
closed = 1;
nodes = (
(350,736,l),
(392,736,l),
(339,830,l),
(278,830,l)
);
},
{
closed = 1;
nodes = (
(168,704,o),
(49,555,o),
(49,345,cs),
(49,137,o),
(168,-14,o),
(369,-14,cs),
(571,-14,o),
(690,137,o),
(690,345,cs),
(690,555,o),
(571,704,o),
(369,704,cs)
);
},
{
closed = 1;
nodes = (
(221,36,o),
(118,152,o),
(118,345,cs),
(118,539,o),
(221,654,o),
(369,654,cs),
(518,654,o),
(621,539,o),
(621,345,cs),
(621,152,o),
(518,36,o),
(369,36,cs)
);
}
);
width = 728;
}
);
note = Ograve;
unicode = 210;
},
{
glyphname = Ohungarumlaut;
kernLeft = C;
kernRight = D;
layers = (
{
hints = (
{
horizontal = 1;
place = (-14, 50);
place = (-14, 50);
type = Stem;
},
{
horizontal = 1;
place = (654, 50);
place = (654, 50);
type = Stem;
},
{
horizontal = 1;
place = (736, 94);
place = (736, 94);
type = Stem;
},
{
place = (49, 69);
place = (49, 69);
type = Stem;
},
{
place = (621, 69);
place = (621, 69);
type = Stem;
}
);
layerId = m01;
shapes = (
{
closed = 1;
nodes = (
(326,736,l),
(398,830,l),
(337,830,l),
(284,736,l)
);
},
{
closed = 1;
nodes = (
(385,736,l),
(427,736,l),
(499,830,l),
(438,830,l)
);
},
{
closed = 1;
nodes = (
(168,704,o),
(49,555,o),
(49,345,cs),
(49,137,o),
(168,-14,o),
(369,-14,cs),
(571,-14,o),
(690,137,o),
(690,345,cs),
(690,555,o),
(571,704,o),
(369,704,cs)
);
},
{
closed = 1;
nodes = (
(221,36,o),
(118,152,o),
(118,345,cs),
(118,539,o),
(221,654,o),
(369,654,cs),
(518,654,o),
(621,539,o),
(621,345,cs),
(621,152,o),
(518,36,o),
(369,36,cs)
);
}
);
width = 728;
}
);
note = Ohungarumlaut;
unicode = 336;
},
{
glyphname = Omacron;
kernLeft = C;
kernRight = D;
layers = (
{
hints = (
{
horizontal = 1;
place = (-14, 50);
place = (-14, 50);
type = Stem;
},
{
horizontal = 1;
place = (654, 50);
place = (654, 50);
type = Stem;
},
{
horizontal = 1;
place = (763, 40);
place = (763, 40);
type = Stem;
},
{
place = (49, 69);
place = (49, 69);
type = Stem;
},
{
place = (268, 202);
place = (268, 202);
type = Stem;
},
{
place = (621, 69);
place = (621, 69);
type = Stem;
}
);
layerId = m01;
shapes = (
{
closed = 1;
nodes = (
(470,763,l),
(470,803,l),
(268,803,l),
(268,763,l)
);
},
{
closed = 1;
nodes = (
(168,704,o),
(49,555,o),
(49,345,cs),
(49,137,o),
(168,-14,o),
(369,-14,cs),
(571,-14,o),
(690,137,o),
(690,345,cs),
(690,555,o),
(571,704,o),
(369,704,cs)
);
},
{
closed = 1;
nodes = (
(221,36,o),
(118,152,o),
(118,345,cs),
(118,539,o),
(221,654,o),
(369,654,cs),
(518,654,o),
(621,539,o),
(621,345,cs),
(621,152,o),
(518,36,o),
(369,36,cs)
);
}
);
width = 728;
}
);
note = Omacron;
unicode = 332;
},
{
glyphname = Oslash;
kernLeft = C;
kernRight = D;
layers = (
{
hints = (
{
horizontal = 1;
place = (-14, 50);
place = (-14, 50);
type = Stem;
},
{
horizontal = 1;
place = (654, 50);
place = (654, 50);
type = Stem;
},
{
place = (51, 69);
place = (51, 69);
type = Stem;
},
{
place = (624, 69);
place = (624, 69);
type = Stem;
}
);
layerId = m01;
shapes = (
{
closed = 1;
nodes = (
(699,641,l),
(668,672,l),
(604,608,l),
(549,669,o),
(470,704,o),
(372,704,cs),
(170,704,o),
(51,555,o),
(51,345,cs),
(51,256,o),
(73,178,o),
(113,117,c),
(45,49,l),
(76,18,l),
(140,82,l),
(195,22,o),
(274,-14,o),
(372,-14,cs),
(574,-14,o),
(693,137,o),
(693,345,cs),
(693,434,o),
(671,513,o),
(631,573,c)
);
},
{
closed = 1;
nodes = (
(120,539,o),
(223,654,o),
(372,654,cs),
(450,654,o),
(515,622,o),
(560,564,c),
(160,164,l),
(134,212,o),
(120,273,o),
(120,345,cs)
);
},
{
closed = 1;
nodes = (
(624,152,o),
(520,36,o),
(372,36,cs),
(294,36,o),
(229,68,o),
(184,126,c),
(584,526,l),
(610,478,o),
(624,417,o),
(624,345,cs)
);
}
);
width = 733;
}
);
note = Oslash;
unicode = 216;
},
{
glyphname = Otilde;
kernLeft = C;
kernRight = D;
layers = (
{
hints = (
{
horizontal = 1;
place = (-14, 50);
place = (-14, 50);
type = Stem;
},
{
horizontal = 1;
place = (654, 50);
place = (654, 50);
type = Stem;
},
{
horizontal = 1;
place = (776, 39);
place = (776, 39);
type = Stem;
},
{
place = (49, 69);
place = (49, 69);
type = Stem;
},
{
place = (270, 31);
place = (270, 31);
type = Stem;
},
{
place = (621, 69);
place = (621, 69);
type = Stem;
},
{
horizontal = 1;
place = (752, 39);
place = (752, 39);
type = Stem;
},
{
place = (437, 31);
place = (437, 31);
type = Stem;
}
);
layerId = m01;
shapes = (
{
closed = 1;
nodes = (
(326,776,o),
(338,773,o),
(362,765,cs),
(389,756,o),
(404,752,o),
(422,752,cs),
(451,752,o),
(468,767,o),
(468,811,c),
(437,811,l),
(437,796,o),
(431,791,o),
(421,791,cs),
(412,791,o),
(400,794,o),
(376,802,cs),
(349,811,o),
(334,815,o),
(316,815,cs),
(287,815,o),
(270,800,o),
(270,756,c),
(301,756,l),
(301,771,o),
(307,776,o),
(317,776,cs)
);
},
{
closed = 1;
nodes = (
(168,704,o),
(49,555,o),
(49,345,cs),
(49,137,o),
(168,-14,o),
(369,-14,cs),
(571,-14,o),
(690,137,o),
(690,345,cs),
(690,555,o),
(571,704,o),
(369,704,cs)
);
},
{
closed = 1;
nodes = (
(221,36,o),
(118,152,o),
(118,345,cs),
(118,539,o),
(221,654,o),
(369,654,cs),
(518,654,o),
(621,539,o),
(621,345,cs),
(621,152,o),
(518,36,o),
(369,36,cs)
);
}
);
width = 728;
}
);
note = Otilde;
unicode = 213;
},
{
glyphname = OE;
kernLeft = C;
layers = (
{
hints = (
{
horizontal = 1;
place = (0, 51);
place = (0, 51);
type = Stem;
},
{
horizontal = 1;
place = (319, 52);
place = (319, 52);
type = Stem;
},
{
horizontal = 1;
place = (639, 51);
place = (639, 51);
type = Stem;
},
{
place = (49, 69);
place = (49, 69);
type = Stem;
},
{
place = (621, 62);
place = (621, 62);
type = Stem;
},
{
horizontal = 1;
place = (-14, 50);
place = (-14, 50);
type = Stem;
},
{
horizontal = 1;
place = (654, 50);
place = (654, 50);
type = Stem;
}
);
layerId = m01;
shapes = (
{
closed = 1;
nodes = (
(1069,51,l),
(683,51,l),
(683,319,l),
(1033,319,l),
(1033,371,l),
(683,371,l),
(683,639,l),
(1059,639,l),
(1059,690,l),
(621,690,l),
(621,524,l),
(593,599,l),
(532,675,o),
(470,704,o),
(363,704,cs),
(168,704,o),
(49,548,o),
(49,345,cs),
(49,143,o),
(168,-14,o),
(363,-14,cs),
(460,-14,o),
(535,16,o),
(593,91,c),
(621,166,l),
(621,0,l),
(1069,0,l)
);
},
{
closed = 1;
nodes = (
(221,36,o),
(118,157,o),
(118,345,cs),
(118,535,o),
(221,654,o),
(369,654,cs),
(521,654,o),
(621,535,o),
(621,345,cs),
(621,157,o),
(521,36,o),
(369,36,cs)
);
}
);
width = 1098;
}
);
note = OE;
unicode = 338;
},
{
glyphname = P;
kernRight = P;
layers = (
{
hints = (
{
horizontal = 1;
place = (0, 21);
target = up;
type = BottomGhost;
},
{
horizontal = 1;
place = (292, 53);
place = (292, 53);
type = Stem;
},
{
horizontal = 1;
place = (637, 53);
place = (637, 53);
type = Stem;
},
{
place = (99, 62);
place = (99, 62);
type = Stem;
},
{
place = (491, 67);
place = (491, 67);
type = Stem;
}
);
layerId = m01;
shapes = (
{
closed = 1;
nodes = (
(352,690,o),
(325,690,o),
(290,690,cs),
(99,690,l),
(99,0,l),
(161,0,l),
(161,292,l),
(290,292,ls),
(325,292,o),
(352,292,o),
(383,296,cs),
(480,309,o),
(558,375,o),
(558,493,cs),
(558,610,o),
(487,672,o),
(383,686,cs)
);
},
{
closed = 1;
nodes = (
(355,346,o),
(328,345,o),
(295,345,cs),
(161,345,l),
(161,637,l),
(295,637,ls),
(328,637,o),
(355,636,o),
(378,632,cs),
(441,622,o),
(491,581,o),
(491,493,cs),
(491,402,o),
(441,360,o),
(378,350,cs)
);
}
);
width = 569;
}
);
note = P;
unicode = 80;
},
{
glyphname = Thorn;
layers = (
{
hints = (
{
horizontal = 1;
place = (0, 21);
target = up;
type = BottomGhost;
},
{
horizontal = 1;
place = (211, 53);
place = (211, 53);
type = Stem;
},
{
horizontal = 1;
place = (538, 53);
place = (538, 53);
type = Stem;
},
{
place = (99, 62);
place = (99, 62);
type = Stem;
},
{
place = (491, 67);
place = (491, 67);
type = Stem;
},
{
horizontal = 1;
place = (538, 152);
place = (538, 152);
type = Stem;
}
);
layerId = m01;
shapes = (
{
closed = 1;
nodes = (
(355,590,o),
(328,591,o),
(293,591,cs),
(161,591,l),
(161,690,l),
(99,690,l),
(99,0,l),
(161,0,l),
(161,211,l),
(293,211,ls),
(328,211,o),
(355,211,o),
(386,215,cs),
(484,228,o),
(558,290,o),
(558,404,cs),
(558,516,o),
(484,574,o),
(386,586,cs)
);
},
{
closed = 1;
nodes = (
(353,265,o),
(326,264,o),
(293,264,cs),
(161,264,l),
(161,538,l),
(293,538,ls),
(326,538,o),
(353,537,o),
(377,533,cs),
(439,522,o),
(491,487,o),
(491,402,cs),
(491,316,o),
(439,279,o),
(377,269,cs)
);
}
);
width = 634;
}
);
note = Thorn;
unicode = 222;
},
{
glyphname = Q;
kernLeft = C;
layers = (
{
hints = (
{
horizontal = 1;
place = (-14, 50);
place = (-14, 50);
type = Stem;
},
{
horizontal = 1;
place = (654, 50);
place = (654, 50);
type = Stem;
},
{
place = (49, 69);
place = (49, 69);
type = Stem;
},
{
place = (621, 69);
place = (621, 69);
type = Stem;
},
{
horizontal = 1;
place = (2, 34);
place = (2, 34);
type = Stem;
},
{
horizontal = 1;
place = (-9, 21);
target = up;
type = BottomGhost;
}
);
layerId = m01;
shapes = (
{
closed = 1;
nodes = (
(690,555,o),
(571,704,o),
(369,704,cs),
(168,704,o),
(49,555,o),
(49,345,cs),
(49,137,o),
(168,-14,o),
(369,-14,cs),
(396,-14,o),
(418,-12,o),
(440,-7,cs),
(468,-1,o),
(485,2,o),
(511,2,cs),
(552,2,o),
(586,-8,o),
(648,-52,c),
(684,-9,l),
(640,28,o),
(600,50,o),
(550,55,c),
(649,121,o),
(690,229,o),
(690,345,cs)
);
},
{
closed = 1;
nodes = (
(118,539,o),
(221,654,o),
(369,654,cs),
(518,654,o),
(621,539,o),
(621,345,cs),
(621,152,o),
(518,36,o),
(369,36,cs),
(221,36,o),
(118,152,o),
(118,345,cs)
);
}
);
width = 726;
}
);
note = Q;
unicode = 81;
},
{
glyphname = R;
layers = (
{
hints = (
{
horizontal = 1;
place = (0, 21);
target = up;
type = BottomGhost;
},
{
horizontal = 1;
place = (312, 52);
place = (312, 52);
type = Stem;
},
{
horizontal = 1;
place = (638, 52);
place = (638, 52);
type = Stem;
},
{
place = (99, 62);
place = (99, 62);
type = Stem;
},
{
place = (499, 67);
place = (499, 67);
type = Stem;
}
);
layerId = m01;
shapes = (
{
closed = 1;
nodes = (
(524,256,o),
(495,319,o),
(436,343,c),
(508,361,o),
(566,416,o),
(566,507,cs),
(566,617,o),
(498,673,o),
(396,686,cs),
(364,690,o),
(337,690,o),
(302,690,cs),
(99,690,l),
(99,0,l),
(161,0,l),
(161,312,l),
(302,312,ls),
(318,312,o),
(338,312,o),
(356,311,cs),
(430,307,o),
(460,250,o),
(469,177,cs),
(479,87,o),
(491,44,o),
(508,0,c),
(577,0,l),
(553,39,o),
(541,89,o),
(531,184,cs)
);
},
{
closed = 1;
nodes = (
(161,364,l),
(161,638,l),
(302,638,ls),
(335,638,o),
(357,637,o),
(381,634,cs),
(456,623,o),
(499,583,o),
(499,502,cs),
(499,421,o),
(449,372,o),
(373,366,cs),
(350,364,o),
(333,364,o),
(303,364,cs)
);
}
);
width = 601;
}
);
note = R;
unicode = 82;
},
{
glyphname = Racute;
layers = (
{
hints = (
{
horizontal = 1;
place = (0, 21);
target = up;
type = BottomGhost;
},
{
horizontal = 1;
place = (312, 52);
place = (312, 52);
type = Stem;
},
{
horizontal = 1;
place = (638, 52);
place = (638, 52);
type = Stem;
},
{
horizontal = 1;
place = (736, 94);
place = (736, 94);
type = Stem;
},
{
place = (99, 62);
place = (99, 62);
type = Stem;
},
{
place = (499, 67);
place = (499, 67);
type = Stem;
}
);
layerId = m01;
shapes = (
{
closed = 1;
nodes = (
(332,736,l),
(404,830,l),
(344,830,l),
(290,736,l)
);
},
{
closed = 1;
nodes = (
(524,256,o),
(495,319,o),
(436,343,c),
(508,361,o),
(566,416,o),
(566,507,cs),
(566,617,o),
(498,673,o),
(396,686,cs),
(364,690,o),
(337,690,o),
(302,690,cs),
(99,690,l),
(99,0,l),
(161,0,l),
(161,312,l),
(302,312,ls),
(318,312,o),
(338,312,o),
(356,311,cs),
(430,307,o),
(460,250,o),
(469,177,cs),
(479,87,o),
(491,44,o),
(508,0,c),
(577,0,l),
(553,39,o),
(541,89,o),
(531,184,cs)
);
},
{
closed = 1;
nodes = (
(161,364,l),
(161,638,l),
(302,638,ls),
(335,638,o),
(357,637,o),
(381,634,cs),
(456,623,o),
(499,583,o),
(499,502,cs),
(499,421,o),
(449,372,o),
(373,366,cs),
(350,364,o),
(333,364,o),
(303,364,cs)
);
}
);
width = 601;
}
);
note = Racute;
unicode = 340;
},
{
glyphname = Rcaron;
layers = (
{
hints = (
{
horizontal = 1;
place = (0, 21);
target = up;
type = BottomGhost;
},
{
horizontal = 1;
place = (312, 52);
place = (312, 52);
type = Stem;
},
{
horizontal = 1;
place = (638, 52);
place = (638, 52);
type = Stem;
},
{
horizontal = 1;
place = (736, 94);
place = (736, 94);
type = Stem;
},
{
place = (99, 62);
place = (99, 62);
type = Stem;
},
{
place = (499, 67);
place = (499, 67);
type = Stem;
}
);
layerId = m01;
shapes = (
{
closed = 1;
nodes = (
(293,736,l),
(338,736,l),
(405,830,l),
(355,830,l),
(316,764,l),
(277,830,l),
(227,830,l)
);
},
{
closed = 1;
nodes = (
(524,256,o),
(495,319,o),
(436,343,c),
(508,361,o),
(566,416,o),
(566,507,cs),
(566,617,o),
(498,673,o),
(396,686,cs),
(364,690,o),
(337,690,o),
(302,690,cs),
(99,690,l),
(99,0,l),
(161,0,l),
(161,312,l),
(302,312,ls),
(318,312,o),
(338,312,o),
(356,311,cs),
(430,307,o),
(460,250,o),
(469,177,cs),
(479,87,o),
(491,44,o),
(508,0,c),
(577,0,l),
(553,39,o),
(541,89,o),
(531,184,cs)
);
},
{
closed = 1;
nodes = (
(161,364,l),
(161,638,l),
(302,638,ls),
(335,638,o),
(357,637,o),
(381,634,cs),
(456,623,o),
(499,583,o),
(499,502,cs),
(499,421,o),
(449,372,o),
(373,366,cs),
(350,364,o),
(333,364,o),
(303,364,cs)
);
}
);
width = 601;
}
);
note = Rcaron;
unicode = 344;
},
{
glyphname = Rcommaaccent;
layers = (
{
hints = (
{
horizontal = 1;
place = (-187, 136);
place = (-187, 136);
type = Stem;
},
{
horizontal = 1;
place = (0, 21);
target = up;
type = BottomGhost;
},
{
horizontal = 1;
place = (312, 52);
place = (312, 52);
type = Stem;
},
{
horizontal = 1;
place = (638, 52);
place = (638, 52);
type = Stem;
},
{
place = (99, 62);
place = (99, 62);
type = Stem;
},
{
place = (499, 67);
place = (499, 67);
type = Stem;
}
);
layerId = m01;
shapes = (
{
closed = 1;
nodes = (
(524,256,o),
(495,319,o),
(436,343,c),
(508,361,o),
(566,416,o),
(566,507,cs),
(566,617,o),
(498,673,o),
(396,686,cs),
(364,690,o),
(337,690,o),
(302,690,cs),
(99,690,l),
(99,0,l),
(161,0,l),
(161,312,l),
(302,312,ls),
(318,312,o),
(338,312,o),
(356,311,cs),
(430,307,o),
(460,250,o),
(469,177,cs),
(479,87,o),
(491,44,o),
(508,0,c),
(577,0,l),
(553,39,o),
(541,89,o),
(531,184,cs)
);
},
{
closed = 1;
nodes = (
(161,364,l),
(161,638,l),
(302,638,ls),
(335,638,o),
(357,637,o),
(381,634,cs),
(456,623,o),
(499,583,o),
(499,502,cs),
(499,421,o),
(449,372,o),
(373,366,cs),
(350,364,o),
(333,364,o),
(303,364,cs)
);
},
{
closed = 1;
nodes = (
(288,-51,l),
(239,-187,l),
(285,-187,l),
(340,-60,l),
(340,-51,l)
);
}
);
width = 601;
}
);
note = Rcommaaccent;
unicode = 342;
},
{
glyphname = S;
kernLeft = S;
kernRight = S;
layers = (
{
hints = (
{
horizontal = 1;
place = (-14, 50);
place = (-14, 50);
type = Stem;
},
{
horizontal = 1;
place = (654, 50);
place = (654, 50);
type = Stem;
},
{
place = (79, 67);
place = (79, 67);
type = Stem;
},
{
place = (469, 66);
place = (469, 66);
type = Stem;
}
);
layerId = m01;
shapes = (
{
closed = 1;
nodes = (
(181,704,o),
(79,630,o),
(79,518,cs),
(79,407,o),
(157,361,o),
(288,327,cs),
(417,295,o),
(469,257,o),
(469,168,cs),
(469,88,o),
(396,36,o),
(305,36,cs),
(206,36,o),
(130,91,o),
(113,190,c),
(47,190,l),
(62,57,o),
(163,-14,o),
(303,-14,cs),
(435,-14,o),
(535,64,o),
(535,178,cs),
(535,292,o),
(461,348,o),
(313,386,cs),
(195,416,o),
(146,447,o),
(146,531,cs),
(146,613,o),
(219,654,o),
(298,654,cs),
(389,654,o),
(449,599,o),
(461,505,c),
(526,505,l),
(513,617,o),
(441,704,o),
(303,704,cs)
);
}
);
width = 576;
}
);
note = S;
unicode = 83;
},
{
glyphname = Sacute;
kernLeft = S;
kernRight = S;
layers = (
{
hints = (
{
horizontal = 1;
place = (-14, 50);
place = (-14, 50);
type = Stem;
},
{
horizontal = 1;
place = (654, 50);
place = (654, 50);
type = Stem;
},
{
horizontal = 1;
place = (736, 94);
place = (736, 94);
type = Stem;
},
{
place = (79, 67);
place = (79, 67);
type = Stem;
},
{
place = (469, 66);
place = (469, 66);
type = Stem;
}
);
layerId = m01;
shapes = (
{
closed = 1;
nodes = (
(312,736,l),
(384,830,l),
(324,830,l),
(270,736,l)
);
},
{
closed = 1;
nodes = (
(181,704,o),
(79,630,o),
(79,518,cs),
(79,407,o),
(157,361,o),
(288,327,cs),
(417,295,o),
(469,257,o),
(469,168,cs),
(469,88,o),
(396,36,o),
(305,36,cs),
(206,36,o),
(130,91,o),
(113,190,c),
(47,190,l),
(62,57,o),
(163,-14,o),
(303,-14,cs),
(435,-14,o),
(535,64,o),
(535,178,cs),
(535,292,o),
(461,348,o),
(313,386,cs),
(195,416,o),
(146,447,o),
(146,531,cs),
(146,613,o),
(219,654,o),
(298,654,cs),
(389,654,o),
(449,599,o),
(461,505,c),
(526,505,l),
(513,617,o),
(441,704,o),
(303,704,cs)
);
}
);
width = 576;
}
);
note = Sacute;
unicode = 346;
},
{
glyphname = Scaron;
kernLeft = S;
kernRight = S;
layers = (
{
hints = (
{
horizontal = 1;
place = (-14, 50);
place = (-14, 50);
type = Stem;
},
{
horizontal = 1;
place = (654, 50);
place = (654, 50);
type = Stem;
},
{
horizontal = 1;
place = (736, 94);
place = (736, 94);
type = Stem;
},
{
place = (79, 67);
place = (79, 67);
type = Stem;
},
{
place = (469, 66);
place = (469, 66);
type = Stem;
}
);
layerId = m01;
shapes = (
{
closed = 1;
nodes = (
(273,736,l),
(318,736,l),
(385,830,l),
(335,830,l),
(296,764,l),
(257,830,l),
(207,830,l)
);
},
{
closed = 1;
nodes = (
(195,416,o),
(146,447,o),
(146,531,cs),
(146,613,o),
(219,654,o),
(298,654,cs),
(389,654,o),
(449,599,o),
(461,505,c),
(526,505,l),
(513,617,o),
(441,704,o),
(303,704,cs),
(181,704,o),
(79,630,o),
(79,518,cs),
(79,407,o),
(157,361,o),
(288,327,cs),
(417,295,o),
(469,257,o),
(469,168,cs),
(469,88,o),
(396,36,o),
(305,36,cs),
(206,36,o),
(130,91,o),
(113,190,c),
(47,190,l),
(62,57,o),
(163,-14,o),
(303,-14,cs),
(435,-14,o),
(535,64,o),
(535,178,cs),
(535,292,o),
(461,348,o),
(313,386,cs)
);
}
);
width = 576;
}
);
note = Scaron;
unicode = 352;
},
{
glyphname = Scedilla;
kernLeft = S;
kernRight = S;
layers = (
{
hints = (
{
horizontal = 1;
place = (-210, 34);
place = (-210, 34);
type = Stem;
},
{
horizontal = 1;
place = (-75, 31);
place = (-75, 31);
type = Stem;
},
{
horizontal = 1;
place = (-13, 49);
place = (-13, 49);
type = Stem;
},
{
horizontal = 1;
place = (654, 50);
place = (654, 50);
type = Stem;
},
{
place = (79, 67);
place = (79, 67);
type = Stem;
},
{
place = (333, 45);
place = (333, 45);
type = Stem;
},
{
place = (469, 66);
place = (469, 66);
type = Stem;
}
);
layerId = m01;
shapes = (
{
closed = 1;
nodes = (
(535,292,o),
(461,348,o),
(313,386,cs),
(195,416,o),
(146,447,o),
(146,531,cs),
(146,613,o),
(219,654,o),
(298,654,cs),
(389,654,o),
(449,599,o),
(461,505,c),
(526,505,l),
(513,617,o),
(441,704,o),
(303,704,cs),
(181,704,o),
(79,630,o),
(79,518,cs),
(79,407,o),
(157,361,o),
(288,327,cs),
(417,295,o),
(469,257,o),
(469,168,cs),
(469,88,o),
(396,36,o),
(305,36,cs),
(206,36,o),
(130,91,o),
(113,190,c),
(47,190,l),
(61,68,o),
(147,-2,o),
(269,-13,c),
(236,-75,l),
(305,-70,o),
(333,-90,o),
(333,-126,cs),
(333,-158,o),
(307,-176,o),
(265,-176,cs),
(243,-176,o),
(227,-173,o),
(212,-165,c),
(212,-201,l),
(226,-207,o),
(243,-210,o),
(263,-210,cs),
(327,-210,o),
(378,-182,o),
(378,-125,cs),
(378,-77,o),
(347,-50,o),
(294,-44,c),
(311,-14,l),
(439,-11,o),
(535,66,o),
(535,178,cs)
);
}
);
width = 576;
}
);
note = Scedilla;
unicode = 350;
},
{
glyphname = Scommaaccent;
kernLeft = S;
kernRight = S;
layers = (
{
hints = (
{
horizontal = 1;
place = (-187, 136);
place = (-187, 136);
type = Stem;
},
{
horizontal = 1;
place = (-14, 50);
place = (-14, 50);
type = Stem;
},
{
horizontal = 1;
place = (654, 50);
place = (654, 50);
type = Stem;
},
{
place = (79, 67);
place = (79, 67);
type = Stem;
},
{
place = (469, 66);
place = (469, 66);
type = Stem;
}
);
layerId = m01;
shapes = (
{
closed = 1;
nodes = (
(181,704,o),
(79,630,o),
(79,518,cs),
(79,407,o),
(157,361,o),
(288,327,cs),
(417,295,o),
(469,257,o),
(469,168,cs),
(469,88,o),
(396,36,o),
(305,36,cs),
(206,36,o),
(130,91,o),
(113,190,c),
(47,190,l),
(62,57,o),
(163,-14,o),
(303,-14,cs),
(435,-14,o),
(535,64,o),
(535,178,cs),
(535,292,o),
(461,348,o),
(313,386,cs),
(195,416,o),
(146,447,o),
(146,531,cs),
(146,613,o),
(219,654,o),
(298,654,cs),
(389,654,o),
(449,599,o),
(461,505,c),
(526,505,l),
(513,617,o),
(441,704,o),
(303,704,cs)
);
},
{
closed = 1;
nodes = (
(327,-60,l),
(327,-51,l),
(275,-51,l),
(226,-187,l),
(272,-187,l)
);
}
);
width = 576;
}
);
note = Scommaaccent;
unicode = 536;
},
{
glyphname = T;
kernLeft = T;
kernRight = T;
layers = (
{
hints = (
{
horizontal = 1;
place = (0, 21);
target = up;
type = BottomGhost;
},
{
horizontal = 1;
place = (639, 51);
place = (639, 51);
type = Stem;
},
{
place = (286, 62);
place = (286, 62);
type = Stem;
}
);
layerId = m01;
shapes = (
{
closed = 1;
nodes = (
(601,639,l),
(601,690,l),
(33,690,l),
(33,639,l),
(286,639,l),
(286,0,l),
(348,0,l),
(348,639,l)
);
}
);
width = 600;
}
);
note = T;
unicode = 84;
},
{
glyphname = Tbar;
kernLeft = T;
kernRight = T;
layers = (
{
hints = (
{
horizontal = 1;
place = (0, 21);
target = up;
type = BottomGhost;
},
{
horizontal = 1;
place = (312, 43);
place = (312, 43);
type = Stem;
},
{
horizontal = 1;
place = (639, 51);
place = (639, 51);
type = Stem;
},
{
place = (286, 62);
place = (286, 62);
type = Stem;
}
);
layerId = m01;
shapes = (
{
closed = 1;
nodes = (
(348,639,l),
(601,639,l),
(601,690,l),
(33,690,l),
(33,639,l),
(286,639,l),
(286,355,l),
(162,355,l),
(162,312,l),
(286,312,l),
(286,0,l),
(348,0,l),
(348,312,l),
(472,312,l),
(472,355,l),
(348,355,l)
);
}
);
width = 600;
}
);
note = Tbar;
unicode = 358;
},
{
glyphname = Tcaron;
kernLeft = T;
kernRight = T;
layers = (
{
hints = (
{
horizontal = 1;
place = (0, 21);
target = up;
type = BottomGhost;
},
{
horizontal = 1;
place = (639, 191);
place = (639, 191);
type = Stem;
},
{
place = (286, 62);
place = (286, 62);
type = Stem;
},
{
horizontal = 1;
place = (639, 51);
place = (639, 51);
type = Stem;
}
);
layerId = m01;
shapes = (
{
closed = 1;
nodes = (
(295,736,l),
(340,736,l),
(407,830,l),
(357,830,l),
(318,764,l),
(279,830,l),
(229,830,l)
);
},
{
closed = 1;
nodes = (
(601,639,l),
(601,690,l),
(33,690,l),
(33,639,l),
(286,639,l),
(286,0,l),
(348,0,l),
(348,639,l)
);
}
);
width = 600;
}
);
note = Tcaron;
unicode = 356;
},
{
glyphname = Tcedilla;
kernLeft = T;
kernRight = T;
layers = (
{
hints = (
{
horizontal = 1;
place = (-210, 34);
place = (-210, 34);
type = Stem;
},
{
horizontal = 1;
place = (0, 21);
target = up;
type = BottomGhost;
},
{
horizontal = 1;
place = (639, 51);
place = (639, 51);
type = Stem;
},
{
place = (286, 62);
place = (286, 62);
type = Stem;
},
{
horizontal = 1;
place = (-75, 31);
place = (-75, 31);
type = Stem;
},
{
place = (355, 45);
place = (355, 45);
type = Stem;
}
);
layerId = m01;
shapes = (
{
closed = 1;
nodes = (
(341,0,l),
(348,0,l),
(348,639,l),
(601,639,l),
(601,690,l),
(33,690,l),
(33,639,l),
(286,639,l),
(286,0,l),
(298,0,l),
(258,-75,l),
(327,-70,o),
(355,-90,o),
(355,-126,cs),
(355,-158,o),
(329,-176,o),
(287,-176,cs),
(265,-176,o),
(249,-173,o),
(234,-165,c),
(234,-201,l),
(248,-207,o),
(265,-210,o),
(285,-210,cs),
(349,-210,o),
(400,-182,o),
(400,-125,cs),
(400,-77,o),
(369,-50,o),
(316,-44,c)
);
}
);
width = 600;
}
);
note = Tcedilla;
unicode = 354;
},
{
glyphname = uni021A;
kernLeft = T;
kernRight = T;
layers = (
{
hints = (
{
horizontal = 1;
place = (-187, 136);
place = (-187, 136);
type = Stem;
},
{
horizontal = 1;
place = (0, 21);
target = up;
type = BottomGhost;
},
{
horizontal = 1;
place = (639, 51);
place = (639, 51);
type = Stem;
},
{
place = (286, 62);
place = (286, 62);
type = Stem;
}
);
layerId = m01;
shapes = (
{
closed = 1;
nodes = (
(601,690,l),
(33,690,l),
(33,639,l),
(286,639,l),
(286,0,l),
(348,0,l),
(348,639,l),
(601,639,l)
);
},
{
closed = 1;
nodes = (
(297,-51,l),
(248,-187,l),
(294,-187,l),
(349,-60,l),
(349,-51,l)
);
}
);
width = 600;
}
);
note = uni021A;
unicode = 538;
},
{
glyphname = U;
kernLeft = U;
kernRight = U;
layers = (
{
hints = (
{
horizontal = 1;
place = (-14, 50);
place = (-14, 50);
type = Stem;
},
{
horizontal = 1;
place = (690, -20);
target = down;
type = TopGhost;
},
{
place = (93, 62);
place = (93, 62);
type = Stem;
},
{
place = (521, 62);
place = (521, 62);
type = Stem;
}
);
layerId = m01;
shapes = (
{
closed = 1;
nodes = (
(583,690,l),
(521,690,l),
(521,250,ls),
(521,228,o),
(520,208,o),
(518,189,cs),
(510,102,o),
(453,36,o),
(338,36,cs),
(222,36,o),
(165,102,o),
(157,189,cs),
(155,208,o),
(155,228,o),
(155,250,cs),
(155,690,l),
(93,690,l),
(93,247,ls),
(93,227,o),
(93,207,o),
(95,183,cs),
(104,71,o),
(180,-14,o),
(338,-14,cs),
(495,-14,o),
(572,71,o),
(580,183,cs),
(582,207,o),
(583,227,o),
(583,247,cs)
);
}
);
width = 651;
}
);
note = U;
unicode = 85;
},
{
glyphname = Uacute;
kernLeft = U;
kernRight = U;
layers = (
{
hints = (
{
horizontal = 1;
place = (-14, 50);
place = (-14, 50);
type = Stem;
},
{
horizontal = 1;
place = (690, -20);
target = down;
type = TopGhost;
},
{
horizontal = 1;
place = (736, 94);
place = (736, 94);
type = Stem;
},
{
place = (93, 62);
place = (93, 62);
type = Stem;
},
{
place = (521, 62);
place = (521, 62);
type = Stem;
}
);
layerId = m01;
shapes = (
{
closed = 1;
nodes = (
(355,736,l),
(427,830,l),
(367,830,l),
(313,736,l)
);
},
{
closed = 1;
nodes = (
(583,690,l),
(521,690,l),
(521,250,ls),
(521,228,o),
(520,208,o),
(518,189,cs),
(510,102,o),
(453,36,o),
(338,36,cs),
(222,36,o),
(165,102,o),
(157,189,cs),
(155,208,o),
(155,228,o),
(155,250,cs),
(155,690,l),
(93,690,l),
(93,247,ls),
(93,227,o),
(93,207,o),
(95,183,cs),
(104,71,o),
(180,-14,o),
(338,-14,cs),
(495,-14,o),
(572,71,o),
(580,183,cs),
(582,207,o),
(583,227,o),
(583,247,cs)
);
}
);
width = 651;
}
);
note = Uacute;
unicode = 218;
},
{
glyphname = Ucircumflex;
kernLeft = U;
kernRight = U;
layers = (
{
hints = (
{
horizontal = 1;
place = (-14, 50);
place = (-14, 50);
type = Stem;
},
{
horizontal = 1;
place = (690, -20);
target = down;
type = TopGhost;
},
{
horizontal = 1;
place = (736, 94);
place = (736, 94);
type = Stem;
},
{
place = (93, 62);
place = (93, 62);
type = Stem;
},
{
place = (521, 62);
place = (521, 62);
type = Stem;
}
);
layerId = m01;
shapes = (
{
closed = 1;
nodes = (
(299,736,l),
(338,802,l),
(377,736,l),
(428,736,l),
(361,830,l),
(316,830,l),
(250,736,l)
);
},
{
closed = 1;
nodes = (
(583,690,l),
(521,690,l),
(521,250,ls),
(521,228,o),
(520,208,o),
(518,189,cs),
(510,102,o),
(453,36,o),
(338,36,cs),
(222,36,o),
(165,102,o),
(157,189,cs),
(155,208,o),
(155,228,o),
(155,250,cs),
(155,690,l),
(93,690,l),
(93,247,ls),
(93,227,o),
(93,207,o),
(95,183,cs),
(104,71,o),
(180,-14,o),
(338,-14,cs),
(495,-14,o),
(572,71,o),
(580,183,cs),
(582,207,o),
(583,227,o),
(583,247,cs)
);
}
);
width = 651;
}
);
note = Ucircumflex;
unicode = 219;
},
{
glyphname = Udieresis;
kernLeft = U;
kernRight = U;
lastChange = "2022-11-29 09:52:39 +0000";
layers = (
{
hints = (
{
horizontal = 1;
place = (-14, 50);
place = (-14, 50);
type = Stem;
},
{
horizontal = 1;
place = (690, -20);
target = down;
type = TopGhost;
},
{
horizontal = 1;
place = (747, 72);
place = (747, 72);
type = Stem;
},
{
place = (93, 62);
place = (93, 62);
type = Stem;
},
{
place = (245, 72);
place = (245, 72);
type = Stem;
},
{
place = (359, 72);
place = (359, 72);
type = Stem;
},
{
place = (521, 62);
place = (521, 62);
type = Stem;
}
);
layerId = m01;
shapes = (
{
closed = 1;
nodes = (
(583,690,l),
(521,690,l),
(521,250,ls),
(521,228,o),
(520,208,o),
(518,189,cs),
(510,102,o),
(453,36,o),
(338,36,cs),
(222,36,o),
(165,102,o),
(157,189,cs),
(155,208,o),
(155,228,o),
(155,250,cs),
(155,690,l),
(93,690,l),
(93,247,ls),
(93,227,o),
(93,207,o),
(95,183,cs),
(104,71,o),
(180,-14,o),
(338,-14,cs),
(495,-14,o),
(572,71,o),
(580,183,cs),
(582,207,o),
(583,227,o),
(583,247,cs)
);
},
{
closed = 1;
nodes = (
(243,747,l),
(315,747,l),
(315,819,l),
(243,819,l)
);
},
{
closed = 1;
nodes = (
(357,747,l),
(429,747,l),
(429,819,l),
(357,819,l)
);
}
);
width = 651;
}
);
note = Udieresis;
unicode = 220;
},
{
glyphname = Ugrave;
kernLeft = U;
kernRight = U;
layers = (
{
hints = (
{
horizontal = 1;
place = (-14, 50);
place = (-14, 50);
type = Stem;
},
{
horizontal = 1;
place = (690, -20);
target = down;
type = TopGhost;
},
{
horizontal = 1;
place = (736, 94);
place = (736, 94);
type = Stem;
},
{
place = (93, 62);
place = (93, 62);
type = Stem;
},
{
place = (521, 62);
place = (521, 62);
type = Stem;
}
);
layerId = m01;
shapes = (
{
closed = 1;
nodes = (
(361,736,l),
(308,830,l),
(247,830,l),
(319,736,l)
);
},
{
closed = 1;
nodes = (
(583,690,l),
(521,690,l),
(521,250,ls),
(521,228,o),
(520,208,o),
(518,189,cs),
(510,102,o),
(453,36,o),
(338,36,cs),
(222,36,o),
(165,102,o),
(157,189,cs),
(155,208,o),
(155,228,o),
(155,250,cs),
(155,690,l),
(93,690,l),
(93,247,ls),
(93,227,o),
(93,207,o),
(95,183,cs),
(104,71,o),
(180,-14,o),
(338,-14,cs),
(495,-14,o),
(572,71,o),
(580,183,cs),
(582,207,o),
(583,227,o),
(583,247,cs)
);
}
);
width = 651;
}
);
note = Ugrave;
unicode = 217;
},
{
glyphname = Uhungarumlaut;
kernLeft = U;
kernRight = U;
layers = (
{
hints = (
{
horizontal = 1;
place = (-14, 50);
place = (-14, 50);
type = Stem;
},
{
horizontal = 1;
place = (690, -20);
target = down;
type = TopGhost;
},
{
horizontal = 1;
place = (736, 94);
place = (736, 94);
type = Stem;
},
{
place = (93, 62);
place = (93, 62);
type = Stem;
},
{
place = (521, 62);
place = (521, 62);
type = Stem;
}
);
layerId = m01;
shapes = (
{
closed = 1;
nodes = (
(295,736,l),
(367,830,l),
(306,830,l),
(253,736,l)
);
},
{
closed = 1;
nodes = (
(396,736,l),
(468,830,l),
(407,830,l),
(354,736,l)
);
},
{
closed = 1;
nodes = (
(583,690,l),
(521,690,l),
(521,250,ls),
(521,228,o),
(520,208,o),
(518,189,cs),
(510,102,o),
(453,36,o),
(338,36,cs),
(222,36,o),
(165,102,o),
(157,189,cs),
(155,208,o),
(155,228,o),
(155,250,cs),
(155,690,l),
(93,690,l),
(93,247,ls),
(93,227,o),
(93,207,o),
(95,183,cs),
(104,71,o),
(180,-14,o),
(338,-14,cs),
(495,-14,o),
(572,71,o),
(580,183,cs),
(582,207,o),
(583,227,o),
(583,247,cs)
);
}
);
width = 651;
}
);
note = Uhungarumlaut;
unicode = 368;
},
{
glyphname = Umacron;
kernLeft = U;
kernRight = U;
layers = (
{
hints = (
{
horizontal = 1;
place = (-14, 50);
place = (-14, 50);
type = Stem;
},
{
horizontal = 1;
place = (690, -20);
target = down;
type = TopGhost;
},
{
horizontal = 1;
place = (763, 40);
place = (763, 40);
type = Stem;
},
{
place = (93, 62);
place = (93, 62);
type = Stem;
},
{
place = (237, 202);
place = (237, 202);
type = Stem;
},
{
place = (521, 62);
place = (521, 62);
type = Stem;
}
);
layerId = m01;
shapes = (
{
closed = 1;
nodes = (
(439,763,l),
(439,803,l),
(237,803,l),
(237,763,l)
);
},
{
closed = 1;
nodes = (
(583,690,l),
(521,690,l),
(521,250,ls),
(521,228,o),
(520,208,o),
(518,189,cs),
(510,102,o),
(453,36,o),
(338,36,cs),
(222,36,o),
(165,102,o),
(157,189,cs),
(155,208,o),
(155,228,o),
(155,250,cs),
(155,690,l),
(93,690,l),
(93,247,ls),
(93,227,o),
(93,207,o),
(95,183,cs),
(104,71,o),
(180,-14,o),
(338,-14,cs),
(495,-14,o),
(572,71,o),
(580,183,cs),
(582,207,o),
(583,227,o),
(583,247,cs)
);
}
);
width = 651;
}
);
note = Umacron;
unicode = 362;
},
{
glyphname = Uogonek;
kernLeft = U;
kernRight = U;
layers = (
{
hints = (
{
horizontal = 1;
place = (-223, 41);
place = (-223, 41);
type = Stem;
},
{
horizontal = 1;
place = (-14, 50);
place = (-14, 50);
type = Stem;
},
{
horizontal = 1;
place = (690, -20);
target = down;
type = TopGhost;
},
{
place = (93, 62);
place = (93, 62);
type = Stem;
},
{
place = (274, 60);
place = (274, 60);
type = Stem;
},
{
place = (521, 62);
place = (521, 62);
type = Stem;
}
);
layerId = m01;
shapes = (
{
closed = 1;
nodes = (
(583,690,l),
(521,690,l),
(521,250,ls),
(521,228,o),
(520,208,o),
(518,189,cs),
(510,102,o),
(453,36,o),
(338,36,cs),
(222,36,o),
(165,102,o),
(157,189,cs),
(155,208,o),
(155,228,o),
(155,250,cs),
(155,690,l),
(93,690,l),
(93,247,ls),
(93,227,o),
(93,207,o),
(95,183,cs),
(104,71,o),
(180,-14,o),
(338,-14,cs),
(345,-14,l),
(303,-44,o),
(274,-89,o),
(274,-144,cs),
(274,-204,o),
(310,-223,o),
(356,-223,cs),
(388,-223,o),
(415,-215,o),
(438,-197,c),
(438,-158,l),
(418,-175,o),
(400,-182,o),
(379,-182,cs),
(350,-182,o),
(334,-168,o),
(334,-131,cs),
(334,-67,o),
(380,-17,o),
(438,0,cs),
(528,29,o),
(574,98,o),
(580,183,cs),
(582,207,o),
(583,227,o),
(583,247,cs)
);
}
);
width = 651;
}
);
note = Uogonek;
unicode = 370;
},
{
glyphname = Uring;
kernLeft = U;
kernRight = U;
layers = (
{
hints = (
{
horizontal = 1;
place = (-14, 50);
place = (-14, 50);
type = Stem;
},
{
horizontal = 1;
place = (718, 31);
place = (718, 31);
type = Stem;
},
{
horizontal = 1;
place = (832, 31);
place = (832, 31);
type = Stem;
},
{
place = (93, 62);
place = (93, 62);
type = Stem;
},
{
place = (258, 40);
place = (258, 40);
type = Stem;
},
{
place = (378, 41);
place = (378, 41);
type = Stem;
},
{
place = (521, 62);
place = (521, 62);
type = Stem;
},
{
horizontal = 1;
place = (690, -20);
target = down;
type = TopGhost;
}
);
layerId = m01;
shapes = (
{
closed = 1;
nodes = (
(292,863,o),
(258,834,o),
(258,791,cs),
(258,748,o),
(292,718,o),
(338,718,cs),
(384,718,o),
(419,748,o),
(419,791,cs),
(419,834,o),
(384,863,o),
(338,863,cs)
);
},
{
closed = 1;
nodes = (
(362,832,o),
(378,814,o),
(378,791,cs),
(378,767,o),
(362,749,o),
(338,749,cs),
(314,749,o),
(298,767,o),
(298,791,cs),
(298,814,o),
(314,832,o),
(338,832,cs)
);
},
{
closed = 1;
nodes = (
(583,690,l),
(521,690,l),
(521,250,ls),
(521,228,o),
(520,208,o),
(518,189,cs),
(510,102,o),
(453,36,o),
(338,36,cs),
(222,36,o),
(165,102,o),
(157,189,cs),
(155,208,o),
(155,228,o),
(155,250,cs),
(155,690,l),
(93,690,l),
(93,247,ls),
(93,227,o),
(93,207,o),
(95,183,cs),
(104,71,o),
(180,-14,o),
(338,-14,cs),
(495,-14,o),
(572,71,o),
(580,183,cs),
(582,207,o),
(583,227,o),
(583,247,cs)
);
}
);
width = 651;
}
);
note = Uring;
unicode = 366;
},
{
glyphname = V;
kernLeft = V;
kernRight = V;
layers = (
{
hints = (
{
horizontal = 1;
place = (0, 48);
place = (0, 48);
type = Stem;
},
{
horizontal = 1;
place = (690, -20);
target = down;
type = TopGhost;
},
{
place = (30, 588);
place = (30, 588);
type = Stem;
}
);
layerId = m01;
shapes = (
{
closed = 1;
nodes = (
(362,0,l),
(618,690,l),
(551,690,l),
(322,48,l),
(97,690,l),
(30,690,l),
(279,0,l)
);
}
);
width = 607;
}
);
note = V;
unicode = 86;
},
{
glyphname = W;
kernLeft = W;
kernRight = W;
layers = (
{
hints = (
{
horizontal = 1;
place = (0, 56);
place = (0, 56);
type = Stem;
},
{
horizontal = 1;
place = (690, -20);
target = down;
type = TopGhost;
},
{
place = (26, 874);
place = (26, 874);
type = Stem;
},
{
horizontal = 1;
place = (618, 62);
place = (618, 62);
type = Stem;
}
);
layerId = m01;
shapes = (
{
closed = 1;
nodes = (
(900,690,l),
(835,690,l),
(673,56,l),
(506,680,l),
(423,680,l),
(249,56,l),
(96,690,l),
(26,690,l),
(205,0,l),
(287,0,l),
(463,618,l),
(630,0,l),
(711,0,l)
);
}
);
width = 904;
}
);
note = W;
unicode = 87;
},
{
glyphname = Wacute;
kernLeft = W;
kernRight = W;
layers = (
{
hints = (
{
horizontal = 1;
place = (0, 56);
place = (0, 56);
type = Stem;
},
{
horizontal = 1;
place = (690, -20);
target = down;
type = TopGhost;
},
{
horizontal = 1;
place = (736, 94);
place = (736, 94);
type = Stem;
},
{
place = (26, 874);
place = (26, 874);
type = Stem;
},
{
horizontal = 1;
place = (618, 62);
place = (618, 62);
type = Stem;
}
);
layerId = m01;
shapes = (
{
closed = 1;
nodes = (
(477,736,l),
(549,830,l),
(489,830,l),
(435,736,l)
);
},
{
closed = 1;
nodes = (
(900,690,l),
(835,690,l),
(673,56,l),
(506,680,l),
(423,680,l),
(249,56,l),
(96,690,l),
(26,690,l),
(205,0,l),
(287,0,l),
(463,618,l),
(630,0,l),
(711,0,l)
);
}
);
width = 904;
}
);
note = Wacute;
unicode = 7810;
},
{
glyphname = Wcircumflex;
kernLeft = W;
kernRight = W;
layers = (
{
hints = (
{
horizontal = 1;
place = (0, 56);
place = (0, 56);
type = Stem;
},
{
horizontal = 1;
place = (690, -20);
target = down;
type = TopGhost;
},
{
horizontal = 1;
place = (736, 94);
place = (736, 94);
type = Stem;
},
{
place = (26, 874);
place = (26, 874);
type = Stem;
},
{
horizontal = 1;
place = (618, 62);
place = (618, 62);
type = Stem;
}
);
layerId = m01;
shapes = (
{
closed = 1;
nodes = (
(421,736,l),
(460,802,l),
(499,736,l),
(550,736,l),
(483,830,l),
(438,830,l),
(372,736,l)
);
},
{
closed = 1;
nodes = (
(900,690,l),
(835,690,l),
(673,56,l),
(506,680,l),
(423,680,l),
(249,56,l),
(96,690,l),
(26,690,l),
(205,0,l),
(287,0,l),
(463,618,l),
(630,0,l),
(711,0,l)
);
}
);
width = 904;
}
);
note = Wcircumflex;
unicode = 372;
},
{
glyphname = Wdieresis;
kernLeft = W;
kernRight = W;
lastChange = "2022-11-29 09:52:48 +0000";
layers = (
{
hints = (
{
horizontal = 1;
place = (0, 56);
place = (0, 56);
type = Stem;
},
{
horizontal = 1;
place = (690, -20);
target = down;
type = TopGhost;
},
{
horizontal = 1;
place = (747, 72);
place = (747, 72);
type = Stem;
},
{
place = (367, 72);
place = (367, 72);
type = Stem;
},
{
place = (481, 72);
place = (481, 72);
type = Stem;
},
{
horizontal = 1;
place = (618, 62);
place = (618, 62);
type = Stem;
}
);
layerId = m01;
shapes = (
{
closed = 1;
nodes = (
(900,690,l),
(835,690,l),
(673,56,l),
(506,680,l),
(423,680,l),
(249,56,l),
(96,690,l),
(26,690,l),
(205,0,l),
(287,0,l),
(463,618,l),
(630,0,l),
(711,0,l)
);
},
{
closed = 1;
nodes = (
(364,747,l),
(436,747,l),
(436,819,l),
(364,819,l)
);
},
{
closed = 1;
nodes = (
(478,747,l),
(550,747,l),
(550,819,l),
(478,819,l)
);
}
);
width = 904;
}
);
note = Wdieresis;
unicode = 7812;
},
{
glyphname = Wgrave;
kernLeft = W;
kernRight = W;
layers = (
{
hints = (
{
horizontal = 1;
place = (0, 56);
place = (0, 56);
type = Stem;
},
{
horizontal = 1;
place = (690, -20);
target = down;
type = TopGhost;
},
{
horizontal = 1;
place = (736, 94);
place = (736, 94);
type = Stem;
},
{
place = (26, 874);
place = (26, 874);
type = Stem;
},
{
horizontal = 1;
place = (618, 62);
place = (618, 62);
type = Stem;
}
);
layerId = m01;
shapes = (
{
closed = 1;
nodes = (
(441,736,l),
(483,736,l),
(430,830,l),
(369,830,l)
);
},
{
closed = 1;
nodes = (
(900,690,l),
(835,690,l),
(673,56,l),
(506,680,l),
(423,680,l),
(249,56,l),
(96,690,l),
(26,690,l),
(205,0,l),
(287,0,l),
(463,618,l),
(630,0,l),
(711,0,l)
);
}
);
width = 904;
}
);
note = Wgrave;
unicode = 7808;
},
{
glyphname = X;
layers = (
{
hints = (
{
horizontal = 1;
place = (0, 21);
target = up;
type = BottomGhost;
},
{
horizontal = 1;
place = (690, -20);
target = down;
type = TopGhost;
},
{
place = (26, 572);
place = (26, 572);
type = Stem;
}
);
layerId = m01;
shapes = (
{
closed = 1;
nodes = (
(524,0,l),
(598,0,l),
(347,349,l),
(594,690,l),
(521,690,l),
(312,390,l),
(114,690,l),
(44,690,l),
(273,347,l),
(26,0,l),
(99,0,l),
(309,306,l)
);
}
);
width = 605;
}
);
note = X;
unicode = 88;
},
{
glyphname = Y;
kernLeft = Y;
kernRight = Y;
layers = (
{
hints = (
{
horizontal = 1;
place = (0, 21);
target = up;
type = BottomGhost;
},
{
horizontal = 1;
place = (690, -20);
target = down;
type = TopGhost;
},
{
place = (265, 62);
place = (265, 62);
type = Stem;
}
);
layerId = m01;
shapes = (
{
closed = 1;
nodes = (
(327,276,l),
(572,690,l),
(501,690,l),
(299,336,l),
(92,690,l),
(21,690,l),
(265,275,l),
(265,0,l),
(327,0,l)
);
}
);
width = 568;
}
);
note = Y;
unicode = 89;
},
{
glyphname = Yacute;
kernLeft = Y;
kernRight = Y;
layers = (
{
hints = (
{
horizontal = 1;
place = (0, 21);
target = up;
type = BottomGhost;
},
{
horizontal = 1;
place = (690, -20);
target = down;
type = TopGhost;
},
{
horizontal = 1;
place = (736, 94);
place = (736, 94);
type = Stem;
},
{
place = (265, 62);
place = (265, 62);
type = Stem;
}
);
layerId = m01;
shapes = (
{
closed = 1;
nodes = (
(313,736,l),
(385,830,l),
(325,830,l),
(271,736,l)
);
},
{
closed = 1;
nodes = (
(327,276,l),
(572,690,l),
(501,690,l),
(299,336,l),
(92,690,l),
(21,690,l),
(265,275,l),
(265,0,l),
(327,0,l)
);
}
);
width = 568;
}
);
note = Yacute;
unicode = 221;
},
{
glyphname = Ycircumflex;
kernLeft = Y;
kernRight = Y;
layers = (
{
hints = (
{
horizontal = 1;
place = (0, 21);
target = up;
type = BottomGhost;
},
{
horizontal = 1;
place = (690, -20);
target = down;
type = TopGhost;
},
{
horizontal = 1;
place = (736, 94);
place = (736, 94);
type = Stem;
},
{
place = (265, 62);
place = (265, 62);
type = Stem;
}
);
layerId = m01;
shapes = (
{
closed = 1;
nodes = (
(257,736,l),
(296,802,l),
(335,736,l),
(386,736,l),
(319,830,l),
(274,830,l),
(208,736,l)
);
},
{
closed = 1;
nodes = (
(327,276,l),
(572,690,l),
(501,690,l),
(299,336,l),
(92,690,l),
(21,690,l),
(265,275,l),
(265,0,l),
(327,0,l)
);
}
);
width = 568;
}
);
note = Ycircumflex;
unicode = 374;
},
{
glyphname = Ydieresis;
kernLeft = Y;
kernRight = Y;
lastChange = "2022-11-29 09:52:57 +0000";
layers = (
{
hints = (
{
horizontal = 1;
place = (0, 21);
target = up;
type = BottomGhost;
},
{
horizontal = 1;
place = (690, -20);
target = down;
type = TopGhost;
},
{
horizontal = 1;
place = (747, 72);
place = (747, 72);
type = Stem;
},
{
place = (203, 72);
place = (203, 72);
type = Stem;
},
{
place = (317, 72);
place = (317, 72);
type = Stem;
},
{
place = (265, 62);
place = (265, 62);
type = Stem;
}
);
layerId = m01;
shapes = (
{
closed = 1;
nodes = (
(327,276,l),
(572,690,l),
(501,690,l),
(299,336,l),
(92,690,l),
(21,690,l),
(265,275,l),
(265,0,l),
(327,0,l)
);
},
{
closed = 1;
nodes = (
(204,748,l),
(276,748,l),
(276,820,l),
(204,820,l)
);
},
{
closed = 1;
nodes = (
(318,748,l),
(390,748,l),
(390,820,l),
(318,820,l)
);
}
);
width = 568;
}
);
note = Ydieresis;
unicode = 376;
},
{
glyphname = Ygrave;
kernLeft = Y;
kernRight = Y;
layers = (
{
hints = (
{
horizontal = 1;
place = (0, 21);
target = up;
type = BottomGhost;
},
{
horizontal = 1;
place = (690, -20);
target = down;
type = TopGhost;
},
{
horizontal = 1;
place = (736, 94);
place = (736, 94);
type = Stem;
},
{
place = (265, 62);
place = (265, 62);
type = Stem;
}
);
layerId = m01;
shapes = (
{
closed = 1;
nodes = (
(277,736,l),
(319,736,l),
(266,830,l),
(205,830,l)
);
},
{
closed = 1;
nodes = (
(327,276,l),
(572,690,l),
(501,690,l),
(299,336,l),
(92,690,l),
(21,690,l),
(265,275,l),
(265,0,l),
(327,0,l)
);
}
);
width = 568;
}
);
note = Ygrave;
unicode = 7922;
},
{
glyphname = Z;
kernLeft = Z;
kernRight = Z;
layers = (
{
hints = (
{
horizontal = 1;
place = (0, 52);
place = (0, 52);
type = Stem;
},
{
horizontal = 1;
place = (638, 52);
place = (638, 52);
type = Stem;
},
{
place = (42, 506);
place = (42, 506);
type = Stem;
}
);
layerId = m01;
shapes = (
{
closed = 1;
nodes = (
(548,52,l),
(116,52,l),
(542,639,l),
(542,690,l),
(70,690,l),
(70,638,l),
(470,638,l),
(42,48,l),
(42,0,l),
(548,0,l)
);
}
);
width = 571;
}
);
note = Z;
unicode = 90;
},
{
glyphname = Zacute;
kernLeft = Z;
kernRight = Z;
layers = (
{
hints = (
{
horizontal = 1;
place = (0, 52);
place = (0, 52);
type = Stem;
},
{
horizontal = 1;
place = (638, 192);
place = (638, 192);
type = Stem;
},
{
place = (42, 506);
place = (42, 506);
type = Stem;
},
{
horizontal = 1;
place = (638, 52);
place = (638, 52);
type = Stem;
}
);
layerId = m01;
shapes = (
{
closed = 1;
nodes = (
(311,736,l),
(383,830,l),
(323,830,l),
(269,736,l)
);
},
{
closed = 1;
nodes = (
(548,52,l),
(116,52,l),
(542,639,l),
(542,690,l),
(70,690,l),
(70,638,l),
(470,638,l),
(42,48,l),
(42,0,l),
(548,0,l)
);
}
);
width = 571;
}
);
note = Zacute;
unicode = 377;
},
{
glyphname = Zcaron;
kernLeft = Z;
kernRight = Z;
layers = (
{
hints = (
{
horizontal = 1;
place = (0, 52);
place = (0, 52);
type = Stem;
},
{
horizontal = 1;
place = (638, 192);
place = (638, 192);
type = Stem;
},
{
place = (42, 506);
place = (42, 506);
type = Stem;
},
{
horizontal = 1;
place = (638, 52);
place = (638, 52);
type = Stem;
}
);
layerId = m01;
shapes = (
{
closed = 1;
nodes = (
(272,736,l),
(317,736,l),
(384,830,l),
(334,830,l),
(295,764,l),
(256,830,l),
(206,830,l)
);
},
{
closed = 1;
nodes = (
(548,52,l),
(116,52,l),
(542,639,l),
(542,690,l),
(70,690,l),
(70,638,l),
(470,638,l),
(42,48,l),
(42,0,l),
(548,0,l)
);
}
);
width = 571;
}
);
note = Zcaron;
unicode = 381;
},
{
glyphname = Zdotaccent;
kernLeft = Z;
kernRight = Z;
layers = (
{
hints = (
{
horizontal = 1;
place = (0, 52);
place = (0, 52);
type = Stem;
},
{
horizontal = 1;
place = (638, 52);
place = (638, 52);
type = Stem;
},
{
horizontal = 1;
place = (747, 72);
place = (747, 72);
type = Stem;
},
{
place = (258, 72);
place = (258, 72);
type = Stem;
}
);
layerId = m01;
shapes = (
{
closed = 1;
nodes = (
(314,747,o),
(330,763,o),
(330,783,cs),
(330,803,o),
(314,819,o),
(294,819,cs),
(274,819,o),
(258,803,o),
(258,783,cs),
(258,763,o),
(274,747,o),
(294,747,cs)
);
},
{
closed = 1;
nodes = (
(548,52,l),
(116,52,l),
(542,639,l),
(542,690,l),
(70,690,l),
(70,638,l),
(470,638,l),
(42,48,l),
(42,0,l),
(548,0,l)
);
}
);
width = 571;
}
);
note = Zdotaccent;
unicode = 379;
},
{
glyphname = a;
kernLeft = a;
layers = (
{
hints = (
{
horizontal = 1;
place = (0, 21);
target = up;
type = BottomGhost;
},
{
horizontal = 1;
place = (265, 48);
place = (265, 48);
type = Stem;
},
{
horizontal = 1;
place = (493, 50);
place = (493, 50);
type = Stem;
},
{
place = (40, 68);
place = (40, 68);
type = Stem;
},
{
place = (380, 62);
place = (380, 62);
type = Stem;
},
{
horizontal = 1;
place = (-14, 49);
place = (-14, 49);
type = Stem;
}
);
layerId = m01;
shapes = (
{
closed = 1;
nodes = (
(390,0,l),
(452,0,l),
(445,63,o),
(442,101,o),
(442,148,cs),
(442,333,ls),
(442,358,o),
(442,380,o),
(440,403,cs),
(432,490,o),
(377,543,o),
(260,543,cs),
(148,543,o),
(69,476,o),
(62,372,c),
(127,372,l),
(135,454,o),
(187,493,o),
(260,493,cs),
(336,493,o),
(373,458,o),
(378,397,cs),
(380,376,o),
(380,356,o),
(380,332,cs),
(380,313,l),
(346,313,ls),
(155,313,o),
(40,254,o),
(40,133,cs),
(40,37,o),
(110,-14,o),
(208,-14,cs),
(266,-14,o),
(318,3,o),
(355,40,c),
(381,96,l)
);
},
{
closed = 1;
nodes = (
(150,35,o),
(108,71,o),
(108,138,cs),
(108,240,o),
(231,275,o),
(380,265,c),
(380,204,ls),
(380,105,o),
(319,35,o),
(227,35,cs)
);
}
);
width = 517;
}
);
note = a;
unicode = 97;
},
{
glyphname = aacute;
kernLeft = a;
layers = (
{
hints = (
{
horizontal = 1;
place = (-14, 49);
place = (-14, 49);
type = Stem;
},
{
horizontal = 1;
place = (265, 48);
place = (265, 48);
type = Stem;
},
{
horizontal = 1;
place = (493, 50);
place = (493, 50);
type = Stem;
},
{
horizontal = 1;
place = (580, 110);
place = (580, 110);
type = Stem;
},
{
place = (40, 68);
place = (40, 68);
type = Stem;
},
{
place = (380, 62);
place = (380, 62);
type = Stem;
},
{
horizontal = 1;
place = (0, 21);
target = up;
type = BottomGhost;
}
);
layerId = m01;
shapes = (
{
closed = 1;
nodes = (
(277,580,l),
(356,690,l),
(296,690,l),
(235,580,l)
);
},
{
closed = 1;
nodes = (
(390,0,l),
(452,0,l),
(445,63,o),
(442,101,o),
(442,148,cs),
(442,333,ls),
(442,358,o),
(442,380,o),
(440,403,cs),
(432,490,o),
(377,543,o),
(260,543,cs),
(148,543,o),
(69,476,o),
(62,372,c),
(127,372,l),
(135,454,o),
(187,493,o),
(260,493,cs),
(336,493,o),
(373,458,o),
(378,397,cs),
(380,376,o),
(380,356,o),
(380,332,cs),
(380,313,l),
(346,313,ls),
(155,313,o),
(40,254,o),
(40,133,cs),
(40,37,o),
(110,-14,o),
(208,-14,cs),
(266,-14,o),
(318,3,o),
(355,40,c),
(381,96,l)
);
},
{
closed = 1;
nodes = (
(150,35,o),
(108,71,o),
(108,138,cs),
(108,240,o),
(231,275,o),
(380,265,c),
(380,204,ls),
(380,105,o),
(319,35,o),
(227,35,cs)
);
}
);
width = 517;
}
);
note = aacute;
unicode = 225;
},
{
glyphname = abreve;
kernLeft = a;
layers = (
{
hints = (
{
horizontal = 1;
place = (-14, 49);
place = (-14, 49);
type = Stem;
},
{
horizontal = 1;
place = (265, 48);
place = (265, 48);
type = Stem;
},
{
horizontal = 1;
place = (493, 50);
place = (493, 50);
type = Stem;
},
{
horizontal = 1;
place = (568, 42);
place = (568, 42);
type = Stem;
},
{
horizontal = 1;
place = (690, -20);
target = down;
type = TopGhost;
},
{
place = (40, 68);
place = (40, 68);
type = Stem;
},
{
place = (163, 40);
place = (163, 40);
type = Stem;
},
{
place = (319, 40);
place = (319, 40);
type = Stem;
},
{
place = (380, 62);
place = (380, 62);
type = Stem;
},
{
horizontal = 1;
place = (0, 21);
target = up;
type = BottomGhost;
}
);
layerId = m01;
shapes = (
{
closed = 1;
nodes = (
(328,568,o),
(359,611,o),
(359,690,c),
(319,690,l),
(318,634,o),
(296,610,o),
(261,610,cs),
(226,610,o),
(204,634,o),
(203,690,c),
(163,690,l),
(163,611,o),
(193,568,o),
(261,568,cs)
);
},
{
closed = 1;
nodes = (
(390,0,l),
(452,0,l),
(445,63,o),
(442,101,o),
(442,148,cs),
(442,333,ls),
(442,358,o),
(442,380,o),
(440,403,cs),
(432,490,o),
(377,543,o),
(260,543,cs),
(148,543,o),
(69,476,o),
(62,372,c),
(127,372,l),
(135,454,o),
(187,493,o),
(260,493,cs),
(336,493,o),
(373,458,o),
(378,397,cs),
(380,376,o),
(380,356,o),
(380,332,cs),
(380,313,l),
(346,313,ls),
(155,313,o),
(40,254,o),
(40,133,cs),
(40,37,o),
(110,-14,o),
(208,-14,cs),
(266,-14,o),
(318,3,o),
(355,40,c),
(381,96,l)
);
},
{
closed = 1;
nodes = (
(150,35,o),
(108,71,o),
(108,138,cs),
(108,240,o),
(231,275,o),
(380,265,c),
(380,204,ls),
(380,105,o),
(319,35,o),
(227,35,cs)
);
}
);
width = 517;
}
);
note = abreve;
unicode = 259;
},
{
glyphname = acircumflex;
kernLeft = a;
layers = (
{
hints = (
{
horizontal = 1;
place = (-14, 49);
place = (-14, 49);
type = Stem;
},
{
horizontal = 1;
place = (265, 48);
place = (265, 48);
type = Stem;
},
{
horizontal = 1;
place = (493, 50);
place = (493, 50);
type = Stem;
},
{
horizontal = 1;
place = (580, 110);
place = (580, 110);
type = Stem;
},
{
place = (40, 68);
place = (40, 68);
type = Stem;
},
{
place = (380, 62);
place = (380, 62);
type = Stem;
},
{
horizontal = 1;
place = (655, 35);
place = (655, 35);
type = Stem;
},
{
horizontal = 1;
place = (0, 21);
target = up;
type = BottomGhost;
}
);
layerId = m01;
shapes = (
{
closed = 1;
nodes = (
(221,580,l),
(261,655,l),
(302,580,l),
(351,580,l),
(284,690,l),
(239,690,l),
(173,580,l)
);
},
{
closed = 1;
nodes = (
(390,0,l),
(452,0,l),
(445,63,o),
(442,101,o),
(442,148,cs),
(442,333,ls),
(442,358,o),
(442,380,o),
(440,403,cs),
(432,490,o),
(377,543,o),
(260,543,cs),
(148,543,o),
(69,476,o),
(62,372,c),
(127,372,l),
(135,454,o),
(187,493,o),
(260,493,cs),
(336,493,o),
(373,458,o),
(378,397,cs),
(380,376,o),
(380,356,o),
(380,332,cs),
(380,313,l),
(346,313,ls),
(155,313,o),
(40,254,o),
(40,133,cs),
(40,37,o),
(110,-14,o),
(208,-14,cs),
(266,-14,o),
(318,3,o),
(355,40,c),
(381,96,l)
);
},
{
closed = 1;
nodes = (
(150,35,o),
(108,71,o),
(108,138,cs),
(108,240,o),
(231,275,o),
(380,265,c),
(380,204,ls),
(380,105,o),
(319,35,o),
(227,35,cs)
);
}
);
width = 517;
}
);
note = acircumflex;
unicode = 226;
},
{
glyphname = adieresis;
kernLeft = a;
lastChange = "2022-11-29 09:53:10 +0000";
layers = (
{
hints = (
{
horizontal = 1;
place = (-14, 49);
place = (-14, 49);
type = Stem;
},
{
horizontal = 1;
place = (265, 48);
place = (265, 48);
type = Stem;
},
{
horizontal = 1;
place = (493, 50);
place = (493, 50);
type = Stem;
},
{
horizontal = 1;
place = (594, 73);
place = (594, 73);
type = Stem;
},
{
place = (40, 68);
place = (40, 68);
type = Stem;
},
{
place = (164, 73);
place = (164, 73);
type = Stem;
},
{
place = (380, 62);
place = (380, 62);
type = Stem;
},
{
place = (285, 73);
place = (285, 73);
type = Stem;
},
{
horizontal = 1;
place = (0, 21);
target = up;
type = BottomGhost;
}
);
layerId = m01;
shapes = (
{
closed = 1;
nodes = (
(390,0,l),
(452,0,l),
(445,63,o),
(442,101,o),
(442,148,cs),
(442,333,ls),
(442,358,o),
(442,380,o),
(440,403,cs),
(432,490,o),
(377,543,o),
(260,543,cs),
(148,543,o),
(69,476,o),
(62,372,c),
(127,372,l),
(135,454,o),
(187,493,o),
(260,493,cs),
(336,493,o),
(373,458,o),
(378,397,cs),
(380,376,o),
(380,356,o),
(380,332,cs),
(380,313,l),
(346,313,ls),
(155,313,o),
(40,254,o),
(40,133,cs),
(40,37,o),
(110,-14,o),
(208,-14,cs),
(266,-14,o),
(318,3,o),
(355,40,c),
(381,96,l)
);
},
{
closed = 1;
nodes = (
(150,35,o),
(108,71,o),
(108,138,cs),
(108,240,o),
(231,275,o),
(380,265,c),
(380,204,ls),
(380,105,o),
(319,35,o),
(227,35,cs)
);
},
{
closed = 1;
nodes = (
(169,595,l),
(241,595,l),
(241,667,l),
(169,667,l)
);
},
{
closed = 1;
nodes = (
(283,595,l),
(355,595,l),
(355,667,l),
(283,667,l)
);
}
);
width = 517;
}
);
note = adieresis;
unicode = 228;
},
{
glyphname = agrave;
kernLeft = a;
layers = (
{
hints = (
{
horizontal = 1;
place = (-14, 49);
place = (-14, 49);
type = Stem;
},
{
horizontal = 1;
place = (265, 48);
place = (265, 48);
type = Stem;
},
{
horizontal = 1;
place = (493, 50);
place = (493, 50);
type = Stem;
},
{
horizontal = 1;
place = (580, 110);
place = (580, 110);
type = Stem;
},
{
place = (40, 68);
place = (40, 68);
type = Stem;
},
{
place = (380, 62);
place = (380, 62);
type = Stem;
},
{
horizontal = 1;
place = (0, 21);
target = up;
type = BottomGhost;
}
);
layerId = m01;
shapes = (
{
closed = 1;
nodes = (
(237,580,l),
(280,580,l),
(219,690,l),
(158,690,l)
);
},
{
closed = 1;
nodes = (
(390,0,l),
(452,0,l),
(445,63,o),
(442,101,o),
(442,148,cs),
(442,333,ls),
(442,358,o),
(442,380,o),
(440,403,cs),
(432,490,o),
(377,543,o),
(260,543,cs),
(148,543,o),
(69,476,o),
(62,372,c),
(127,372,l),
(135,454,o),
(187,493,o),
(260,493,cs),
(336,493,o),
(373,458,o),
(378,397,cs),
(380,376,o),
(380,356,o),
(380,332,cs),
(380,313,l),
(346,313,ls),
(155,313,o),
(40,254,o),
(40,133,cs),
(40,37,o),
(110,-14,o),
(208,-14,cs),
(266,-14,o),
(318,3,o),
(355,40,c),
(381,96,l)
);
},
{
closed = 1;
nodes = (
(150,35,o),
(108,71,o),
(108,138,cs),
(108,240,o),
(231,275,o),
(380,265,c),
(380,204,ls),
(380,105,o),
(319,35,o),
(227,35,cs)
);
}
);
width = 517;
}
);
note = agrave;
unicode = 224;
},
{
glyphname = amacron;
kernLeft = a;
layers = (
{
hints = (
{
horizontal = 1;
place = (-14, 49);
place = (-14, 49);
type = Stem;
},
{
horizontal = 1;
place = (265, 48);
place = (265, 48);
type = Stem;
},
{
horizontal = 1;
place = (493, 50);
place = (493, 50);
type = Stem;
},
{
horizontal = 1;
place = (610, 40);
place = (610, 40);
type = Stem;
},
{
place = (40, 68);
place = (40, 68);
type = Stem;
},
{
place = (160, 202);
place = (160, 202);
type = Stem;
},
{
place = (380, 62);
place = (380, 62);
type = Stem;
},
{
horizontal = 1;
place = (0, 21);
target = up;
type = BottomGhost;
}
);
layerId = m01;
shapes = (
{
closed = 1;
nodes = (
(362,610,l),
(362,650,l),
(160,650,l),
(160,610,l)
);
},
{
closed = 1;
nodes = (
(390,0,l),
(452,0,l),
(445,63,o),
(442,101,o),
(442,148,cs),
(442,333,ls),
(442,358,o),
(442,380,o),
(440,403,cs),
(432,490,o),
(377,543,o),
(260,543,cs),
(148,543,o),
(69,476,o),
(62,372,c),
(127,372,l),
(135,454,o),
(187,493,o),
(260,493,cs),
(336,493,o),
(373,458,o),
(378,397,cs),
(380,376,o),
(380,356,o),
(380,332,cs),
(380,313,l),
(346,313,ls),
(155,313,o),
(40,254,o),
(40,133,cs),
(40,37,o),
(110,-14,o),
(208,-14,cs),
(266,-14,o),
(318,3,o),
(355,40,c),
(381,96,l)
);
},
{
closed = 1;
nodes = (
(150,35,o),
(108,71,o),
(108,138,cs),
(108,240,o),
(231,275,o),
(380,265,c),
(380,204,ls),
(380,105,o),
(319,35,o),
(227,35,cs)
);
}
);
width = 517;
}
);
note = amacron;
unicode = 257;
},
{
glyphname = aogonek;
kernLeft = a;
layers = (
{
hints = (
{
horizontal = 1;
place = (-223, 41);
place = (-223, 41);
type = Stem;
},
{
horizontal = 1;
place = (0, 21);
target = up;
type = BottomGhost;
},
{
horizontal = 1;
place = (265, 48);
place = (265, 48);
type = Stem;
},
{
horizontal = 1;
place = (493, 50);
place = (493, 50);
type = Stem;
},
{
place = (40, 68);
place = (40, 68);
type = Stem;
},
{
place = (270, 60);
place = (270, 60);
type = Stem;
},
{
place = (380, 62);
place = (380, 62);
type = Stem;
},
{
horizontal = 1;
place = (-14, 49);
place = (-14, 49);
type = Stem;
}
);
layerId = m01;
shapes = (
{
closed = 1;
nodes = (
(452,0,l),
(445,63,o),
(442,101,o),
(442,148,cs),
(442,333,ls),
(442,358,o),
(442,380,o),
(440,403,cs),
(432,490,o),
(377,543,o),
(260,543,cs),
(148,543,o),
(69,476,o),
(62,372,c),
(127,372,l),
(135,454,o),
(187,493,o),
(260,493,cs),
(336,493,o),
(373,458,o),
(378,397,cs),
(380,376,o),
(380,356,o),
(380,332,cs),
(380,313,l),
(346,313,ls),
(155,313,o),
(40,254,o),
(40,133,cs),
(40,37,o),
(110,-14,o),
(208,-14,cs),
(266,-14,o),
(318,3,o),
(355,40,c),
(381,96,l),
(389,12,l),
(323,-12,o),
(270,-69,o),
(270,-144,cs),
(270,-204,o),
(306,-223,o),
(352,-223,cs),
(384,-223,o),
(411,-215,o),
(434,-197,c),
(434,-158,l),
(414,-175,o),
(396,-182,o),
(375,-182,cs),
(346,-182,o),
(330,-168,o),
(330,-131,cs),
(330,-67,o),
(375,-13,o),
(434,0,c)
);
},
{
closed = 1;
nodes = (
(150,35,o),
(108,71,o),
(108,138,cs),
(108,240,o),
(231,275,o),
(380,265,c),
(380,204,ls),
(380,105,o),
(319,35,o),
(227,35,cs)
);
}
);
width = 517;
}
);
note = aogonek;
unicode = 261;
},
{
glyphname = aring;
kernLeft = a;
layers = (
{
hints = (
{
horizontal = 1;
place = (0, 21);
target = up;
type = BottomGhost;
},
{
horizontal = 1;
place = (265, 48);
place = (265, 48);
type = Stem;
},
{
horizontal = 1;
place = (493, 50);
place = (493, 50);
type = Stem;
},
{
horizontal = 1;
place = (568, 30);
place = (568, 30);
type = Stem;
},
{
horizontal = 1;
place = (689, 30);
place = (689, 30);
type = Stem;
},
{
place = (40, 68);
place = (40, 68);
type = Stem;
},
{
place = (181, 40);
place = (181, 40);
type = Stem;
},
{
place = (301, 40);
place = (301, 40);
type = Stem;
},
{
place = (380, 62);
place = (380, 62);
type = Stem;
},
{
horizontal = 1;
place = (-14, 49);
place = (-14, 49);
type = Stem;
}
);
layerId = m01;
shapes = (
{
closed = 1;
nodes = (
(307,568,o),
(341,599,o),
(341,643,cs),
(341,688,o),
(307,719,o),
(261,719,cs),
(215,719,o),
(181,688,o),
(181,643,cs),
(181,599,o),
(215,568,o),
(261,568,cs)
);
},
{
closed = 1;
nodes = (
(285,689,o),
(301,670,o),
(301,643,cs),
(301,616,o),
(285,598,o),
(261,598,cs),
(237,598,o),
(221,616,o),
(221,643,cs),
(221,670,o),
(237,689,o),
(261,689,cs)
);
},
{
closed = 1;
nodes = (
(390,0,l),
(452,0,l),
(445,63,o),
(442,101,o),
(442,148,cs),
(442,333,ls),
(442,358,o),
(442,380,o),
(440,403,cs),
(432,490,o),
(377,543,o),
(260,543,cs),
(148,543,o),
(69,476,o),
(62,372,c),
(127,372,l),
(135,454,o),
(187,493,o),
(260,493,cs),
(336,493,o),
(373,458,o),
(378,397,cs),
(380,376,o),
(380,356,o),
(380,332,cs),
(380,313,l),
(346,313,ls),
(155,313,o),
(40,254,o),
(40,133,cs),
(40,37,o),
(110,-14,o),
(208,-14,cs),
(266,-14,o),
(318,3,o),
(355,40,c),
(381,96,l)
);
},
{
closed = 1;
nodes = (
(150,35,o),
(108,71,o),
(108,138,cs),
(108,240,o),
(231,275,o),
(380,265,c),
(380,204,ls),
(380,105,o),
(319,35,o),
(227,35,cs)
);
}
);
width = 517;
}
);
note = aring;
unicode = 229;
},
{
glyphname = atilde;
kernLeft = a;
layers = (
{
hints = (
{
horizontal = 1;
place = (-14, 49);
place = (-14, 49);
type = Stem;
},
{
horizontal = 1;
place = (265, 48);
place = (265, 48);
type = Stem;
},
{
horizontal = 1;
place = (493, 50);
place = (493, 50);
type = Stem;
},
{
horizontal = 1;
place = (632, 39);
place = (632, 39);
type = Stem;
},
{
place = (40, 68);
place = (40, 68);
type = Stem;
},
{
place = (162, 31);
place = (162, 31);
type = Stem;
},
{
place = (380, 62);
place = (380, 62);
type = Stem;
},
{
horizontal = 1;
place = (607, 40);
place = (607, 40);
type = Stem;
},
{
place = (329, 31);
place = (329, 31);
type = Stem;
},
{
horizontal = 1;
place = (0, 21);
target = up;
type = BottomGhost;
}
);
layerId = m01;
shapes = (
{
closed = 1;
nodes = (
(218,632,o),
(230,628,o),
(254,620,cs),
(281,611,o),
(296,607,o),
(314,607,cs),
(343,607,o),
(360,622,o),
(360,667,c),
(329,667,l),
(329,652,o),
(323,647,o),
(313,647,cs),
(304,647,o),
(292,650,o),
(268,658,cs),
(241,667,o),
(226,671,o),
(208,671,cs),
(179,671,o),
(162,656,o),
(162,611,c),
(193,611,l),
(193,626,o),
(199,632,o),
(209,632,cs)
);
},
{
closed = 1;
nodes = (
(390,0,l),
(452,0,l),
(445,63,o),
(442,101,o),
(442,148,cs),
(442,333,ls),
(442,358,o),
(442,380,o),
(440,403,cs),
(432,490,o),
(377,543,o),
(260,543,cs),
(148,543,o),
(69,476,o),
(62,372,c),
(127,372,l),
(135,454,o),
(187,493,o),
(260,493,cs),
(336,493,o),
(373,458,o),
(378,397,cs),
(380,376,o),
(380,356,o),
(380,332,cs),
(380,313,l),
(346,313,ls),
(155,313,o),
(40,254,o),
(40,133,cs),
(40,37,o),
(110,-14,o),
(208,-14,cs),
(266,-14,o),
(318,3,o),
(355,40,c),
(381,96,l)
);
},
{
closed = 1;
nodes = (
(150,35,o),
(108,71,o),
(108,138,cs),
(108,240,o),
(231,275,o),
(380,265,c),
(380,204,ls),
(380,105,o),
(319,35,o),
(227,35,cs)
);
}
);
width = 517;
}
);
note = atilde;
unicode = 227;
},
{
glyphname = ae;
kernLeft = a;
kernRight = ae;
layers = (
{
hints = (
{
horizontal = 1;
place = (-14, 49);
place = (-14, 49);
type = Stem;
},
{
horizontal = 1;
place = (246, 49);
place = (246, 49);
type = Stem;
},
{
horizontal = 1;
place = (493, 50);
place = (493, 50);
type = Stem;
},
{
place = (40, 68);
place = (40, 68);
type = Stem;
},
{
place = (398, 62);
place = (398, 62);
type = Stem;
},
{
place = (799, 63);
place = (799, 63);
type = Stem;
}
);
layerId = m01;
shapes = (
{
closed = 1;
nodes = (
(862,425,o),
(788,543,o),
(638,543,cs),
(552,543,o),
(483,503,o),
(443,430,c),
(419,504,o),
(363,543,o),
(262,543,cs),
(144,543,o),
(65,476,o),
(61,372,c),
(125,372,l),
(132,454,o),
(187,493,o),
(262,493,cs),
(359,493,o),
(398,430,o),
(398,322,cs),
(398,296,l),
(364,296,ls),
(169,296,o),
(40,254,o),
(40,133,cs),
(40,35,o),
(122,-14,o),
(216,-14,cs),
(286,-14,o),
(346,8,o),
(399,65,c),
(424,119,l),
(461,23,o),
(542,-14,o),
(628,-14,cs),
(733,-14,o),
(830,44,o),
(855,167,c),
(790,167,l),
(771,80,o),
(705,35,o),
(631,35,cs),
(542,35,o),
(467,95,o),
(460,246,c),
(861,246,l),
(862,262,o),
(862,272,o),
(862,279,cs)
);
},
{
closed = 1;
nodes = (
(460,295,l),
(469,428,o),
(542,493,o),
(636,493,cs),
(726,493,o),
(792,432,o),
(799,295,c)
);
},
{
closed = 1;
nodes = (
(398,217,ls),
(398,107,o),
(326,35,o),
(231,35,cs),
(156,35,o),
(108,71,o),
(108,138,cs),
(108,234,o),
(239,253,o),
(398,246,c)
);
}
);
width = 901;
}
);
note = ae;
unicode = 230;
},
{
glyphname = b;
kernLeft = b;
kernRight = b;
layers = (
{
hints = (
{
horizontal = 1;
place = (-14, 49);
place = (-14, 49);
type = Stem;
},
{
horizontal = 1;
place = (493, 50);
place = (493, 50);
type = Stem;
},
{
horizontal = 1;
place = (735, -20);
target = down;
type = TopGhost;
},
{
place = (73, 62);
place = (73, 62);
type = Stem;
},
{
place = (488, 68);
place = (488, 68);
type = Stem;
},
{
horizontal = 1;
place = (0, 21);
target = up;
type = BottomGhost;
}
);
layerId = m01;
shapes = (
{
closed = 1;
nodes = (
(259,543,o),
(207,525,o),
(170,489,c),
(135,431,l),
(135,735,l),
(73,735,l),
(73,0,l),
(135,0,l),
(135,90,l),
(168,33,l),
(201,2,o),
(252,-14,o),
(304,-14,cs),
(438,-14,o),
(556,79,o),
(556,271,cs),
(556,428,o),
(468,543,o),
(320,543,cs)
);
},
{
closed = 1;
nodes = (
(226,35,o),
(135,86,o),
(135,237,cs),
(135,277,ls),
(135,437,o),
(217,493,o),
(311,493,cs),
(427,493,o),
(488,390,o),
(488,263,cs),
(488,120,o),
(410,35,o),
(304,35,cs)
);
}
);
width = 586;
}
);
note = b;
unicode = 98;
},
{
glyphname = c;
kernLeft = c;
layers = (
{
hints = (
{
horizontal = 1;
place = (-14, 49);
place = (-14, 49);
type = Stem;
},
{
horizontal = 1;
place = (494, 49);
place = (494, 49);
type = Stem;
},
{
place = (30, 68);
place = (30, 68);
type = Stem;
}
);
layerId = m01;
shapes = (
{
closed = 1;
nodes = (
(143,543,o),
(30,439,o),
(30,264,cs),
(30,77,o),
(133,-14,o),
(265,-14,cs),
(379,-14,o),
(466,48,o),
(490,165,c),
(426,165,l),
(407,80,o),
(347,35,o),
(269,35,cs),
(180,35,o),
(98,106,o),
(98,269,cs),
(98,422,o),
(185,494,o),
(274,494,cs),
(359,494,o),
(412,445,o),
(430,356,c),
(495,356,l),
(479,468,o),
(398,543,o),
(276,543,cs)
);
}
);
width = 525;
}
);
note = c;
unicode = 99;
},
{
glyphname = cacute;
kernLeft = c;
layers = (
{
hints = (
{
horizontal = 1;
place = (-14, 49);
place = (-14, 49);
type = Stem;
},
{
horizontal = 1;
place = (494, 49);
place = (494, 49);
type = Stem;
},
{
horizontal = 1;
place = (580, 110);
place = (580, 110);
type = Stem;
},
{
place = (30, 68);
place = (30, 68);
type = Stem;
}
);
layerId = m01;
shapes = (
{
closed = 1;
nodes = (
(284,580,l),
(363,690,l),
(303,690,l),
(242,580,l)
);
},
{
closed = 1;
nodes = (
(143,543,o),
(30,439,o),
(30,264,cs),
(30,77,o),
(133,-14,o),
(265,-14,cs),
(379,-14,o),
(466,48,o),
(490,165,c),
(426,165,l),
(407,80,o),
(347,35,o),
(269,35,cs),
(180,35,o),
(98,106,o),
(98,269,cs),
(98,422,o),
(185,494,o),
(274,494,cs),
(359,494,o),
(412,445,o),
(430,356,c),
(495,356,l),
(479,468,o),
(398,543,o),
(276,543,cs)
);
}
);
width = 525;
}
);
note = cacute;
unicode = 263;
},
{
glyphname = ccaron;
kernLeft = c;
layers = (
{
hints = (
{
horizontal = 1;
place = (-14, 49);
place = (-14, 49);
type = Stem;
},
{
horizontal = 1;
place = (494, 49);
place = (494, 49);
type = Stem;
},
{
horizontal = 1;
place = (580, 110);
place = (580, 110);
type = Stem;
},
{
place = (30, 68);
place = (30, 68);
type = Stem;
}
);
layerId = m01;
shapes = (
{
closed = 1;
nodes = (
(246,580,l),
(291,580,l),
(358,690,l),
(310,690,l),
(269,615,l),
(229,690,l),
(180,690,l)
);
},
{
closed = 1;
nodes = (
(180,35,o),
(98,106,o),
(98,269,cs),
(98,422,o),
(185,494,o),
(274,494,cs),
(359,494,o),
(412,445,o),
(430,356,c),
(495,356,l),
(479,468,o),
(398,543,o),
(276,543,cs),
(143,543,o),
(30,439,o),
(30,264,cs),
(30,77,o),
(133,-14,o),
(265,-14,cs),
(379,-14,o),
(466,48,o),
(490,165,c),
(426,165,l),
(407,80,o),
(347,35,o),
(269,35,cs)
);
}
);
width = 525;
}
);
note = ccaron;
unicode = 269;
},
{
glyphname = ccedilla;
kernLeft = c;
layers = (
{
hints = (
{
horizontal = 1;
place = (-210, 34);
place = (-210, 34);
type = Stem;
},
{
horizontal = 1;
place = (-12, 47);
place = (-12, 47);
type = Stem;
},
{
horizontal = 1;
place = (494, 49);
place = (494, 49);
type = Stem;
},
{
place = (30, 68);
place = (30, 68);
type = Stem;
},
{
place = (296, 45);
place = (296, 45);
type = Stem;
},
{
horizontal = 1;
place = (-75, 110);
place = (-75, 110);
type = Stem;
}
);
layerId = m01;
shapes = (
{
closed = 1;
nodes = (
(180,35,o),
(98,106,o),
(98,269,cs),
(98,422,o),
(185,494,o),
(274,494,cs),
(359,494,o),
(412,445,o),
(430,356,c),
(495,356,l),
(479,468,o),
(398,543,o),
(276,543,cs),
(143,543,o),
(30,439,o),
(30,264,cs),
(30,93,o),
(116,2,o),
(232,-12,c),
(199,-75,l),
(268,-70,o),
(296,-90,o),
(296,-126,cs),
(296,-158,o),
(270,-176,o),
(228,-176,cs),
(206,-176,o),
(190,-173,o),
(175,-165,c),
(175,-201,l),
(189,-207,o),
(206,-210,o),
(226,-210,cs),
(290,-210,o),
(341,-182,o),
(341,-125,cs),
(341,-77,o),
(310,-50,o),
(257,-44,c),
(274,-14,l),
(384,-11,o),
(467,51,o),
(490,165,c),
(426,165,l),
(407,80,o),
(347,35,o),
(269,35,cs)
);
}
);
width = 525;
}
);
note = ccedilla;
unicode = 231;
},
{
glyphname = cdotaccent;
kernLeft = c;
layers = (
{
hints = (
{
horizontal = 1;
place = (-14, 49);
place = (-14, 49);
type = Stem;
},
{
horizontal = 1;
place = (494, 49);
place = (494, 49);
type = Stem;
},
{
horizontal = 1;
place = (601, 84);
place = (601, 84);
type = Stem;
},
{
place = (30, 68);
place = (30, 68);
type = Stem;
},
{
place = (226, 84);
place = (226, 84);
type = Stem;
}
);
layerId = m01;
shapes = (
{
closed = 1;
nodes = (
(245,685,o),
(226,667,o),
(226,643,cs),
(226,620,o),
(245,601,o),
(268,601,cs),
(292,601,o),
(310,620,o),
(310,643,cs),
(310,667,o),
(292,685,o),
(268,685,cs)
);
},
{
closed = 1;
nodes = (
(143,543,o),
(30,439,o),
(30,264,cs),
(30,77,o),
(133,-14,o),
(265,-14,cs),
(379,-14,o),
(466,48,o),
(490,165,c),
(426,165,l),
(407,80,o),
(347,35,o),
(269,35,cs),
(180,35,o),
(98,106,o),
(98,269,cs),
(98,422,o),
(185,494,o),
(274,494,cs),
(359,494,o),
(412,445,o),
(430,356,c),
(495,356,l),
(479,468,o),
(398,543,o),
(276,543,cs)
);
}
);
width = 525;
}
);
note = cdotaccent;
unicode = 267;
},
{
glyphname = d;
kernLeft = c;
layers = (
{
hints = (
{
horizontal = 1;
place = (-14, 49);
place = (-14, 49);
type = Stem;
},
{
horizontal = 1;
place = (493, 50);
place = (493, 50);
type = Stem;
},
{
horizontal = 1;
place = (735, -20);
target = down;
type = TopGhost;
},
{
place = (30, 68);
place = (30, 68);
type = Stem;
},
{
place = (451, 62);
place = (451, 62);
type = Stem;
},
{
horizontal = 1;
place = (0, 21);
target = up;
type = BottomGhost;
}
);
layerId = m01;
shapes = (
{
closed = 1;
nodes = (
(513,735,l),
(451,735,l),
(451,438,l),
(418,495,l),
(385,527,o),
(334,543,o),
(282,543,cs),
(148,543,o),
(30,450,o),
(30,258,cs),
(30,101,o),
(118,-14,o),
(266,-14,cs),
(327,-14,o),
(379,3,o),
(416,40,c),
(451,98,l),
(451,0,l),
(513,0,l)
);
},
{
closed = 1;
nodes = (
(159,35,o),
(98,139,o),
(98,266,cs),
(98,409,o),
(176,493,o),
(282,493,cs),
(360,493,o),
(451,442,o),
(451,292,cs),
(451,252,ls),
(451,92,o),
(369,35,o),
(275,35,cs)
);
}
);
width = 588;
}
);
note = d;
unicode = 100;
},
{
glyphname = eth;
kernLeft = c;
layers = (
{
hints = (
{
horizontal = 1;
place = (-14, 49);
place = (-14, 49);
type = Stem;
},
{
horizontal = 1;
place = (495, 49);
place = (495, 49);
type = Stem;
},
{
horizontal = 1;
place = (703, -20);
target = down;
type = TopGhost;
},
{
horizontal = 1;
place = (745, -20);
target = down;
type = TopGhost;
},
{
place = (30, 68);
place = (30, 68);
type = Stem;
},
{
place = (447, 67);
place = (447, 67);
type = Stem;
}
);
layerId = m01;
shapes = (
{
closed = 1;
nodes = (
(470,674,l),
(454,714,l),
(385,685,l),
(354,710,o),
(319,730,o),
(277,745,c),
(238,703,l),
(272,693,o),
(301,679,o),
(327,662,c),
(199,609,l),
(215,569,l),
(364,630,l),
(406,587,o),
(431,527,o),
(438,447,c),
(392,509,l),
(354,534,o),
(318,544,o),
(269,544,cs),
(134,544,o),
(30,431,o),
(30,257,cs),
(30,102,o),
(111,-14,o),
(266,-14,cs),
(403,-14,o),
(514,77,o),
(514,307,cs),
(514,469,o),
(484,579,o),
(418,653,c)
);
},
{
closed = 1;
nodes = (
(447,271,ls),
(447,116,o),
(374,35,o),
(271,35,cs),
(165,35,o),
(98,120,o),
(98,264,cs),
(98,407,o),
(174,495,o),
(275,495,cs),
(364,495,o),
(447,430,o),
(447,297,cs)
);
}
);
width = 561;
}
);
note = eth;
unicode = 240;
},
{
glyphname = dcaron;
kernLeft = c;
layers = (
{
hints = (
{
horizontal = 1;
place = (-14, 49);
place = (-14, 49);
type = Stem;
},
{
horizontal = 1;
place = (493, 50);
place = (493, 50);
type = Stem;
},
{
horizontal = 1;
place = (599, 136);
place = (599, 136);
type = Stem;
},
{
place = (30, 68);
place = (30, 68);
type = Stem;
},
{
place = (451, 62);
place = (451, 62);
type = Stem;
},
{
horizontal = 1;
place = (0, 21);
target = up;
type = BottomGhost;
}
);
layerId = m01;
shapes = (
{
closed = 1;
nodes = (
(451,735,l),
(451,438,l),
(418,495,l),
(385,527,o),
(334,543,o),
(282,543,cs),
(148,543,o),
(30,450,o),
(30,258,cs),
(30,101,o),
(118,-14,o),
(266,-14,cs),
(327,-14,o),
(379,3,o),
(416,40,c),
(451,98,l),
(451,0,l),
(513,0,l),
(513,735,l)
);
},
{
closed = 1;
nodes = (
(641,735,l),
(589,735,l),
(540,599,l),
(586,599,l),
(641,726,l)
);
},
{
closed = 1;
nodes = (
(159,35,o),
(98,139,o),
(98,266,cs),
(98,409,o),
(176,493,o),
(282,493,cs),
(360,493,o),
(451,442,o),
(451,292,cs),
(451,252,ls),
(451,92,o),
(369,35,o),
(275,35,cs)
);
}
);
width = 588;
}
);
note = dcaron;
unicode = 271;
},
{
glyphname = dcroat;
kernLeft = c;
layers = (
{
hints = (
{
horizontal = 1;
place = (-14, 49);
place = (-14, 49);
type = Stem;
},
{
horizontal = 1;
place = (493, 50);
place = (493, 50);
type = Stem;
},
{
horizontal = 1;
place = (602, 133);
place = (602, 133);
type = Stem;
},
{
place = (30, 68);
place = (30, 68);
type = Stem;
},
{
place = (451, 62);
place = (451, 62);
type = Stem;
},
{
horizontal = 1;
place = (602, 43);
place = (602, 43);
type = Stem;
},
{
horizontal = 1;
place = (0, 21);
target = up;
type = BottomGhost;
}
);
layerId = m01;
shapes = (
{
closed = 1;
nodes = (
(556,602,l),
(556,645,l),
(513,645,l),
(513,735,l),
(451,735,l),
(451,645,l),
(335,645,l),
(335,602,l),
(451,602,l),
(451,438,l),
(418,495,l),
(385,527,o),
(334,543,o),
(282,543,cs),
(148,543,o),
(30,450,o),
(30,258,cs),
(30,101,o),
(118,-14,o),
(266,-14,cs),
(327,-14,o),
(379,3,o),
(416,40,c),
(451,98,l),
(451,0,l),
(513,0,l),
(513,602,l)
);
},
{
closed = 1;
nodes = (
(159,35,o),
(98,139,o),
(98,266,cs),
(98,409,o),
(176,493,o),
(282,493,cs),
(360,493,o),
(451,442,o),
(451,292,cs),
(451,252,ls),
(451,92,o),
(369,35,o),
(275,35,cs)
);
}
);
width = 592;
}
);
note = dcroat;
unicode = 273;
},
{
glyphname = e;
kernLeft = c;
kernRight = ae;
layers = (
{
hints = (
{
horizontal = 1;
place = (-14, 49);
place = (-14, 49);
type = Stem;
},
{
horizontal = 1;
place = (246, 49);
place = (246, 49);
type = Stem;
},
{
horizontal = 1;
place = (493, 50);
place = (493, 50);
type = Stem;
},
{
place = (30, 67);
place = (30, 67);
type = Stem;
},
{
place = (437, 63);
place = (437, 63);
type = Stem;
}
);
layerId = m01;
shapes = (
{
closed = 1;
nodes = (
(500,425,o),
(423,543,o),
(275,543,cs),
(136,543,o),
(30,434,o),
(30,264,cs),
(30,78,o),
(133,-14,o),
(265,-14,cs),
(371,-14,o),
(468,44,o),
(493,167,c),
(428,167,l),
(409,80,o),
(343,35,o),
(269,35,cs),
(183,35,o),
(104,90,o),
(97,246,c),
(498,246,l),
(500,262,o),
(500,272,o),
(500,279,cs)
);
},
{
closed = 1;
nodes = (
(362,493,o),
(430,431,o),
(437,295,c),
(97,295,l),
(106,427,o),
(186,493,o),
(273,493,cs)
);
}
);
width = 539;
}
);
note = e;
unicode = 101;
},
{
glyphname = eacute;
kernLeft = c;
kernRight = ae;
layers = (
{
hints = (
{
horizontal = 1;
place = (-14, 49);
place = (-14, 49);
type = Stem;
},
{
horizontal = 1;
place = (246, 49);
place = (246, 49);
type = Stem;
},
{
horizontal = 1;
place = (493, 50);
place = (493, 50);
type = Stem;
},
{
horizontal = 1;
place = (580, 110);
place = (580, 110);
type = Stem;
},
{
place = (30, 67);
place = (30, 67);
type = Stem;
},
{
place = (437, 63);
place = (437, 63);
type = Stem;
}
);
layerId = m01;
shapes = (
{
closed = 1;
nodes = (
(285,580,l),
(364,690,l),
(304,690,l),
(243,580,l)
);
},
{
closed = 1;
nodes = (
(500,425,o),
(423,543,o),
(275,543,cs),
(136,543,o),
(30,434,o),
(30,264,cs),
(30,78,o),
(133,-14,o),
(265,-14,cs),
(371,-14,o),
(468,44,o),
(493,167,c),
(428,167,l),
(409,80,o),
(343,35,o),
(269,35,cs),
(183,35,o),
(104,90,o),
(97,246,c),
(498,246,l),
(500,262,o),
(500,272,o),
(500,279,cs)
);
},
{
closed = 1;
nodes = (
(362,493,o),
(430,431,o),
(437,295,c),
(97,295,l),
(106,427,o),
(186,493,o),
(273,493,cs)
);
}
);
width = 539;
}
);
note = eacute;
unicode = 233;
},
{
glyphname = ecaron;
kernLeft = c;
kernRight = ae;
layers = (
{
hints = (
{
horizontal = 1;
place = (-14, 49);
place = (-14, 49);
type = Stem;
},
{
horizontal = 1;
place = (246, 49);
place = (246, 49);
type = Stem;
},
{
horizontal = 1;
place = (493, 50);
place = (493, 50);
type = Stem;
},
{
horizontal = 1;
place = (580, 110);
place = (580, 110);
type = Stem;
},
{
place = (30, 67);
place = (30, 67);
type = Stem;
},
{
place = (437, 63);
place = (437, 63);
type = Stem;
}
);
layerId = m01;
shapes = (
{
closed = 1;
nodes = (
(247,580,l),
(292,580,l),
(359,690,l),
(311,690,l),
(270,615,l),
(230,690,l),
(181,690,l)
);
},
{
closed = 1;
nodes = (
(500,425,o),
(423,543,o),
(275,543,cs),
(136,543,o),
(30,434,o),
(30,264,cs),
(30,78,o),
(133,-14,o),
(265,-14,cs),
(371,-14,o),
(468,44,o),
(493,167,c),
(428,167,l),
(409,80,o),
(343,35,o),
(269,35,cs),
(183,35,o),
(104,90,o),
(97,246,c),
(498,246,l),
(500,262,o),
(500,272,o),
(500,279,cs)
);
},
{
closed = 1;
nodes = (
(362,493,o),
(430,431,o),
(437,295,c),
(97,295,l),
(106,427,o),
(186,493,o),
(273,493,cs)
);
}
);
width = 539;
}
);
note = ecaron;
unicode = 283;
},
{
glyphname = ecircumflex;
kernLeft = c;
kernRight = ae;
layers = (
{
hints = (
{
horizontal = 1;
place = (-14, 49);
place = (-14, 49);
type = Stem;
},
{
horizontal = 1;
place = (246, 49);
place = (246, 49);
type = Stem;
},
{
horizontal = 1;
place = (493, 50);
place = (493, 50);
type = Stem;
},
{
horizontal = 1;
place = (580, 110);
place = (580, 110);
type = Stem;
},
{
place = (30, 67);
place = (30, 67);
type = Stem;
},
{
place = (437, 63);
place = (437, 63);
type = Stem;
},
{
horizontal = 1;
place = (655, 35);
place = (655, 35);
type = Stem;
}
);
layerId = m01;
shapes = (
{
closed = 1;
nodes = (
(229,580,l),
(269,655,l),
(310,580,l),
(359,580,l),
(292,690,l),
(247,690,l),
(181,580,l)
);
},
{
closed = 1;
nodes = (
(500,425,o),
(423,543,o),
(275,543,cs),
(136,543,o),
(30,434,o),
(30,264,cs),
(30,78,o),
(133,-14,o),
(265,-14,cs),
(371,-14,o),
(468,44,o),
(493,167,c),
(428,167,l),
(409,80,o),
(343,35,o),
(269,35,cs),
(183,35,o),
(104,90,o),
(97,246,c),
(498,246,l),
(500,262,o),
(500,272,o),
(500,279,cs)
);
},
{
closed = 1;
nodes = (
(362,493,o),
(430,431,o),
(437,295,c),
(97,295,l),
(106,427,o),
(186,493,o),
(273,493,cs)
);
}
);
width = 539;
}
);
note = ecircumflex;
unicode = 234;
},
{
glyphname = edieresis;
kernLeft = c;
kernRight = ae;
lastChange = "2022-11-29 09:53:21 +0000";
layers = (
{
hints = (
{
horizontal = 1;
place = (-14, 49);
place = (-14, 49);
type = Stem;
},
{
horizontal = 1;
place = (246, 49);
place = (246, 49);
type = Stem;
},
{
horizontal = 1;
place = (493, 50);
place = (493, 50);
type = Stem;
},
{
horizontal = 1;
place = (594, 73);
place = (594, 73);
type = Stem;
},
{
place = (30, 67);
place = (30, 67);
type = Stem;
},
{
place = (172, 73);
place = (172, 73);
type = Stem;
},
{
place = (293, 73);
place = (293, 73);
type = Stem;
},
{
place = (437, 63);
place = (437, 63);
type = Stem;
}
);
layerId = m01;
shapes = (
{
closed = 1;
nodes = (
(500,425,o),
(423,543,o),
(275,543,cs),
(136,543,o),
(30,434,o),
(30,264,cs),
(30,78,o),
(133,-14,o),
(265,-14,cs),
(371,-14,o),
(468,44,o),
(493,167,c),
(428,167,l),
(409,80,o),
(343,35,o),
(269,35,cs),
(183,35,o),
(104,90,o),
(97,246,c),
(498,246,l),
(500,262,o),
(500,272,o),
(500,279,cs)
);
},
{
closed = 1;
nodes = (
(362,493,o),
(430,431,o),
(437,295,c),
(97,295,l),
(106,427,o),
(186,493,o),
(273,493,cs)
);
},
{
closed = 1;
nodes = (
(175,593,l),
(247,593,l),
(247,665,l),
(175,665,l)
);
},
{
closed = 1;
nodes = (
(289,593,l),
(361,593,l),
(361,665,l),
(289,665,l)
);
}
);
width = 539;
}
);
note = edieresis;
unicode = 235;
},
{
glyphname = edotaccent;
kernLeft = c;
kernRight = ae;
layers = (
{
hints = (
{
horizontal = 1;
place = (-14, 49);
place = (-14, 49);
type = Stem;
},
{
horizontal = 1;
place = (246, 49);
place = (246, 49);
type = Stem;
},
{
horizontal = 1;
place = (493, 50);
place = (493, 50);
type = Stem;
},
{
horizontal = 1;
place = (601, 84);
place = (601, 84);
type = Stem;
},
{
place = (30, 67);
place = (30, 67);
type = Stem;
},
{
place = (227, 84);
place = (227, 84);
type = Stem;
},
{
place = (437, 63);
place = (437, 63);
type = Stem;
}
);
layerId = m01;
shapes = (
{
closed = 1;
nodes = (
(293,601,o),
(311,620,o),
(311,643,cs),
(311,667,o),
(293,685,o),
(269,685,cs),
(246,685,o),
(227,667,o),
(227,643,cs),
(227,620,o),
(246,601,o),
(269,601,cs)
);
},
{
closed = 1;
nodes = (
(500,425,o),
(423,543,o),
(275,543,cs),
(136,543,o),
(30,434,o),
(30,264,cs),
(30,78,o),
(133,-14,o),
(265,-14,cs),
(371,-14,o),
(468,44,o),
(493,167,c),
(428,167,l),
(409,80,o),
(343,35,o),
(269,35,cs),
(183,35,o),
(104,90,o),
(97,246,c),
(498,246,l),
(500,262,o),
(500,272,o),
(500,279,cs)
);
},
{
closed = 1;
nodes = (
(362,493,o),
(430,431,o),
(437,295,c),
(97,295,l),
(106,427,o),
(186,493,o),
(273,493,cs)
);
}
);
width = 539;
}
);
note = edotaccent;
unicode = 279;
},
{
glyphname = egrave;
kernLeft = c;
kernRight = ae;
layers = (
{
hints = (
{
horizontal = 1;
place = (-14, 49);
place = (-14, 49);
type = Stem;
},
{
horizontal = 1;
place = (246, 49);
place = (246, 49);
type = Stem;
},
{
horizontal = 1;
place = (493, 50);
place = (493, 50);
type = Stem;
},
{
horizontal = 1;
place = (580, 110);
place = (580, 110);
type = Stem;
},
{
place = (30, 67);
place = (30, 67);
type = Stem;
},
{
place = (437, 63);
place = (437, 63);
type = Stem;
}
);
layerId = m01;
shapes = (
{
closed = 1;
nodes = (
(253,580,l),
(296,580,l),
(235,690,l),
(174,690,l)
);
},
{
closed = 1;
nodes = (
(500,425,o),
(423,543,o),
(275,543,cs),
(136,543,o),
(30,434,o),
(30,264,cs),
(30,78,o),
(133,-14,o),
(265,-14,cs),
(371,-14,o),
(468,44,o),
(493,167,c),
(428,167,l),
(409,80,o),
(343,35,o),
(269,35,cs),
(183,35,o),
(104,90,o),
(97,246,c),
(498,246,l),
(500,262,o),
(500,272,o),
(500,279,cs)
);
},
{
closed = 1;
nodes = (
(362,493,o),
(430,431,o),
(437,295,c),
(97,295,l),
(106,427,o),
(186,493,o),
(273,493,cs)
);
}
);
width = 539;
}
);
note = egrave;
unicode = 232;
},
{
glyphname = emacron;
kernLeft = c;
kernRight = ae;
layers = (
{
hints = (
{
horizontal = 1;
place = (-14, 49);
place = (-14, 49);
type = Stem;
},
{
horizontal = 1;
place = (246, 49);
place = (246, 49);
type = Stem;
},
{
horizontal = 1;
place = (493, 50);
place = (493, 50);
type = Stem;
},
{
horizontal = 1;
place = (610, 40);
place = (610, 40);
type = Stem;
},
{
place = (30, 67);
place = (30, 67);
type = Stem;
},
{
place = (168, 202);
place = (168, 202);
type = Stem;
},
{
place = (437, 63);
place = (437, 63);
type = Stem;
}
);
layerId = m01;
shapes = (
{
closed = 1;
nodes = (
(370,610,l),
(370,650,l),
(168,650,l),
(168,610,l)
);
},
{
closed = 1;
nodes = (
(500,425,o),
(423,543,o),
(275,543,cs),
(136,543,o),
(30,434,o),
(30,264,cs),
(30,78,o),
(133,-14,o),
(265,-14,cs),
(371,-14,o),
(468,44,o),
(493,167,c),
(428,167,l),
(409,80,o),
(343,35,o),
(269,35,cs),
(183,35,o),
(104,90,o),
(97,246,c),
(498,246,l),
(500,262,o),
(500,272,o),
(500,279,cs)
);
},
{
closed = 1;
nodes = (
(362,493,o),
(430,431,o),
(437,295,c),
(97,295,l),
(106,427,o),
(186,493,o),
(273,493,cs)
);
}
);
width = 539;
}
);
note = emacron;
unicode = 275;
},
{
glyphname = eogonek;
kernLeft = c;
kernRight = ae;
layers = (
{
hints = (
{
horizontal = 1;
place = (-223, 41);
place = (-223, 41);
type = Stem;
},
{
horizontal = 1;
place = (-14, 49);
place = (-14, 49);
type = Stem;
},
{
horizontal = 1;
place = (246, 49);
place = (246, 49);
type = Stem;
},
{
horizontal = 1;
place = (493, 50);
place = (493, 50);
type = Stem;
},
{
place = (30, 67);
place = (30, 67);
type = Stem;
},
{
place = (187, 60);
place = (187, 60);
type = Stem;
},
{
place = (437, 63);
place = (437, 63);
type = Stem;
}
);
layerId = m01;
shapes = (
{
closed = 1;
nodes = (
(500,425,o),
(423,543,o),
(275,543,cs),
(136,543,o),
(30,434,o),
(30,264,cs),
(30,82,o),
(129,-10,o),
(257,-14,c),
(216,-44,o),
(187,-89,o),
(187,-144,cs),
(187,-204,o),
(223,-223,o),
(269,-223,cs),
(301,-223,o),
(328,-215,o),
(351,-197,c),
(351,-158,l),
(331,-175,o),
(313,-182,o),
(292,-182,cs),
(263,-182,o),
(247,-168,o),
(247,-131,cs),
(247,-74,o),
(283,-25,o),
(332,-6,c),
(410,14,o),
(473,71,o),
(493,167,c),
(428,167,l),
(409,80,o),
(343,35,o),
(269,35,cs),
(183,35,o),
(104,90,o),
(97,246,c),
(498,246,l),
(500,262,o),
(500,272,o),
(500,279,cs)
);
},
{
closed = 1;
nodes = (
(362,493,o),
(430,431,o),
(437,295,c),
(97,295,l),
(106,427,o),
(186,493,o),
(273,493,cs)
);
}
);
width = 539;
}
);
note = eogonek;
unicode = 281;
},
{
glyphname = f;
layers = (
{
hints = (
{
horizontal = 1;
place = (0, 21);
target = up;
type = BottomGhost;
},
{
horizontal = 1;
place = (475, 50);
place = (475, 50);
type = Stem;
},
{
horizontal = 1;
place = (700.77, 48.23);
place = (700.77, 48.23);
type = Stem;
},
{
place = (80, 62);
place = (80, 62);
type = Stem;
}
);
layerId = m01;
shapes = (
{
closed = 1;
nodes = (
(150,688,o),
(190,711,o),
(260,697,c),
(260,749,l),
(242,752,o),
(225,754,o),
(204,754,cs),
(139,754,o),
(90,716,o),
(82,643,cs),
(80,624,o),
(80,602,o),
(80,584,cs),
(80,525,l),
(23,525,l),
(23,475,l),
(80,475,l),
(80,0,l),
(142,0,l),
(142,475,l),
(250,475,l),
(250,525,l),
(142,525,l),
(142,589,ls),
(142,604,o),
(142,624,o),
(144,641,cs)
);
}
);
width = 268;
}
);
note = f;
unicode = 102;
},
{
glyphname = g;
kernLeft = c;
layers = (
{
hints = (
{
horizontal = 1;
place = (-214, 49);
place = (-214, 49);
type = Stem;
},
{
horizontal = 1;
place = (-14, 49);
place = (-14, 49);
type = Stem;
},
{
horizontal = 1;
place = (530, -20);
target = down;
type = TopGhost;
},
{
place = (30, 68);
place = (30, 68);
type = Stem;
},
{
place = (451, 62);
place = (451, 62);
type = Stem;
},
{
horizontal = 1;
place = (493, 50);
place = (493, 50);
type = Stem;
},
{
place = (50, 62);
place = (50, 62);
type = Stem;
}
);
layerId = m01;
shapes = (
{
closed = 1;
nodes = (
(513,530,l),
(451,530,l),
(451,438,l),
(418,495,l),
(385,527,o),
(334,543,o),
(282,543,cs),
(148,543,o),
(30,450,o),
(30,258,cs),
(30,101,o),
(118,-14,o),
(266,-14,cs),
(327,-14,o),
(379,3,o),
(416,40,c),
(451,98,l),
(451,85,ls),
(451,57,o),
(451,36,o),
(450,7,cs),
(446,-98,o),
(386,-165,o),
(274,-165,cs),
(185,-165,o),
(122,-123,o),
(113,-45,cs),
(111,-33,l),
(49,-33,l),
(50,-45,ls),
(63,-160,o),
(143,-214,o),
(274,-214,cs),
(419,-214,o),
(507,-131,o),
(512,10,cs),
(513,41,o),
(513,82,o),
(513,134,cs)
);
},
{
closed = 1;
nodes = (
(159,35,o),
(98,139,o),
(98,266,cs),
(98,409,o),
(176,493,o),
(282,493,cs),
(360,493,o),
(451,442,o),
(451,292,cs),
(451,252,ls),
(451,92,o),
(369,35,o),
(275,35,cs)
);
}
);
width = 588;
}
);
note = g;
unicode = 103;
},
{
glyphname = gbreve;
kernLeft = c;
layers = (
{
hints = (
{
horizontal = 1;
place = (-214, 49);
place = (-214, 49);
type = Stem;
},
{
horizontal = 1;
place = (-14, 49);
place = (-14, 49);
type = Stem;
},
{
horizontal = 1;
place = (530, -20);
target = down;
type = TopGhost;
},
{
horizontal = 1;
place = (568, 42);
place = (568, 42);
type = Stem;
},
{
horizontal = 1;
place = (690, -20);
target = down;
type = TopGhost;
},
{
place = (30, 68);
place = (30, 68);
type = Stem;
},
{
place = (192, 40);
place = (192, 40);
type = Stem;
},
{
place = (348, 40);
place = (348, 40);
type = Stem;
},
{
place = (451, 62);
place = (451, 62);
type = Stem;
},
{
horizontal = 1;
place = (493, 50);
place = (493, 50);
type = Stem;
},
{
place = (50, 62);
place = (50, 62);
type = Stem;
}
);
layerId = m01;
shapes = (
{
closed = 1;
nodes = (
(357,568,o),
(388,611,o),
(388,690,c),
(348,690,l),
(347,634,o),
(325,610,o),
(290,610,cs),
(255,610,o),
(233,634,o),
(232,690,c),
(192,690,l),
(192,611,o),
(222,568,o),
(290,568,cs)
);
},
{
closed = 1;
nodes = (
(513,530,l),
(451,530,l),
(451,438,l),
(418,495,l),
(385,527,o),
(334,543,o),
(282,543,cs),
(148,543,o),
(30,450,o),
(30,258,cs),
(30,101,o),
(118,-14,o),
(266,-14,cs),
(327,-14,o),
(379,3,o),
(416,40,c),
(451,98,l),
(451,85,ls),
(451,57,o),
(451,36,o),
(450,7,cs),
(446,-98,o),
(386,-165,o),
(274,-165,cs),
(185,-165,o),
(122,-123,o),
(113,-45,cs),
(111,-33,l),
(49,-33,l),
(50,-45,ls),
(63,-160,o),
(143,-214,o),
(274,-214,cs),
(419,-214,o),
(507,-131,o),
(512,10,cs),
(513,41,o),
(513,82,o),
(513,134,cs)
);
},
{
closed = 1;
nodes = (
(159,35,o),
(98,139,o),
(98,266,cs),
(98,409,o),
(176,493,o),
(282,493,cs),
(360,493,o),
(451,442,o),
(451,292,cs),
(451,252,ls),
(451,92,o),
(369,35,o),
(275,35,cs)
);
}
);
width = 588;
}
);
note = gbreve;
unicode = 287;
},
{
glyphname = gcommaaccent;
kernLeft = c;
layers = (
{
hints = (
{
horizontal = 1;
place = (-214, 49);
place = (-214, 49);
type = Stem;
},
{
horizontal = 1;
place = (-14, 49);
place = (-14, 49);
type = Stem;
},
{
horizontal = 1;
place = (493, 50);
place = (493, 50);
type = Stem;
},
{
horizontal = 1;
place = (581, 136);
place = (581, 136);
type = Stem;
},
{
place = (30, 68);
place = (30, 68);
type = Stem;
},
{
place = (451, 62);
place = (451, 62);
type = Stem;
},
{
horizontal = 1;
place = (530, -20);
target = down;
type = TopGhost;
},
{
place = (50, 62);
place = (50, 62);
type = Stem;
}
);
layerId = m01;
shapes = (
{
closed = 1;
nodes = (
(314,581,l),
(363,717,l),
(318,717,l),
(262,590,l),
(262,581,l)
);
},
{
closed = 1;
nodes = (
(513,530,l),
(451,530,l),
(451,438,l),
(418,495,l),
(385,527,o),
(334,543,o),
(282,543,cs),
(148,543,o),
(30,450,o),
(30,258,cs),
(30,101,o),
(118,-14,o),
(266,-14,cs),
(327,-14,o),
(379,3,o),
(416,40,c),
(451,98,l),
(451,85,ls),
(451,57,o),
(451,36,o),
(450,7,cs),
(446,-98,o),
(386,-165,o),
(274,-165,cs),
(185,-165,o),
(122,-123,o),
(113,-45,cs),
(111,-33,l),
(49,-33,l),
(50,-45,ls),
(63,-160,o),
(143,-214,o),
(274,-214,cs),
(419,-214,o),
(507,-131,o),
(512,10,cs),
(513,41,o),
(513,82,o),
(513,134,cs)
);
},
{
closed = 1;
nodes = (
(159,35,o),
(98,139,o),
(98,266,cs),
(98,409,o),
(176,493,o),
(282,493,cs),
(360,493,o),
(451,442,o),
(451,292,cs),
(451,252,ls),
(451,92,o),
(369,35,o),
(275,35,cs)
);
}
);
width = 588;
}
);
note = gcommaaccent;
unicode = 291;
},
{
glyphname = gdotaccent;
kernLeft = c;
layers = (
{
hints = (
{
horizontal = 1;
place = (-214, 49);
place = (-214, 49);
type = Stem;
},
{
horizontal = 1;
place = (-14, 49);
place = (-14, 49);
type = Stem;
},
{
horizontal = 1;
place = (493, 50);
place = (493, 50);
type = Stem;
},
{
horizontal = 1;
place = (601, 84);
place = (601, 84);
type = Stem;
},
{
place = (30, 68);
place = (30, 68);
type = Stem;
},
{
place = (248, 84);
place = (248, 84);
type = Stem;
},
{
place = (451, 62);
place = (451, 62);
type = Stem;
},
{
horizontal = 1;
place = (530, -20);
target = down;
type = TopGhost;
},
{
place = (50, 62);
place = (50, 62);
type = Stem;
}
);
layerId = m01;
shapes = (
{
closed = 1;
nodes = (
(314,601,o),
(332,620,o),
(332,643,cs),
(332,667,o),
(314,685,o),
(290,685,cs),
(267,685,o),
(248,667,o),
(248,643,cs),
(248,620,o),
(267,601,o),
(290,601,cs)
);
},
{
closed = 1;
nodes = (
(513,530,l),
(451,530,l),
(451,438,l),
(418,495,l),
(385,527,o),
(334,543,o),
(282,543,cs),
(148,543,o),
(30,450,o),
(30,258,cs),
(30,101,o),
(118,-14,o),
(266,-14,cs),
(327,-14,o),
(379,3,o),
(416,40,c),
(451,98,l),
(451,85,ls),
(451,57,o),
(451,36,o),
(450,7,cs),
(446,-98,o),
(386,-165,o),
(274,-165,cs),
(185,-165,o),
(122,-123,o),
(113,-45,cs),
(111,-33,l),
(49,-33,l),
(50,-45,ls),
(63,-160,o),
(143,-214,o),
(274,-214,cs),
(419,-214,o),
(507,-131,o),
(512,10,cs),
(513,41,o),
(513,82,o),
(513,134,cs)
);
},
{
closed = 1;
nodes = (
(159,35,o),
(98,139,o),
(98,266,cs),
(98,409,o),
(176,493,o),
(282,493,cs),
(360,493,o),
(451,442,o),
(451,292,cs),
(451,252,ls),
(451,92,o),
(369,35,o),
(275,35,cs)
);
}
);
width = 588;
}
);
note = gdotaccent;
unicode = 289;
},
{
glyphname = h;
kernLeft = b;
layers = (
{
hints = (
{
horizontal = 1;
place = (0, 21);
target = up;
type = BottomGhost;
},
{
horizontal = 1;
place = (492, 51);
place = (492, 51);
type = Stem;
},
{
horizontal = 1;
place = (740, -20);
target = down;
type = TopGhost;
},
{
place = (73, 62);
place = (73, 62);
type = Stem;
},
{
place = (438, 62);
place = (438, 62);
type = Stem;
}
);
layerId = m01;
shapes = (
{
closed = 1;
nodes = (
(488,482,o),
(424,543,o),
(312,543,cs),
(253,543,o),
(206,527,o),
(163,484,c),
(135,427,l),
(135,740,l),
(73,740,l),
(73,0,l),
(135,0,l),
(135,263,ls),
(135,428,o),
(212,491,o),
(300,492,cs),
(389,493,o),
(429,441,o),
(436,369,cs),
(438,342,o),
(438,319,o),
(438,289,cs),
(438,0,l),
(500,0,l),
(500,296,ls),
(500,339,o),
(500,358,o),
(498,385,cs)
);
}
);
width = 569;
}
);
note = h;
unicode = 104;
},
{
glyphname = hbar;
layers = (
{
hints = (
{
horizontal = 1;
place = (0, 21);
target = up;
type = BottomGhost;
},
{
horizontal = 1;
place = (492, 51);
place = (492, 51);
type = Stem;
},
{
horizontal = 1;
place = (602, 138);
place = (602, 138);
type = Stem;
},
{
place = (87, 62);
place = (87, 62);
type = Stem;
},
{
place = (452, 62);
place = (452, 62);
type = Stem;
},
{
horizontal = 1;
place = (602, 43);
place = (602, 43);
type = Stem;
}
);
layerId = m01;
shapes = (
{
closed = 1;
nodes = (
(502,482,o),
(438,543,o),
(325,543,cs),
(267,543,o),
(220,527,o),
(177,484,c),
(149,427,l),
(149,602,l),
(255,602,l),
(255,645,l),
(149,645,l),
(149,740,l),
(87,740,l),
(87,645,l),
(33,645,l),
(33,602,l),
(87,602,l),
(87,0,l),
(149,0,l),
(149,263,ls),
(149,428,o),
(226,491,o),
(314,492,cs),
(403,493,o),
(442,441,o),
(449,369,cs),
(452,342,o),
(452,319,o),
(452,289,cs),
(452,0,l),
(514,0,l),
(514,296,ls),
(514,339,o),
(514,358,o),
(511,385,cs)
);
}
);
width = 583;
}
);
note = hbar;
unicode = 295;
},
{
glyphname = i;
lastChange = "2022-11-29 09:54:51 +0000";
layers = (
{
hints = (
{
horizontal = 1;
place = (0, 21);
target = up;
type = BottomGhost;
},
{
horizontal = 1;
place = (529, -20);
target = down;
type = TopGhost;
},
{
horizontal = 1;
place = (601, 84);
place = (601, 84);
type = Stem;
},
{
place = (62, 84);
place = (62, 84);
type = Stem;
},
{
place = (73, 62);
place = (73, 62);
type = Stem;
}
);
layerId = m01;
shapes = (
{
closed = 1;
nodes = (
(135,0,l),
(135,529,l),
(73,529,l),
(73,0,l)
);
},
{
closed = 1;
nodes = (
(68,605,l),
(140,605,l),
(140,677,l),
(68,677,l)
);
}
);
width = 210;
}
);
note = i;
unicode = 105;
},
{
glyphname = dotlessi;
layers = (
{
hints = (
{
horizontal = 1;
place = (0, 21);
target = up;
type = BottomGhost;
},
{
horizontal = 1;
place = (529, -20);
target = down;
type = TopGhost;
},
{
place = (73, 62);
place = (73, 62);
type = Stem;
}
);
layerId = m01;
shapes = (
{
closed = 1;
nodes = (
(135,0,l),
(135,529,l),
(73,529,l),
(73,0,l)
);
}
);
width = 210;
}
);
note = dotlessi;
unicode = 305;
},
{
glyphname = iacute;
layers = (
{
hints = (
{
horizontal = 1;
place = (0, 21);
target = up;
type = BottomGhost;
},
{
horizontal = 1;
place = (529, -20);
target = down;
type = TopGhost;
},
{
horizontal = 1;
place = (580, 110);
place = (580, 110);
type = Stem;
},
{
place = (73, 62);
place = (73, 62);
type = Stem;
}
);
layerId = m01;
shapes = (
{
closed = 1;
nodes = (
(120,580,l),
(199,690,l),
(139,690,l),
(78,580,l)
);
},
{
closed = 1;
nodes = (
(135,0,l),
(135,529,l),
(73,529,l),
(73,0,l)
);
}
);
width = 210;
}
);
note = iacute;
unicode = 237;
},
{
glyphname = icircumflex;
layers = (
{
hints = (
{
horizontal = 1;
place = (0, 21);
target = up;
type = BottomGhost;
},
{
horizontal = 1;
place = (529, -20);
target = down;
type = TopGhost;
},
{
horizontal = 1;
place = (580, 110);
place = (580, 110);
type = Stem;
},
{
place = (73, 62);
place = (73, 62);
type = Stem;
},
{
horizontal = 1;
place = (655, 35);
place = (655, 35);
type = Stem;
}
);
layerId = m01;
shapes = (
{
closed = 1;
nodes = (
(194,580,l),
(127,690,l),
(82,690,l),
(16,580,l),
(64,580,l),
(104,655,l),
(145,580,l)
);
},
{
closed = 1;
nodes = (
(73,529,l),
(73,0,l),
(135,0,l),
(135,529,l)
);
}
);
width = 210;
}
);
note = icircumflex;
unicode = 238;
},
{
glyphname = idieresis;
lastChange = "2022-11-29 09:53:30 +0000";
layers = (
{
hints = (
{
horizontal = 1;
place = (0, 21);
target = up;
type = BottomGhost;
},
{
horizontal = 1;
place = (529, -20);
target = down;
type = TopGhost;
},
{
horizontal = 1;
place = (594, 73);
place = (594, 73);
type = Stem;
},
{
place = (7, 73);
place = (7, 73);
type = Stem;
},
{
place = (128, 73);
place = (128, 73);
type = Stem;
},
{
place = (73, 62);
place = (73, 62);
type = Stem;
}
);
layerId = m01;
shapes = (
{
closed = 1;
nodes = (
(135,0,l),
(135,529,l),
(73,529,l),
(73,0,l)
);
},
{
closed = 1;
nodes = (
(10,598,l),
(82,598,l),
(82,670,l),
(10,670,l)
);
},
{
closed = 1;
nodes = (
(124,598,l),
(196,598,l),
(196,670,l),
(124,670,l)
);
}
);
width = 210;
}
);
note = idieresis;
unicode = 239;
},
{
glyphname = igrave;
layers = (
{
hints = (
{
horizontal = 1;
place = (0, 21);
target = up;
type = BottomGhost;
},
{
horizontal = 1;
place = (529, -20);
target = down;
type = TopGhost;
},
{
horizontal = 1;
place = (580, 110);
place = (580, 110);
type = Stem;
},
{
place = (73, 62);
place = (73, 62);
type = Stem;
}
);
layerId = m01;
shapes = (
{
closed = 1;
nodes = (
(123,580,l),
(62,690,l),
(1,690,l),
(80,580,l)
);
},
{
closed = 1;
nodes = (
(135,0,l),
(135,529,l),
(73,529,l),
(73,0,l)
);
}
);
width = 210;
}
);
note = igrave;
unicode = 236;
},
{
glyphname = ij;
lastChange = "2022-11-29 09:55:10 +0000";
layers = (
{
hints = (
{
horizontal = 1;
place = (-210, 54);
place = (-210, 54);
type = Stem;
},
{
horizontal = 1;
place = (0, 21);
target = up;
type = BottomGhost;
},
{
horizontal = 1;
place = (529, -20);
target = down;
type = TopGhost;
},
{
horizontal = 1;
place = (601, 84);
place = (601, 84);
type = Stem;
},
{
place = (62, 84);
place = (62, 84);
type = Stem;
},
{
place = (266, 84);
place = (266, 84);
type = Stem;
},
{
place = (73, 62);
place = (73, 62);
type = Stem;
},
{
place = (277, 62);
place = (277, 62);
type = Stem;
}
);
layerId = m01;
shapes = (
{
closed = 1;
nodes = (
(135,0,l),
(135,529,l),
(73,529,l),
(73,0,l)
);
},
{
closed = 1;
nodes = (
(339,529,l),
(277,529,l),
(277,-63,ls),
(277,-78,o),
(277,-91,o),
(276,-105,cs),
(272,-149,o),
(245,-163,o),
(190,-156,c),
(190,-207,l),
(203,-210,o),
(215,-210,o),
(229,-210,cs),
(296,-210,o),
(331,-178,o),
(337,-116,cs),
(339,-98,o),
(339,-76,o),
(339,-56,cs)
);
},
{
closed = 1;
nodes = (
(69,607,l),
(141,607,l),
(141,679,l),
(69,679,l)
);
},
{
closed = 1;
nodes = (
(272,607,l),
(344,607,l),
(344,679,l),
(272,679,l)
);
}
);
width = 414;
}
);
note = ij;
unicode = 307;
},
{
glyphname = imacron;
layers = (
{
hints = (
{
horizontal = 1;
place = (0, 21);
target = up;
type = BottomGhost;
},
{
horizontal = 1;
place = (529, -20);
target = down;
type = TopGhost;
},
{
horizontal = 1;
place = (610, 40);
place = (610, 40);
type = Stem;
},
{
place = (73, 62);
place = (73, 62);
type = Stem;
}
);
layerId = m01;
shapes = (
{
closed = 1;
nodes = (
(205,610,l),
(205,650,l),
(3,650,l),
(3,610,l)
);
},
{
closed = 1;
nodes = (
(135,0,l),
(135,529,l),
(73,529,l),
(73,0,l)
);
}
);
width = 210;
}
);
note = imacron;
unicode = 299;
},
{
glyphname = iogonek;
layers = (
{
hints = (
{
horizontal = 1;
place = (-223, 41);
place = (-223, 41);
type = Stem;
},
{
horizontal = 1;
place = (0, 21);
target = up;
type = BottomGhost;
},
{
horizontal = 1;
place = (529, -20);
target = down;
type = TopGhost;
},
{
horizontal = 1;
place = (601, 84);
place = (601, 84);
type = Stem;
},
{
place = (-47, 60);
place = (-47, 60);
type = Stem;
},
{
place = (62, 84);
place = (62, 84);
type = Stem;
},
{
place = (73, 62);
place = (73, 62);
type = Stem;
}
);
layerId = m01;
shapes = (
{
closed = 1;
nodes = (
(128,601,o),
(146,620,o),
(146,643,cs),
(146,667,o),
(128,685,o),
(104,685,cs),
(81,685,o),
(62,667,o),
(62,643,cs),
(62,620,o),
(81,601,o),
(104,601,cs)
);
},
{
closed = 1;
nodes = (
(73,529,l),
(73,12,l),
(7,-11,o),
(-47,-69,o),
(-47,-144,cs),
(-47,-204,o),
(-11,-223,o),
(35,-223,cs),
(67,-223,o),
(94,-215,o),
(117,-197,c),
(117,-158,l),
(97,-175,o),
(79,-182,o),
(58,-182,cs),
(29,-182,o),
(13,-168,o),
(13,-131,cs),
(13,-67,o),
(58,-13,o),
(117,0,c),
(135,0,l),
(135,529,l)
);
}
);
width = 210;
}
);
note = iogonek;
unicode = 303;
},
{
glyphname = j;
lastChange = "2022-11-29 13:59:44 +0000";
layers = (
{
hints = (
{
horizontal = 1;
place = (-210, 54);
place = (-210, 54);
type = Stem;
},
{
horizontal = 1;
place = (529, -20);
target = down;
type = TopGhost;
},
{
horizontal = 1;
place = (601, 84);
place = (601, 84);
type = Stem;
},
{
place = (56, 84);
place = (56, 84);
type = Stem;
},
{
place = (67, 62);
place = (67, 62);
type = Stem;
}
);
layerId = m01;
shapes = (
{
closed = 1;
nodes = (
(129,529,l),
(67,529,l),
(67,-63,ls),
(67,-78,o),
(67,-91,o),
(66,-105,cs),
(62,-149,o),
(35,-163,o),
(-20,-156,c),
(-20,-207,l),
(-7,-210,o),
(5,-210,o),
(19,-210,cs),
(86,-210,o),
(121,-178,o),
(127,-116,cs),
(129,-98,o),
(129,-76,o),
(129,-56,cs)
);
},
{
closed = 1;
nodes = (
(62,607,l),
(134,607,l),
(134,679,l),
(62,679,l)
);
}
);
width = 204;
}
);
note = j;
unicode = 106;
},
{
glyphname = k;
kernLeft = b;
kernRight = k;
layers = (
{
hints = (
{
horizontal = 1;
place = (0, 21);
target = up;
type = BottomGhost;
},
{
horizontal = 1;
place = (529, -20);
target = down;
type = TopGhost;
},
{
horizontal = 1;
place = (735, -20);
target = down;
type = TopGhost;
},
{
place = (73, 62);
place = (73, 62);
type = Stem;
}
);
layerId = m01;
shapes = (
{
closed = 1;
nodes = (
(403,0,l),
(489,0,l),
(228,276,l),
(487,529,l),
(406,529,l),
(135,254,l),
(135,735,l),
(73,735,l),
(73,0,l),
(135,0,l),
(135,186,l),
(183,237,l)
);
}
);
width = 498;
}
);
note = k;
unicode = 107;
},
{
glyphname = kcommaaccent;
kernLeft = b;
kernRight = k;
layers = (
{
hints = (
{
horizontal = 1;
place = (-187, 136);
place = (-187, 136);
type = Stem;
},
{
horizontal = 1;
place = (0, 21);
target = up;
type = BottomGhost;
},
{
horizontal = 1;
place = (529, -20);
target = down;
type = TopGhost;
},
{
horizontal = 1;
place = (735, -20);
target = down;
type = TopGhost;
},
{
place = (73, 62);
place = (73, 62);
type = Stem;
}
);
layerId = m01;
shapes = (
{
closed = 1;
nodes = (
(489,0,l),
(228,276,l),
(487,529,l),
(406,529,l),
(135,254,l),
(135,735,l),
(73,735,l),
(73,0,l),
(135,0,l),
(135,186,l),
(183,237,l),
(403,0,l)
);
},
{
closed = 1;
nodes = (
(233,-51,l),
(184,-187,l),
(230,-187,l),
(285,-60,l),
(285,-51,l)
);
}
);
width = 498;
}
);
note = kcommaaccent;
unicode = 311;
},
{
glyphname = l;
kernRight = l;
layers = (
{
hints = (
{
horizontal = 1;
place = (-4, 49);
place = (-4, 49);
type = Stem;
},
{
horizontal = 1;
place = (735, -20);
target = down;
type = TopGhost;
},
{
place = (69, 62);
place = (69, 62);
type = Stem;
}
);
layerId = m01;
shapes = (
{
closed = 1;
nodes = (
(131,735,l),
(69,735,l),
(69,138,ls),
(69,106,o),
(69,85,o),
(70,67,cs),
(73,10,o),
(104,-4,o),
(145,-4,cs),
(161,-4,o),
(178,-4,o),
(194,-1,c),
(194,45,l),
(149,40,o),
(134,49,o),
(132,83,cs),
(131,99,o),
(131,117,o),
(131,140,cs)
);
}
);
width = 219;
}
);
note = l;
unicode = 108;
},
{
glyphname = lacute;
kernRight = l;
layers = (
{
hints = (
{
horizontal = 1;
place = (-4, 49);
place = (-4, 49);
type = Stem;
},
{
horizontal = 1;
place = (735, -20);
target = down;
type = TopGhost;
},
{
horizontal = 1;
place = (785, 110);
place = (785, 110);
type = Stem;
},
{
place = (69, 62);
place = (69, 62);
type = Stem;
}
);
layerId = m01;
shapes = (
{
closed = 1;
nodes = (
(116,785,l),
(195,895,l),
(135,895,l),
(74,785,l)
);
},
{
closed = 1;
nodes = (
(131,735,l),
(69,735,l),
(69,138,ls),
(69,106,o),
(69,85,o),
(70,67,cs),
(73,10,o),
(104,-4,o),
(145,-4,cs),
(161,-4,o),
(178,-4,o),
(194,-1,c),
(194,45,l),
(149,40,o),
(134,49,o),
(132,83,cs),
(131,99,o),
(131,117,o),
(131,140,cs)
);
}
);
width = 219;
}
);
note = lacute;
unicode = 314;
},
{
glyphname = lcaron;
kernRight = l;
layers = (
{
hints = (
{
horizontal = 1;
place = (-4, 49);
place = (-4, 49);
type = Stem;
},
{
horizontal = 1;
place = (735, -20);
target = down;
type = TopGhost;
},
{
place = (69, 62);
place = (69, 62);
type = Stem;
}
);
layerId = m01;
shapes = (
{
closed = 1;
nodes = (
(131,735,l),
(69,735,l),
(69,138,ls),
(69,106,o),
(69,85,o),
(70,67,cs),
(73,10,o),
(104,-4,o),
(145,-4,cs),
(161,-4,o),
(178,-4,o),
(194,-1,c),
(194,45,l),
(149,40,o),
(134,49,o),
(132,83,cs),
(131,99,o),
(131,117,o),
(131,140,cs)
);
}
);
width = 219;
}
);
note = lcaron;
unicode = 318;
},
{
glyphname = lcommaaccent;
kernRight = l;
layers = (
{
hints = (
{
horizontal = 1;
place = (-187, 136);
place = (-187, 136);
type = Stem;
},
{
horizontal = 1;
place = (-4, 49);
place = (-4, 49);
type = Stem;
},
{
horizontal = 1;
place = (735, -20);
target = down;
type = TopGhost;
},
{
place = (69, 62);
place = (69, 62);
type = Stem;
}
);
layerId = m01;
shapes = (
{
closed = 1;
nodes = (
(131,735,l),
(69,735,l),
(69,138,ls),
(69,106,o),
(69,85,o),
(70,67,cs),
(73,10,o),
(104,-4,o),
(145,-4,cs),
(161,-4,o),
(178,-4,o),
(194,-1,c),
(194,45,l),
(149,40,o),
(134,49,o),
(132,83,cs),
(131,99,o),
(131,117,o),
(131,140,cs)
);
},
{
closed = 1;
nodes = (
(147,-60,l),
(147,-51,l),
(95,-51,l),
(46,-187,l),
(92,-187,l)
);
}
);
width = 219;
}
);
note = lcommaaccent;
unicode = 316;
},
{
glyphname = ldot;
kernRight = l;
layers = (
{
hints = (
{
horizontal = 1;
place = (-4, 49);
place = (-4, 49);
type = Stem;
},
{
horizontal = 1;
place = (358, 84);
place = (358, 84);
type = Stem;
},
{
horizontal = 1;
place = (735, -20);
target = down;
type = TopGhost;
},
{
place = (69, 62);
place = (69, 62);
type = Stem;
},
{
place = (193, 83);
place = (193, 83);
type = Stem;
}
);
layerId = m01;
shapes = (
{
closed = 1;
nodes = (
(131,735,l),
(69,735,l),
(69,138,ls),
(69,106,o),
(69,85,o),
(70,67,cs),
(73,10,o),
(104,-4,o),
(145,-4,cs),
(161,-4,o),
(178,-4,o),
(194,-1,c),
(194,45,l),
(149,40,o),
(134,49,o),
(132,83,cs),
(131,99,o),
(131,117,o),
(131,140,cs)
);
},
{
closed = 1;
nodes = (
(211,442,o),
(193,424,o),
(193,400,cs),
(193,377,o),
(211,358,o),
(235,358,cs),
(258,358,o),
(276,377,o),
(276,400,cs),
(276,424,o),
(258,442,o),
(235,442,cs)
);
}
);
width = 286;
}
);
note = ldot;
unicode = 320;
},
{
glyphname = lslash;
layers = (
{
hints = (
{
horizontal = 1;
place = (-4, 49);
place = (-4, 49);
type = Stem;
},
{
horizontal = 1;
place = (735, -20);
target = down;
type = TopGhost;
},
{
place = (93, 62);
place = (93, 62);
type = Stem;
}
);
layerId = m01;
shapes = (
{
closed = 1;
nodes = (
(155,99,o),
(155,117,o),
(155,140,cs),
(155,316,l),
(217,355,l),
(217,407,l),
(155,368,l),
(155,735,l),
(93,735,l),
(93,329,l),
(31,290,l),
(31,238,l),
(93,277,l),
(93,138,ls),
(93,106,o),
(93,85,o),
(94,67,cs),
(97,10,o),
(128,-4,o),
(169,-4,cs),
(185,-4,o),
(202,-4,o),
(218,-1,c),
(218,45,l),
(173,40,o),
(158,49,o),
(156,83,cs)
);
}
);
width = 253;
}
);
note = lslash;
unicode = 322;
},
{
glyphname = m;
kernLeft = m;
layers = (
{
hints = (
{
horizontal = 1;
place = (0, 21);
target = up;
type = BottomGhost;
},
{
horizontal = 1;
place = (493, 50);
place = (493, 50);
type = Stem;
},
{
place = (73, 62);
place = (73, 62);
type = Stem;
},
{
place = (390, 62);
place = (390, 62);
type = Stem;
},
{
place = (707, 62);
place = (707, 62);
type = Stem;
},
{
horizontal = 1;
place = (529, -20);
target = down;
type = TopGhost;
}
);
layerId = m01;
shapes = (
{
closed = 1;
nodes = (
(752,485,o),
(699,543,o),
(604,543,cs),
(554,543,o),
(512,529,o),
(482,497,c),
(441,430,l),
(423,498,o),
(371,543,o),
(287,543,cs),
(237,543,o),
(196,529,o),
(165,497,c),
(135,438,l),
(135,529,l),
(73,529,l),
(73,0,l),
(135,0,l),
(135,277,ls),
(135,434,o),
(193,493,o),
(268,493,cs),
(338,493,o),
(377,452,o),
(386,381,cs),
(389,354,o),
(390,327,o),
(390,284,cs),
(390,0,l),
(452,0,l),
(452,277,ls),
(452,434,o),
(510,493,o),
(585,493,cs),
(655,493,o),
(694,452,o),
(703,381,cs),
(706,354,o),
(707,327,o),
(707,284,cs),
(707,0,l),
(769,0,l),
(769,312,ls),
(769,355,o),
(768,374,o),
(764,401,cs)
);
}
);
width = 838;
}
);
note = m;
unicode = 109;
},
{
glyphname = n;
kernLeft = m;
layers = (
{
hints = (
{
horizontal = 1;
place = (0, 21);
target = up;
type = BottomGhost;
},
{
horizontal = 1;
place = (492, 51);
place = (492, 51);
type = Stem;
},
{
place = (73, 62);
place = (73, 62);
type = Stem;
},
{
place = (438, 62);
place = (438, 62);
type = Stem;
},
{
horizontal = 1;
place = (529, -20);
target = down;
type = TopGhost;
}
);
layerId = m01;
shapes = (
{
closed = 1;
nodes = (
(488,482,o),
(424,543,o),
(312,543,cs),
(253,543,o),
(206,527,o),
(163,484,c),
(135,427,l),
(135,529,l),
(73,529,l),
(73,0,l),
(135,0,l),
(135,263,ls),
(135,428,o),
(212,492,o),
(300,492,cs),
(389,492,o),
(429,441,o),
(436,369,cs),
(438,342,o),
(438,319,o),
(438,289,cs),
(438,0,l),
(500,0,l),
(500,296,ls),
(500,339,o),
(500,358,o),
(498,385,cs)
);
}
);
width = 569;
}
);
note = n;
unicode = 110;
},
{
glyphname = nacute;
kernLeft = m;
layers = (
{
hints = (
{
horizontal = 1;
place = (0, 21);
target = up;
type = BottomGhost;
},
{
horizontal = 1;
place = (492, 51);
place = (492, 51);
type = Stem;
},
{
horizontal = 1;
place = (580, 110);
place = (580, 110);
type = Stem;
},
{
place = (73, 62);
place = (73, 62);
type = Stem;
},
{
place = (438, 62);
place = (438, 62);
type = Stem;
},
{
horizontal = 1;
place = (529, -20);
target = down;
type = TopGhost;
}
);
layerId = m01;
shapes = (
{
closed = 1;
nodes = (
(305,580,l),
(384,690,l),
(324,690,l),
(263,580,l)
);
},
{
closed = 1;
nodes = (
(488,482,o),
(424,543,o),
(312,543,cs),
(253,543,o),
(206,527,o),
(163,484,c),
(135,427,l),
(135,529,l),
(73,529,l),
(73,0,l),
(135,0,l),
(135,263,ls),
(135,428,o),
(212,492,o),
(300,492,cs),
(389,492,o),
(429,441,o),
(436,369,cs),
(438,342,o),
(438,319,o),
(438,289,cs),
(438,0,l),
(500,0,l),
(500,296,ls),
(500,339,o),
(500,358,o),
(498,385,cs)
);
}
);
width = 569;
}
);
note = nacute;
unicode = 324;
},
{
glyphname = ncaron;
kernLeft = m;
layers = (
{
hints = (
{
horizontal = 1;
place = (0, 21);
target = up;
type = BottomGhost;
},
{
horizontal = 1;
place = (492, 51);
place = (492, 51);
type = Stem;
},
{
horizontal = 1;
place = (580, 110);
place = (580, 110);
type = Stem;
},
{
place = (73, 62);
place = (73, 62);
type = Stem;
},
{
place = (438, 62);
place = (438, 62);
type = Stem;
},
{
horizontal = 1;
place = (529, -20);
target = down;
type = TopGhost;
}
);
layerId = m01;
shapes = (
{
closed = 1;
nodes = (
(267,580,l),
(312,580,l),
(379,690,l),
(331,690,l),
(290,615,l),
(250,690,l),
(201,690,l)
);
},
{
closed = 1;
nodes = (
(488,482,o),
(424,543,o),
(312,543,cs),
(253,543,o),
(206,527,o),
(163,484,c),
(135,427,l),
(135,529,l),
(73,529,l),
(73,0,l),
(135,0,l),
(135,263,ls),
(135,428,o),
(212,492,o),
(300,492,cs),
(389,492,o),
(429,441,o),
(436,369,cs),
(438,342,o),
(438,319,o),
(438,289,cs),
(438,0,l),
(500,0,l),
(500,296,ls),
(500,339,o),
(500,358,o),
(498,385,cs)
);
}
);
width = 569;
}
);
note = ncaron;
unicode = 328;
},
{
glyphname = ncommaaccent;
kernLeft = m;
layers = (
{
hints = (
{
horizontal = 1;
place = (-187, 136);
place = (-187, 136);
type = Stem;
},
{
horizontal = 1;
place = (0, 21);
target = up;
type = BottomGhost;
},
{
horizontal = 1;
place = (492, 51);
place = (492, 51);
type = Stem;
},
{
place = (73, 62);
place = (73, 62);
type = Stem;
},
{
place = (438, 62);
place = (438, 62);
type = Stem;
},
{
horizontal = 1;
place = (529, -20);
target = down;
type = TopGhost;
}
);
layerId = m01;
shapes = (
{
closed = 1;
nodes = (
(488,482,o),
(424,543,o),
(312,543,cs),
(253,543,o),
(206,527,o),
(163,484,c),
(135,427,l),
(135,529,l),
(73,529,l),
(73,0,l),
(135,0,l),
(135,263,ls),
(135,428,o),
(212,492,o),
(300,492,cs),
(389,492,o),
(429,441,o),
(436,369,cs),
(438,342,o),
(438,319,o),
(438,289,cs),
(438,0,l),
(500,0,l),
(500,296,ls),
(500,339,o),
(500,358,o),
(498,385,cs)
);
},
{
closed = 1;
nodes = (
(260,-51,l),
(211,-187,l),
(257,-187,l),
(312,-60,l),
(312,-51,l)
);
}
);
width = 569;
}
);
note = ncommaaccent;
unicode = 326;
},
{
glyphname = eng;
kernLeft = m;
layers = (
{
hints = (
{
horizontal = 1;
place = (-210, 52);
place = (-210, 52);
type = Stem;
},
{
horizontal = 1;
place = (0, 21);
target = up;
type = BottomGhost;
},
{
horizontal = 1;
place = (492, 51);
place = (492, 51);
type = Stem;
},
{
place = (73, 62);
place = (73, 62);
type = Stem;
},
{
place = (438, 62);
place = (438, 62);
type = Stem;
},
{
horizontal = 1;
place = (529, -20);
target = down;
type = TopGhost;
}
);
layerId = m01;
shapes = (
{
closed = 1;
nodes = (
(488,482,o),
(424,543,o),
(312,543,cs),
(253,543,o),
(206,527,o),
(163,484,c),
(135,427,l),
(135,529,l),
(73,529,l),
(73,0,l),
(135,0,l),
(135,263,ls),
(135,428,o),
(212,492,o),
(300,492,cs),
(389,492,o),
(429,441,o),
(436,369,cs),
(438,342,o),
(438,319,o),
(438,289,cs),
(438,-59,ls),
(438,-71,o),
(438,-81,o),
(437,-92,cs),
(433,-144,o),
(403,-158,o),
(344,-158,c),
(344,-210,l),
(438,-210,o),
(493,-184,o),
(499,-95,cs),
(500,-81,o),
(500,-72,o),
(500,-54,cs),
(500,296,ls),
(500,339,o),
(500,358,o),
(498,385,cs)
);
}
);
width = 569;
}
);
note = eng;
unicode = 331;
},
{
glyphname = ntilde;
kernLeft = m;
layers = (
{
hints = (
{
horizontal = 1;
place = (0, 21);
target = up;
type = BottomGhost;
},
{
horizontal = 1;
place = (492, 51);
place = (492, 51);
type = Stem;
},
{
horizontal = 1;
place = (632, 39);
place = (632, 39);
type = Stem;
},
{
place = (73, 62);
place = (73, 62);
type = Stem;
},
{
place = (190, 31);
place = (190, 31);
type = Stem;
},
{
place = (438, 62);
place = (438, 62);
type = Stem;
},
{
horizontal = 1;
place = (607, 40);
place = (607, 40);
type = Stem;
},
{
place = (357, 31);
place = (357, 31);
type = Stem;
},
{
horizontal = 1;
place = (529, -20);
target = down;
type = TopGhost;
}
);
layerId = m01;
shapes = (
{
closed = 1;
nodes = (
(246,632,o),
(258,628,o),
(282,620,cs),
(309,611,o),
(324,607,o),
(342,607,cs),
(371,607,o),
(388,622,o),
(388,667,c),
(357,667,l),
(357,652,o),
(351,647,o),
(341,647,cs),
(332,647,o),
(320,650,o),
(296,658,cs),
(269,667,o),
(254,671,o),
(236,671,cs),
(207,671,o),
(190,656,o),
(190,611,c),
(221,611,l),
(221,626,o),
(227,632,o),
(237,632,cs)
);
},
{
closed = 1;
nodes = (
(488,482,o),
(424,543,o),
(312,543,cs),
(253,543,o),
(206,527,o),
(163,484,c),
(135,427,l),
(135,529,l),
(73,529,l),
(73,0,l),
(135,0,l),
(135,263,ls),
(135,428,o),
(212,492,o),
(300,492,cs),
(389,492,o),
(429,441,o),
(436,369,cs),
(438,342,o),
(438,319,o),
(438,289,cs),
(438,0,l),
(500,0,l),
(500,296,ls),
(500,339,o),
(500,358,o),
(498,385,cs)
);
}
);
width = 569;
}
);
note = ntilde;
unicode = 241;
},
{
glyphname = o;
kernLeft = c;
kernRight = b;
layers = (
{
hints = (
{
horizontal = 1;
place = (-14, 49);
place = (-14, 49);
type = Stem;
},
{
horizontal = 1;
place = (493, 50);
place = (493, 50);
type = Stem;
},
{
place = (30, 68);
place = (30, 68);
type = Stem;
},
{
place = (476, 68);
place = (476, 68);
type = Stem;
}
);
layerId = m01;
shapes = (
{
closed = 1;
nodes = (
(119,543,o),
(30,420,o),
(30,264,cs),
(30,109,o),
(119,-14,o),
(287,-14,cs),
(455,-14,o),
(544,109,o),
(544,264,cs),
(544,420,o),
(455,543,o),
(287,543,cs)
);
},
{
closed = 1;
nodes = (
(177,35,o),
(98,120,o),
(98,264,cs),
(98,408,o),
(177,493,o),
(287,493,cs),
(397,493,o),
(476,408,o),
(476,264,cs),
(476,120,o),
(397,35,o),
(287,35,cs)
);
}
);
width = 574;
}
);
note = o;
unicode = 111;
},
{
glyphname = oacute;
kernLeft = c;
kernRight = b;
layers = (
{
hints = (
{
horizontal = 1;
place = (-14, 49);
place = (-14, 49);
type = Stem;
},
{
horizontal = 1;
place = (493, 50);
place = (493, 50);
type = Stem;
},
{
horizontal = 1;
place = (580, 110);
place = (580, 110);
type = Stem;
},
{
place = (30, 68);
place = (30, 68);
type = Stem;
},
{
place = (476, 68);
place = (476, 68);
type = Stem;
}
);
layerId = m01;
shapes = (
{
closed = 1;
nodes = (
(303,580,l),
(382,690,l),
(322,690,l),
(261,580,l)
);
},
{
closed = 1;
nodes = (
(119,543,o),
(30,420,o),
(30,264,cs),
(30,109,o),
(119,-14,o),
(287,-14,cs),
(455,-14,o),
(544,109,o),
(544,264,cs),
(544,420,o),
(455,543,o),
(287,543,cs)
);
},
{
closed = 1;
nodes = (
(177,35,o),
(98,120,o),
(98,264,cs),
(98,408,o),
(177,493,o),
(287,493,cs),
(397,493,o),
(476,408,o),
(476,264,cs),
(476,120,o),
(397,35,o),
(287,35,cs)
);
}
);
width = 574;
}
);
note = oacute;
unicode = 243;
},
{
glyphname = ocircumflex;
kernLeft = c;
kernRight = b;
layers = (
{
hints = (
{
horizontal = 1;
place = (-14, 49);
place = (-14, 49);
type = Stem;
},
{
horizontal = 1;
place = (493, 50);
place = (493, 50);
type = Stem;
},
{
horizontal = 1;
place = (580, 110);
place = (580, 110);
type = Stem;
},
{
place = (30, 68);
place = (30, 68);
type = Stem;
},
{
place = (476, 68);
place = (476, 68);
type = Stem;
},
{
horizontal = 1;
place = (655, 35);
place = (655, 35);
type = Stem;
}
);
layerId = m01;
shapes = (
{
closed = 1;
nodes = (
(247,580,l),
(287,655,l),
(328,580,l),
(377,580,l),
(310,690,l),
(265,690,l),
(199,580,l)
);
},
{
closed = 1;
nodes = (
(119,543,o),
(30,420,o),
(30,264,cs),
(30,109,o),
(119,-14,o),
(287,-14,cs),
(455,-14,o),
(544,109,o),
(544,264,cs),
(544,420,o),
(455,543,o),
(287,543,cs)
);
},
{
closed = 1;
nodes = (
(177,35,o),
(98,120,o),
(98,264,cs),
(98,408,o),
(177,493,o),
(287,493,cs),
(397,493,o),
(476,408,o),
(476,264,cs),
(476,120,o),
(397,35,o),
(287,35,cs)
);
}
);
width = 574;
}
);
note = ocircumflex;
unicode = 244;
},
{
glyphname = odieresis;
kernLeft = c;
kernRight = b;
lastChange = "2022-11-29 09:53:38 +0000";
layers = (
{
hints = (
{
horizontal = 1;
place = (-14, 49);
place = (-14, 49);
type = Stem;
},
{
horizontal = 1;
place = (493, 50);
place = (493, 50);
type = Stem;
},
{
horizontal = 1;
place = (594, 73);
place = (594, 73);
type = Stem;
},
{
place = (30, 68);
place = (30, 68);
type = Stem;
},
{
place = (190, 73);
place = (190, 73);
type = Stem;
},
{
place = (311, 73);
place = (311, 73);
type = Stem;
},
{
place = (476, 68);
place = (476, 68);
type = Stem;
}
);
layerId = m01;
shapes = (
{
closed = 1;
nodes = (
(119,543,o),
(30,420,o),
(30,264,cs),
(30,109,o),
(119,-14,o),
(287,-14,cs),
(455,-14,o),
(544,109,o),
(544,264,cs),
(544,420,o),
(455,543,o),
(287,543,cs)
);
},
{
closed = 1;
nodes = (
(177,35,o),
(98,120,o),
(98,264,cs),
(98,408,o),
(177,493,o),
(287,493,cs),
(397,493,o),
(476,408,o),
(476,264,cs),
(476,120,o),
(397,35,o),
(287,35,cs)
);
},
{
closed = 1;
nodes = (
(194,591,l),
(266,591,l),
(266,663,l),
(194,663,l)
);
},
{
closed = 1;
nodes = (
(308,591,l),
(380,591,l),
(380,663,l),
(308,663,l)
);
}
);
width = 574;
}
);
note = odieresis;
unicode = 246;
},
{
glyphname = ograve;
kernLeft = c;
kernRight = b;
layers = (
{
hints = (
{
horizontal = 1;
place = (-14, 49);
place = (-14, 49);
type = Stem;
},
{
horizontal = 1;
place = (493, 50);
place = (493, 50);
type = Stem;
},
{
horizontal = 1;
place = (580, 110);
place = (580, 110);
type = Stem;
},
{
place = (30, 68);
place = (30, 68);
type = Stem;
},
{
place = (476, 68);
place = (476, 68);
type = Stem;
}
);
layerId = m01;
shapes = (
{
closed = 1;
nodes = (
(271,580,l),
(314,580,l),
(253,690,l),
(192,690,l)
);
},
{
closed = 1;
nodes = (
(119,543,o),
(30,420,o),
(30,264,cs),
(30,109,o),
(119,-14,o),
(287,-14,cs),
(455,-14,o),
(544,109,o),
(544,264,cs),
(544,420,o),
(455,543,o),
(287,543,cs)
);
},
{
closed = 1;
nodes = (
(177,35,o),
(98,120,o),
(98,264,cs),
(98,408,o),
(177,493,o),
(287,493,cs),
(397,493,o),
(476,408,o),
(476,264,cs),
(476,120,o),
(397,35,o),
(287,35,cs)
);
}
);
width = 574;
}
);
note = ograve;
unicode = 242;
},
{
glyphname = ohungarumlaut;
kernLeft = c;
kernRight = b;
layers = (
{
hints = (
{
horizontal = 1;
place = (-14, 49);
place = (-14, 49);
type = Stem;
},
{
horizontal = 1;
place = (493, 50);
place = (493, 50);
type = Stem;
},
{
horizontal = 1;
place = (580, 110);
place = (580, 110);
type = Stem;
},
{
place = (30, 68);
place = (30, 68);
type = Stem;
},
{
place = (476, 68);
place = (476, 68);
type = Stem;
}
);
layerId = m01;
shapes = (
{
closed = 1;
nodes = (
(249,580,l),
(328,690,l),
(267,690,l),
(207,580,l)
);
},
{
closed = 1;
nodes = (
(321,580,l),
(363,580,l),
(442,690,l),
(381,690,l)
);
},
{
closed = 1;
nodes = (
(119,543,o),
(30,420,o),
(30,264,cs),
(30,109,o),
(119,-14,o),
(287,-14,cs),
(455,-14,o),
(544,109,o),
(544,264,cs),
(544,420,o),
(455,543,o),
(287,543,cs)
);
},
{
closed = 1;
nodes = (
(177,35,o),
(98,120,o),
(98,264,cs),
(98,408,o),
(177,493,o),
(287,493,cs),
(397,493,o),
(476,408,o),
(476,264,cs),
(476,120,o),
(397,35,o),
(287,35,cs)
);
}
);
width = 574;
}
);
note = ohungarumlaut;
unicode = 337;
},
{
glyphname = omacron;
kernLeft = c;
kernRight = b;
layers = (
{
hints = (
{
horizontal = 1;
place = (-14, 49);
place = (-14, 49);
type = Stem;
},
{
horizontal = 1;
place = (493, 50);
place = (493, 50);
type = Stem;
},
{
horizontal = 1;
place = (610, 40);
place = (610, 40);
type = Stem;
},
{
place = (30, 68);
place = (30, 68);
type = Stem;
},
{
place = (186, 202);
place = (186, 202);
type = Stem;
},
{
place = (476, 68);
place = (476, 68);
type = Stem;
}
);
layerId = m01;
shapes = (
{
closed = 1;
nodes = (
(388,610,l),
(388,650,l),
(186,650,l),
(186,610,l)
);
},
{
closed = 1;
nodes = (
(119,543,o),
(30,420,o),
(30,264,cs),
(30,109,o),
(119,-14,o),
(287,-14,cs),
(455,-14,o),
(544,109,o),
(544,264,cs),
(544,420,o),
(455,543,o),
(287,543,cs)
);
},
{
closed = 1;
nodes = (
(177,35,o),
(98,120,o),
(98,264,cs),
(98,408,o),
(177,493,o),
(287,493,cs),
(397,493,o),
(476,408,o),
(476,264,cs),
(476,120,o),
(397,35,o),
(287,35,cs)
);
}
);
width = 574;
}
);
note = omacron;
unicode = 333;
},
{
glyphname = oslash;
kernLeft = c;
kernRight = b;
layers = (
{
hints = (
{
horizontal = 1;
place = (-14, 49);
place = (-14, 49);
type = Stem;
},
{
horizontal = 1;
place = (493, 50);
place = (493, 50);
type = Stem;
},
{
place = (42, 67);
place = (42, 67);
type = Stem;
},
{
place = (488, 68);
place = (488, 68);
type = Stem;
}
);
layerId = m01;
shapes = (
{
closed = 1;
nodes = (
(584,512,l),
(553,543,l),
(482,472,l),
(439,516,o),
(377,543,o),
(299,543,cs),
(131,543,o),
(42,420,o),
(42,264,cs),
(42,195,o),
(60,132,o),
(94,84,c),
(26,16,l),
(57,-15,l),
(123,51,l),
(165,10,o),
(224,-14,o),
(299,-14,cs),
(467,-14,o),
(556,109,o),
(556,264,cs),
(556,330,o),
(540,390,o),
(509,437,c)
);
},
{
closed = 1;
nodes = (
(109,408,o),
(189,493,o),
(299,493,cs),
(356,493,o),
(404,470,o),
(438,428,c),
(139,129,l),
(120,165,o),
(109,211,o),
(109,264,cs)
);
},
{
closed = 1;
nodes = (
(488,120,o),
(408,35,o),
(299,35,cs),
(245,35,o),
(199,55,o),
(165,93,c),
(462,390,l),
(479,356,o),
(488,313,o),
(488,264,cs)
);
}
);
width = 610;
}
);
note = oslash;
unicode = 248;
},
{
glyphname = otilde;
kernLeft = c;
kernRight = b;
layers = (
{
hints = (
{
horizontal = 1;
place = (-14, 49);
place = (-14, 49);
type = Stem;
},
{
horizontal = 1;
place = (493, 50);
place = (493, 50);
type = Stem;
},
{
horizontal = 1;
place = (632, 39);
place = (632, 39);
type = Stem;
},
{
place = (30, 68);
place = (30, 68);
type = Stem;
},
{
place = (188, 31);
place = (188, 31);
type = Stem;
},
{
place = (476, 68);
place = (476, 68);
type = Stem;
},
{
horizontal = 1;
place = (607, 40);
place = (607, 40);
type = Stem;
},
{
place = (355, 31);
place = (355, 31);
type = Stem;
}
);
layerId = m01;
shapes = (
{
closed = 1;
nodes = (
(244,632,o),
(256,628,o),
(280,620,cs),
(307,611,o),
(322,607,o),
(340,607,cs),
(369,607,o),
(386,622,o),
(386,667,c),
(355,667,l),
(355,652,o),
(349,647,o),
(339,647,cs),
(330,647,o),
(318,650,o),
(294,658,cs),
(267,667,o),
(252,671,o),
(234,671,cs),
(205,671,o),
(188,656,o),
(188,611,c),
(219,611,l),
(219,626,o),
(225,632,o),
(235,632,cs)
);
},
{
closed = 1;
nodes = (
(119,543,o),
(30,420,o),
(30,264,cs),
(30,109,o),
(119,-14,o),
(287,-14,cs),
(455,-14,o),
(544,109,o),
(544,264,cs),
(544,420,o),
(455,543,o),
(287,543,cs)
);
},
{
closed = 1;
nodes = (
(177,35,o),
(98,120,o),
(98,264,cs),
(98,408,o),
(177,493,o),
(287,493,cs),
(397,493,o),
(476,408,o),
(476,264,cs),
(476,120,o),
(397,35,o),
(287,35,cs)
);
}
);
width = 574;
}
);
note = otilde;
unicode = 245;
},
{
glyphname = oe;
kernLeft = c;
kernRight = ae;
layers = (
{
hints = (
{
horizontal = 1;
place = (-14, 49);
place = (-14, 49);
type = Stem;
},
{
horizontal = 1;
place = (246, 49);
place = (246, 49);
type = Stem;
},
{
horizontal = 1;
place = (493, 50);
place = (493, 50);
type = Stem;
},
{
place = (30, 68);
place = (30, 68);
type = Stem;
},
{
place = (476, 69);
place = (476, 69);
type = Stem;
},
{
place = (883, 63);
place = (883, 63);
type = Stem;
}
);
layerId = m01;
shapes = (
{
closed = 1;
nodes = (
(946,425,o),
(870,543,o),
(722,543,cs),
(631,543,o),
(550,494,o),
(511,394,c),
(473,492,o),
(395,543,o),
(287,543,cs),
(119,543,o),
(30,420,o),
(30,264,cs),
(30,109,o),
(119,-14,o),
(287,-14,cs),
(393,-14,o),
(469,37,o),
(507,133,c),
(546,30,o),
(624,-14,o),
(712,-14,cs),
(817,-14,o),
(914,44,o),
(939,167,c),
(874,167,l),
(855,80,o),
(789,35,o),
(715,35,cs),
(630,35,o),
(551,95,o),
(545,246,c),
(945,246,l),
(946,262,o),
(946,272,o),
(946,279,cs)
);
},
{
closed = 1;
nodes = (
(177,35,o),
(98,120,o),
(98,264,cs),
(98,408,o),
(177,493,o),
(287,493,cs),
(397,493,o),
(476,408,o),
(476,264,cs),
(476,120,o),
(397,35,o),
(287,35,cs)
);
},
{
closed = 1;
nodes = (
(545,295,l),
(553,428,o),
(631,493,o),
(720,493,cs),
(808,493,o),
(876,432,o),
(883,295,c)
);
}
);
width = 985;
}
);
note = oe;
unicode = 339;
},
{
glyphname = p;
kernLeft = m;
kernRight = b;
layers = (
{
hints = (
{
horizontal = 1;
place = (-14, 49);
place = (-14, 49);
type = Stem;
},
{
horizontal = 1;
place = (493, 50);
place = (493, 50);
type = Stem;
},
{
place = (73, 62);
place = (73, 62);
type = Stem;
},
{
place = (488, 68);
place = (488, 68);
type = Stem;
},
{
horizontal = 1;
place = (532, -20);
target = down;
type = TopGhost;
}
);
layerId = m01;
shapes = (
{
closed = 1;
nodes = (
(259,543,o),
(207,525,o),
(170,489,c),
(135,431,l),
(135,532,l),
(73,532,l),
(73,-196,l),
(135,-196,l),
(135,90,l),
(168,33,l),
(201,2,o),
(252,-14,o),
(304,-14,cs),
(438,-14,o),
(556,79,o),
(556,271,cs),
(556,428,o),
(468,543,o),
(320,543,cs)
);
},
{
closed = 1;
nodes = (
(226,35,o),
(135,86,o),
(135,237,cs),
(135,277,ls),
(135,437,o),
(217,493,o),
(311,493,cs),
(427,493,o),
(488,390,o),
(488,263,cs),
(488,120,o),
(410,35,o),
(304,35,cs)
);
}
);
width = 586;
}
);
note = p;
unicode = 112;
},
{
glyphname = thorn;
kernLeft = b;
kernRight = b;
layers = (
{
hints = (
{
horizontal = 1;
place = (-14, 49);
place = (-14, 49);
type = Stem;
},
{
horizontal = 1;
place = (493, 50);
place = (493, 50);
type = Stem;
},
{
horizontal = 1;
place = (735, -20);
target = down;
type = TopGhost;
},
{
place = (73, 62);
place = (73, 62);
type = Stem;
},
{
place = (488, 68);
place = (488, 68);
type = Stem;
}
);
layerId = m01;
shapes = (
{
closed = 1;
nodes = (
(259,543,o),
(207,525,o),
(170,489,c),
(135,431,l),
(135,735,l),
(73,735,l),
(73,-196,l),
(135,-196,l),
(135,90,l),
(168,33,l),
(201,2,o),
(252,-14,o),
(304,-14,cs),
(438,-14,o),
(556,79,o),
(556,271,cs),
(556,428,o),
(468,543,o),
(320,543,cs)
);
},
{
closed = 1;
nodes = (
(226,35,o),
(135,86,o),
(135,237,cs),
(135,277,ls),
(135,437,o),
(217,493,o),
(311,493,cs),
(427,493,o),
(488,390,o),
(488,263,cs),
(488,120,o),
(410,35,o),
(304,35,cs)
);
}
);
width = 586;
}
);
note = thorn;
unicode = 254;
},
{
glyphname = q;
kernLeft = c;
layers = (
{
hints = (
{
horizontal = 1;
place = (-14, 49);
place = (-14, 49);
type = Stem;
},
{
horizontal = 1;
place = (532, -20);
target = down;
type = TopGhost;
},
{
place = (30, 68);
place = (30, 68);
type = Stem;
},
{
place = (451, 62);
place = (451, 62);
type = Stem;
},
{
horizontal = 1;
place = (493, 50);
place = (493, 50);
type = Stem;
}
);
layerId = m01;
shapes = (
{
closed = 1;
nodes = (
(513,532,l),
(451,532,l),
(451,438,l),
(418,495,l),
(385,527,o),
(334,543,o),
(282,543,cs),
(148,543,o),
(30,450,o),
(30,258,cs),
(30,101,o),
(118,-14,o),
(266,-14,cs),
(327,-14,o),
(379,3,o),
(416,40,c),
(451,98,l),
(451,-196,l),
(513,-196,l)
);
},
{
closed = 1;
nodes = (
(159,35,o),
(98,139,o),
(98,266,cs),
(98,409,o),
(176,493,o),
(282,493,cs),
(360,493,o),
(451,442,o),
(451,292,cs),
(451,252,ls),
(451,92,o),
(369,35,o),
(275,35,cs)
);
}
);
width = 589;
}
);
note = q;
unicode = 113;
},
{
glyphname = r;
kernLeft = m;
kernRight = r;
layers = (
{
hints = (
{
horizontal = 1;
place = (0, 21);
target = up;
type = BottomGhost;
},
{
horizontal = 1;
place = (541, -20);
target = down;
type = TopGhost;
},
{
place = (73, 62);
place = (73, 62);
type = Stem;
},
{
horizontal = 1;
place = (529, -20);
target = down;
type = TopGhost;
},
{
horizontal = 1;
place = (537, -20);
target = down;
type = TopGhost;
}
);
layerId = m01;
shapes = (
{
closed = 1;
nodes = (
(230,541,o),
(197,526,o),
(173,501,c),
(135,433,l),
(135,529,l),
(73,529,l),
(73,0,l),
(135,0,l),
(135,297,ls),
(135,438,o),
(203,495,o),
(295,488,c),
(295,537,l),
(286,540,o),
(275,541,o),
(264,541,cs)
);
}
);
width = 303;
}
);
note = r;
unicode = 114;
},
{
glyphname = racute;
kernLeft = m;
kernRight = r;
layers = (
{
hints = (
{
horizontal = 1;
place = (0, 21);
target = up;
type = BottomGhost;
},
{
horizontal = 1;
place = (541, -20);
target = down;
type = TopGhost;
},
{
horizontal = 1;
place = (580, 110);
place = (580, 110);
type = Stem;
},
{
place = (73, 62);
place = (73, 62);
type = Stem;
},
{
horizontal = 1;
place = (529, -20);
target = down;
type = TopGhost;
},
{
horizontal = 1;
place = (537, -20);
target = down;
type = TopGhost;
}
);
layerId = m01;
shapes = (
{
closed = 1;
nodes = (
(179,580,l),
(258,690,l),
(198,690,l),
(137,580,l)
);
},
{
closed = 1;
nodes = (
(230,541,o),
(197,526,o),
(173,501,c),
(135,433,l),
(135,529,l),
(73,529,l),
(73,0,l),
(135,0,l),
(135,297,ls),
(135,438,o),
(203,495,o),
(295,488,c),
(295,537,l),
(286,540,o),
(275,541,o),
(264,541,cs)
);
}
);
width = 303;
}
);
note = racute;
unicode = 341;
},
{
glyphname = rcaron;
kernLeft = m;
kernRight = r;
layers = (
{
hints = (
{
horizontal = 1;
place = (0, 21);
target = up;
type = BottomGhost;
},
{
horizontal = 1;
place = (541, -20);
target = down;
type = TopGhost;
},
{
horizontal = 1;
place = (580, 110);
place = (580, 110);
type = Stem;
},
{
place = (73, 62);
place = (73, 62);
type = Stem;
},
{
horizontal = 1;
place = (529, -20);
target = down;
type = TopGhost;
},
{
horizontal = 1;
place = (537, -20);
target = down;
type = TopGhost;
}
);
layerId = m01;
shapes = (
{
closed = 1;
nodes = (
(141,580,l),
(186,580,l),
(253,690,l),
(205,690,l),
(164,615,l),
(124,690,l),
(75,690,l)
);
},
{
closed = 1;
nodes = (
(230,541,o),
(197,526,o),
(173,501,c),
(135,433,l),
(135,529,l),
(73,529,l),
(73,0,l),
(135,0,l),
(135,297,ls),
(135,438,o),
(203,495,o),
(295,488,c),
(295,537,l),
(286,540,o),
(275,541,o),
(264,541,cs)
);
}
);
width = 303;
}
);
note = rcaron;
unicode = 345;
},
{
glyphname = rcommaaccent;
kernLeft = m;
kernRight = r;
layers = (
{
hints = (
{
horizontal = 1;
place = (-187, 136);
place = (-187, 136);
type = Stem;
},
{
horizontal = 1;
place = (0, 21);
target = up;
type = BottomGhost;
},
{
horizontal = 1;
place = (541, -20);
target = down;
type = TopGhost;
},
{
place = (73, 62);
place = (73, 62);
type = Stem;
},
{
horizontal = 1;
place = (529, -20);
target = down;
type = TopGhost;
},
{
horizontal = 1;
place = (537, -20);
target = down;
type = TopGhost;
}
);
layerId = m01;
shapes = (
{
closed = 1;
nodes = (
(230,541,o),
(197,526,o),
(173,501,c),
(135,433,l),
(135,529,l),
(73,529,l),
(73,0,l),
(135,0,l),
(135,297,ls),
(135,438,o),
(203,495,o),
(295,488,c),
(295,537,l),
(286,540,o),
(275,541,o),
(264,541,cs)
);
},
{
closed = 1;
nodes = (
(80,-51,l),
(31,-187,l),
(77,-187,l),
(132,-60,l),
(132,-51,l)
);
}
);
width = 303;
}
);
note = rcommaaccent;
unicode = 343;
},
{
glyphname = s;
layers = (
{
hints = (
{
horizontal = 1;
place = (-14, 49);
place = (-14, 49);
type = Stem;
},
{
horizontal = 1;
place = (493, 50);
place = (493, 50);
type = Stem;
},
{
place = (47, 64);
place = (47, 64);
type = Stem;
},
{
place = (354, 63);
place = (354, 63);
type = Stem;
}
);
layerId = m01;
shapes = (
{
closed = 1;
nodes = (
(119,543,o),
(47,483,o),
(47,392,cs),
(47,301,o),
(122,264,o),
(213,240,cs),
(316,215,o),
(354,186,o),
(354,127,cs),
(354,66,o),
(299,35,o),
(232,35,cs),
(161,35,o),
(104,66,o),
(89,156,c),
(25,156,l),
(40,36,o),
(123,-14,o),
(228,-14,cs),
(337,-14,o),
(417,38,o),
(417,132,cs),
(417,221,o),
(359,265,o),
(237,295,cs),
(161,314,o),
(111,338,o),
(111,399,cs),
(111,457,o),
(154,493,o),
(218,493,cs),
(289,493,o),
(332,454,o),
(347,381,c),
(412,381,l),
(400,474,o),
(338,543,o),
(223,543,cs)
);
}
);
width = 450;
}
);
note = s;
unicode = 115;
},
{
glyphname = sacute;
layers = (
{
hints = (
{
horizontal = 1;
place = (-14, 49);
place = (-14, 49);
type = Stem;
},
{
horizontal = 1;
place = (493, 50);
place = (493, 50);
type = Stem;
},
{
horizontal = 1;
place = (580, 110);
place = (580, 110);
type = Stem;
},
{
place = (47, 64);
place = (47, 64);
type = Stem;
},
{
place = (354, 63);
place = (354, 63);
type = Stem;
}
);
layerId = m01;
shapes = (
{
closed = 1;
nodes = (
(241,580,l),
(320,690,l),
(260,690,l),
(199,580,l)
);
},
{
closed = 1;
nodes = (
(119,543,o),
(47,483,o),
(47,392,cs),
(47,301,o),
(122,264,o),
(213,240,cs),
(316,215,o),
(354,186,o),
(354,127,cs),
(354,66,o),
(299,35,o),
(232,35,cs),
(161,35,o),
(104,66,o),
(89,156,c),
(25,156,l),
(40,36,o),
(123,-14,o),
(228,-14,cs),
(337,-14,o),
(417,38,o),
(417,132,cs),
(417,221,o),
(359,265,o),
(237,295,cs),
(161,314,o),
(111,338,o),
(111,399,cs),
(111,457,o),
(154,493,o),
(218,493,cs),
(289,493,o),
(332,454,o),
(347,381,c),
(412,381,l),
(400,474,o),
(338,543,o),
(223,543,cs)
);
}
);
width = 450;
}
);
note = sacute;
unicode = 347;
},
{
glyphname = scaron;
layers = (
{
hints = (
{
horizontal = 1;
place = (-14, 49);
place = (-14, 49);
type = Stem;
},
{
horizontal = 1;
place = (493, 50);
place = (493, 50);
type = Stem;
},
{
horizontal = 1;
place = (580, 110);
place = (580, 110);
type = Stem;
},
{
place = (47, 64);
place = (47, 64);
type = Stem;
},
{
place = (354, 63);
place = (354, 63);
type = Stem;
}
);
layerId = m01;
shapes = (
{
closed = 1;
nodes = (
(203,580,l),
(248,580,l),
(315,690,l),
(267,690,l),
(226,615,l),
(186,690,l),
(137,690,l)
);
},
{
closed = 1;
nodes = (
(161,314,o),
(111,338,o),
(111,399,cs),
(111,457,o),
(154,493,o),
(218,493,cs),
(289,493,o),
(332,454,o),
(347,381,c),
(412,381,l),
(400,474,o),
(338,543,o),
(223,543,cs),
(119,543,o),
(47,483,o),
(47,392,cs),
(47,301,o),
(122,264,o),
(213,240,cs),
(316,215,o),
(354,186,o),
(354,127,cs),
(354,66,o),
(299,35,o),
(232,35,cs),
(161,35,o),
(104,66,o),
(89,156,c),
(25,156,l),
(40,36,o),
(123,-14,o),
(228,-14,cs),
(337,-14,o),
(417,38,o),
(417,132,cs),
(417,221,o),
(359,265,o),
(237,295,cs)
);
}
);
width = 450;
}
);
note = scaron;
unicode = 353;
},
{
glyphname = scedilla;
layers = (
{
hints = (
{
horizontal = 1;
place = (-210, 34);
place = (-210, 34);
type = Stem;
},
{
horizontal = 1;
place = (-75, 31);
place = (-75, 31);
type = Stem;
},
{
horizontal = 1;
place = (-13, 48);
place = (-13, 48);
type = Stem;
},
{
horizontal = 1;
place = (493, 50);
place = (493, 50);
type = Stem;
},
{
place = (47, 64);
place = (47, 64);
type = Stem;
},
{
place = (272, 45);
place = (272, 45);
type = Stem;
},
{
place = (354, 63);
place = (354, 63);
type = Stem;
}
);
layerId = m01;
shapes = (
{
closed = 1;
nodes = (
(417,221,o),
(359,265,o),
(237,295,cs),
(161,314,o),
(111,338,o),
(111,399,cs),
(111,457,o),
(154,493,o),
(218,493,cs),
(289,493,o),
(332,454,o),
(347,381,c),
(412,381,l),
(400,474,o),
(338,543,o),
(223,543,cs),
(119,543,o),
(47,483,o),
(47,392,cs),
(47,301,o),
(122,264,o),
(213,240,cs),
(316,215,o),
(354,186,o),
(354,127,cs),
(354,66,o),
(299,35,o),
(232,35,cs),
(161,35,o),
(104,66,o),
(89,156,c),
(25,156,l),
(39,44,o),
(112,-7,o),
(208,-13,c),
(175,-75,l),
(244,-70,o),
(272,-90,o),
(272,-126,cs),
(272,-158,o),
(246,-176,o),
(204,-176,cs),
(182,-176,o),
(166,-173,o),
(151,-165,c),
(151,-201,l),
(165,-207,o),
(182,-210,o),
(202,-210,cs),
(266,-210,o),
(317,-182,o),
(317,-125,cs),
(317,-77,o),
(286,-50,o),
(233,-44,c),
(250,-13,l),
(348,-7,o),
(417,45,o),
(417,132,cs)
);
}
);
width = 450;
}
);
note = scedilla;
unicode = 351;
},
{
glyphname = scommaaccent;
layers = (
{
hints = (
{
horizontal = 1;
place = (-187, 136);
place = (-187, 136);
type = Stem;
},
{
horizontal = 1;
place = (-14, 49);
place = (-14, 49);
type = Stem;
},
{
horizontal = 1;
place = (493, 50);
place = (493, 50);
type = Stem;
},
{
place = (47, 64);
place = (47, 64);
type = Stem;
},
{
place = (354, 63);
place = (354, 63);
type = Stem;
}
);
layerId = m01;
shapes = (
{
closed = 1;
nodes = (
(119,543,o),
(47,483,o),
(47,392,cs),
(47,301,o),
(122,264,o),
(213,240,cs),
(316,215,o),
(354,186,o),
(354,127,cs),
(354,66,o),
(299,35,o),
(232,35,cs),
(161,35,o),
(104,66,o),
(89,156,c),
(25,156,l),
(40,36,o),
(123,-14,o),
(228,-14,cs),
(337,-14,o),
(417,38,o),
(417,132,cs),
(417,221,o),
(359,265,o),
(237,295,cs),
(161,314,o),
(111,338,o),
(111,399,cs),
(111,457,o),
(154,493,o),
(218,493,cs),
(289,493,o),
(332,454,o),
(347,381,c),
(412,381,l),
(400,474,o),
(338,543,o),
(223,543,cs)
);
},
{
closed = 1;
nodes = (
(262,-60,l),
(262,-51,l),
(210,-51,l),
(161,-187,l),
(207,-187,l)
);
}
);
width = 450;
}
);
note = scommaaccent;
unicode = 537;
},
{
glyphname = germandbls;
layers = (
{
hints = (
{
horizontal = 1;
place = (0, 21);
target = up;
type = BottomGhost;
},
{
horizontal = 1;
place = (704, 50);
place = (704, 50);
type = Stem;
},
{
place = (73, 62);
place = (73, 62);
type = Stem;
},
{
place = (316, 69);
place = (316, 69);
type = Stem;
},
{
place = (430, 69);
place = (430, 69);
type = Stem;
},
{
horizontal = 1;
place = (-4, 49);
place = (-4, 49);
type = Stem;
},
{
place = (469, 69);
place = (469, 69);
type = Stem;
}
);
layerId = m01;
shapes = (
{
closed = 1;
nodes = (
(177,754,o),
(83,685,o),
(75,548,cs),
(74,530,o),
(73,504,o),
(73,484,cs),
(73,0,l),
(135,0,l),
(135,490,ls),
(135,513,o),
(136,532,o),
(137,546,cs),
(144,649,o),
(208,704,o),
(291,704,cs),
(377,704,o),
(430,658,o),
(430,582,cs),
(430,557,o),
(425,535,o),
(410,511,c),
(346,479,o),
(316,445,o),
(316,396,cs),
(316,344,o),
(336,316,o),
(397,262,cs),
(456,209,o),
(469,179,o),
(469,142,cs),
(469,82,o),
(428,45,o),
(352,45,cs),
(326,45,o),
(295,48,o),
(253,58,c),
(253,6,l),
(292,-2,o),
(322,-4,o),
(355,-4,cs),
(461,-4,o),
(538,49,o),
(538,138,cs),
(538,204,o),
(509,246,o),
(448,298,cs),
(402,336,o),
(385,360,o),
(385,396,cs),
(385,429,o),
(414,453,o),
(467,480,c),
(491,517,o),
(499,551,o),
(499,583,cs),
(499,688,o),
(415,754,o),
(294,754,cs)
);
}
);
width = 580;
}
);
note = germandbls;
unicode = 223;
},
{
glyphname = t;
kernLeft = t;
kernRight = t;
layers = (
{
hints = (
{
horizontal = 1;
place = (-8, 48.63);
place = (-8, 48.63);
type = Stem;
},
{
horizontal = 1;
place = (477, 48);
place = (477, 48);
type = Stem;
},
{
place = (91, 62);
place = (91, 62);
type = Stem;
}
);
layerId = m01;
shapes = (
{
closed = 1;
nodes = (
(153,477,l),
(254,477,l),
(254,525,l),
(153,525,l),
(153,642,l),
(91,642,l),
(91,525,l),
(23,525,l),
(23,477,l),
(91,477,l),
(91,144,ls),
(91,114,o),
(91,94,o),
(92,76,cs),
(97,18,o),
(128,-8,o),
(187,-8,cs),
(208,-8,o),
(230,-7,o),
(251,-3,c),
(251,43,l),
(180,34,o),
(158,47,o),
(154,98,cs),
(153,112,o),
(153,123,o),
(153,145,cs)
);
}
);
width = 284;
}
);
note = t;
unicode = 116;
},
{
glyphname = tbar;
kernLeft = t;
kernRight = t;
layers = (
{
hints = (
{
horizontal = 1;
place = (-8, 48.63);
place = (-8, 48.63);
type = Stem;
},
{
horizontal = 1;
place = (309, 40);
place = (309, 40);
type = Stem;
},
{
horizontal = 1;
place = (477, 48);
place = (477, 48);
type = Stem;
},
{
place = (91, 62);
place = (91, 62);
type = Stem;
}
);
layerId = m01;
shapes = (
{
closed = 1;
nodes = (
(153,477,l),
(254,477,l),
(254,525,l),
(153,525,l),
(153,642,l),
(91,642,l),
(91,525,l),
(23,525,l),
(23,477,l),
(91,477,l),
(91,349,l),
(26,349,l),
(26,309,l),
(91,309,l),
(91,144,ls),
(91,114,o),
(91,94,o),
(92,76,cs),
(97,18,o),
(128,-8,o),
(187,-8,cs),
(208,-8,o),
(230,-7,o),
(251,-3,c),
(251,43,l),
(180,34,o),
(158,47,o),
(154,98,cs),
(153,112,o),
(153,123,o),
(153,145,cs),
(153,309,l),
(228,309,l),
(228,349,l),
(153,349,l)
);
}
);
width = 284;
}
);
note = tbar;
unicode = 359;
},
{
glyphname = tcaron;
kernLeft = t;
layers = (
{
hints = (
{
horizontal = 1;
place = (-8, 48.63);
place = (-8, 48.63);
type = Stem;
},
{
horizontal = 1;
place = (477, 48);
place = (477, 48);
type = Stem;
},
{
horizontal = 1;
place = (599, 136);
place = (599, 136);
type = Stem;
},
{
place = (91, 62);
place = (91, 62);
type = Stem;
},
{
horizontal = 1;
place = (599, 43);
place = (599, 43);
type = Stem;
}
);
layerId = m01;
shapes = (
{
closed = 1;
nodes = (
(298,735,l),
(246,735,l),
(197,599,l),
(243,599,l),
(298,725,l)
);
},
{
closed = 1;
nodes = (
(153,525,l),
(153,642,l),
(91,642,l),
(91,525,l),
(23,525,l),
(23,477,l),
(91,477,l),
(91,144,ls),
(91,114,o),
(91,94,o),
(92,76,cs),
(97,18,o),
(128,-8,o),
(187,-8,cs),
(208,-8,o),
(230,-7,o),
(251,-3,c),
(251,43,l),
(180,34,o),
(158,47,o),
(154,98,cs),
(153,112,o),
(153,123,o),
(153,145,cs),
(153,477,l),
(254,477,l),
(254,525,l)
);
}
);
width = 272;
}
);
note = tcaron;
unicode = 357;
},
{
glyphname = tcedilla;
kernLeft = t;
kernRight = t;
layers = (
{
hints = (
{
horizontal = 1;
place = (-210, 34);
place = (-210, 34);
type = Stem;
},
{
horizontal = 1;
place = (-8, 48.63);
place = (-8, 48.63);
type = Stem;
},
{
horizontal = 1;
place = (477, 48);
place = (477, 48);
type = Stem;
},
{
place = (91, 62);
place = (91, 62);
type = Stem;
},
{
place = (206, 45);
place = (206, 45);
type = Stem;
},
{
horizontal = 1;
place = (-75, 31);
place = (-75, 31);
type = Stem;
},
{
horizontal = 1;
place = (-3, 21);
target = up;
type = BottomGhost;
}
);
layerId = m01;
shapes = (
{
closed = 1;
nodes = (
(153,477,l),
(254,477,l),
(254,525,l),
(153,525,l),
(153,642,l),
(91,642,l),
(91,525,l),
(23,525,l),
(23,477,l),
(91,477,l),
(91,144,ls),
(91,114,o),
(91,94,o),
(92,76,cs),
(96,33,o),
(114,7,o),
(147,-3,c),
(109,-75,l),
(178,-70,o),
(206,-90,o),
(206,-126,cs),
(206,-158,o),
(180,-176,o),
(138,-176,cs),
(116,-176,o),
(100,-173,o),
(85,-165,c),
(85,-201,l),
(99,-207,o),
(116,-210,o),
(136,-210,cs),
(200,-210,o),
(251,-182,o),
(251,-125,cs),
(251,-77,o),
(220,-50,o),
(167,-44,c),
(187,-8,l),
(208,-8,o),
(230,-7,o),
(251,-3,c),
(251,43,l),
(180,34,o),
(158,47,o),
(154,98,cs),
(153,112,o),
(153,123,o),
(153,145,cs)
);
}
);
width = 284;
}
);
note = tcedilla;
unicode = 355;
},
{
glyphname = uni021B;
kernLeft = t;
kernRight = t;
layers = (
{
hints = (
{
horizontal = 1;
place = (-187, 136);
place = (-187, 136);
type = Stem;
},
{
horizontal = 1;
place = (-8, 48.63);
place = (-8, 48.63);
type = Stem;
},
{
horizontal = 1;
place = (477, 48);
place = (477, 48);
type = Stem;
},
{
place = (91, 62);
place = (91, 62);
type = Stem;
}
);
layerId = m01;
shapes = (
{
closed = 1;
nodes = (
(153,477,l),
(254,477,l),
(254,525,l),
(153,525,l),
(153,642,l),
(91,642,l),
(91,525,l),
(23,525,l),
(23,477,l),
(91,477,l),
(91,144,ls),
(91,114,o),
(91,94,o),
(92,76,cs),
(97,18,o),
(128,-8,o),
(187,-8,cs),
(208,-8,o),
(230,-7,o),
(251,-3,c),
(251,43,l),
(180,34,o),
(158,47,o),
(154,98,cs),
(153,112,o),
(153,123,o),
(153,145,cs)
);
},
{
closed = 1;
nodes = (
(144,-51,l),
(95,-187,l),
(141,-187,l),
(196,-60,l),
(196,-51,l)
);
}
);
width = 284;
}
);
note = uni021B;
unicode = 539;
},
{
glyphname = u;
kernLeft = u;
layers = (
{
hints = (
{
horizontal = 1;
place = (-14, 50);
place = (-14, 50);
type = Stem;
},
{
horizontal = 1;
place = (529, -20);
target = down;
type = TopGhost;
},
{
place = (65, 62);
place = (65, 62);
type = Stem;
},
{
place = (430, 62);
place = (430, 62);
type = Stem;
},
{
horizontal = 1;
place = (0, 21);
target = up;
type = BottomGhost;
}
);
layerId = m01;
shapes = (
{
closed = 1;
nodes = (
(492,529,l),
(430,529,l),
(430,266,ls),
(430,100,o),
(355,36,o),
(267,36,cs),
(185,36,o),
(139,85,o),
(131,155,cs),
(128,182,o),
(127,209,o),
(127,234,cs),
(127,529,l),
(65,529,l),
(65,220,ls),
(65,177,o),
(66,158,o),
(69,131,cs),
(81,47,o),
(145,-14,o),
(253,-14,cs),
(311,-14,o),
(359,2,o),
(401,43,c),
(430,102,l),
(430,0,l),
(492,0,l)
);
}
);
width = 567;
}
);
note = u;
unicode = 117;
},
{
glyphname = uacute;
kernLeft = u;
layers = (
{
hints = (
{
horizontal = 1;
place = (-14, 50);
place = (-14, 50);
type = Stem;
},
{
horizontal = 1;
place = (529, -20);
target = down;
type = TopGhost;
},
{
horizontal = 1;
place = (580, 110);
place = (580, 110);
type = Stem;
},
{
place = (65, 62);
place = (65, 62);
type = Stem;
},
{
place = (430, 62);
place = (430, 62);
type = Stem;
},
{
horizontal = 1;
place = (0, 21);
target = up;
type = BottomGhost;
}
);
layerId = m01;
shapes = (
{
closed = 1;
nodes = (
(294,580,l),
(373,690,l),
(313,690,l),
(252,580,l)
);
},
{
closed = 1;
nodes = (
(492,529,l),
(430,529,l),
(430,266,ls),
(430,100,o),
(355,36,o),
(267,36,cs),
(185,36,o),
(139,85,o),
(131,155,cs),
(128,182,o),
(127,209,o),
(127,234,cs),
(127,529,l),
(65,529,l),
(65,220,ls),
(65,177,o),
(66,158,o),
(69,131,cs),
(81,47,o),
(145,-14,o),
(253,-14,cs),
(311,-14,o),
(359,2,o),
(401,43,c),
(430,102,l),
(430,0,l),
(492,0,l)
);
}
);
width = 567;
}
);
note = uacute;
unicode = 250;
},
